<svg width="41" height="30" viewBox="0 0 41 30" fill="none" xmlns="http://www.w3.org/2000/svg">
<path d="M10.1333 6.54828C22.2644 -6.04934 36.2617 6.54828 36.2617 6.54828C36.2617 6.54828 22.2644 19.1459 10.1333 6.54828Z" fill="#36C63F"/>
<path d="M27.8938 11.7427C32.954 10.154 36.4454 7.04594 36.5916 6.91438L37 6.54675L36.5916 6.17913C36.4454 6.04756 32.954 2.93943 27.8938 1.35073C24.902 0.41148 21.9897 0.208229 19.2377 0.746731C15.858 1.40798 12.7256 3.19312 9.92432 6.05213L5 6.05213L5 7.04132L9.92432 7.04132C12.7257 9.90033 15.8579 11.6855 19.2377 12.3467C21.9897 12.8852 24.9021 12.682 27.8938 11.7427ZM19.4097 11.3725C16.5163 10.8026 13.806 9.34726 11.3384 7.04132L18.3259 7.04132L20.9805 9.69595L21.6798 8.99651L19.7247 7.04138L25.5294 7.04138L25.5294 6.05219L22.0575 6.05219L24.0127 4.09699L23.3133 3.39762L20.6587 6.05219L15.992 6.05219L17.4806 4.56356L16.7812 3.86418L14.5931 6.05225L11.3384 6.05225C13.806 3.7463 16.5163 2.29086 19.4097 1.72098C21.9942 1.21198 24.7388 1.4018 27.5674 2.28511C31.4272 3.49049 34.4068 5.67969 35.4887 6.54682C34.4067 7.41401 31.4272 9.60308 27.5674 10.8085C24.7389 11.6918 21.9942 11.8816 19.4097 11.3725Z" fill="#009F06"/>
<path opacity="0.3" d="M27.3945 7.04001L27.3945 6.0509L26.4615 6.0509L26.4615 7.04001L27.3945 7.04001Z" fill="white"/>
<path opacity="0.2" d="M29.2617 7.04001L29.2617 6.0509L28.3287 6.0509L28.3287 7.04001L29.2617 7.04001Z" fill="#1A1A1A"/>
<path d="M0.987 29.1867C0.891667 29.1867 0.779 29.1564 0.649 29.0957C0.510333 29.035 0.393333 28.9137 0.298 28.7317C0.194 28.5584 0.142 28.294 0.142 27.9387C0.142 27.566 0.207 27.0764 0.337 26.4697C0.458333 25.8717 0.631667 25.2087 0.857 24.4807C1.07367 23.744 1.32933 22.99 1.624 22.2187C1.92733 21.4474 2.248 20.7064 2.586 19.9957C2.93267 19.2764 3.288 18.6307 3.652 18.0587C4.02467 17.4867 4.393 17.0317 4.757 16.6937C5.121 16.3557 5.472 16.1867 5.81 16.1867C6.03533 16.1867 6.18267 16.256 6.252 16.3947C6.32133 16.5247 6.356 16.6764 6.356 16.8497C6.356 17.2224 6.252 17.6297 6.044 18.0717C5.84467 18.5137 5.576 18.96 5.238 19.4107C4.9 19.8527 4.51867 20.273 4.094 20.6717C3.678 21.0704 3.249 21.4127 2.807 21.6987C2.77233 21.7854 2.73767 21.872 2.703 21.9587C2.66833 22.0454 2.63367 22.132 2.599 22.2187C2.69433 22.2534 2.768 22.314 2.82 22.4007C2.88067 22.4874 2.91533 22.5784 2.924 22.6737C2.99333 23.0464 3.06267 23.38 3.132 23.6747C3.20133 23.9607 3.30533 24.186 3.444 24.3507C3.59133 24.5154 3.79933 24.5977 4.068 24.5977C4.37133 24.5977 4.64 24.485 4.874 24.2597C5.108 24.0344 5.34633 23.718 5.589 23.3107L5.875 23.5187C5.59767 24.0734 5.28567 24.4807 4.939 24.7407C4.59233 24.992 4.28033 25.1177 4.003 25.1177C3.85567 25.1177 3.69967 25.0874 3.535 25.0267C3.379 24.966 3.22733 24.8794 3.08 24.7667C3.07133 25.304 3.00633 25.8327 2.885 26.3527C2.77233 26.8814 2.61633 27.358 2.417 27.7827C2.21767 28.2074 1.99233 28.5454 1.741 28.7967C1.49833 29.0567 1.247 29.1867 0.987 29.1867ZM1.351 28.3807C1.44633 28.3807 1.546 28.2984 1.65 28.1337C1.76267 27.969 1.871 27.7524 1.975 27.4837C2.079 27.215 2.17433 26.916 2.261 26.5867C2.34767 26.266 2.417 25.9454 2.469 25.6247C2.521 25.3127 2.547 25.0267 2.547 24.7667C2.547 24.5154 2.51667 24.2944 2.456 24.1037C2.404 23.9044 2.30867 23.6834 2.17 23.4407C1.97067 24.0387 1.793 24.615 1.637 25.1697C1.481 25.7244 1.35967 26.227 1.273 26.6777C1.18633 27.137 1.143 27.5184 1.143 27.8217C1.143 28.1944 1.21233 28.3807 1.351 28.3807ZM3.184 20.7887C3.71267 20.2947 4.16333 19.8137 4.536 19.3457C4.90867 18.8777 5.19033 18.466 5.381 18.1107C5.58033 17.7467 5.68 17.491 5.68 17.3437C5.68 17.2744 5.64533 17.2397 5.576 17.2397C5.368 17.2397 5.12967 17.4 4.861 17.7207C4.59233 18.0327 4.315 18.4574 4.029 18.9947C3.743 19.532 3.46133 20.13 3.184 20.7887ZM6.01902 26.1577C5.73302 26.1577 5.48602 26.0624 5.27802 25.8717C5.06135 25.681 4.95302 25.395 4.95302 25.0137C4.95302 24.7104 5.02235 24.381 5.16102 24.0257C5.29968 23.6704 5.49035 23.3194 5.73302 22.9727C5.97568 22.626 6.25302 22.314 6.56502 22.0367C6.87702 21.7507 7.21068 21.521 7.56602 21.3477C7.92135 21.1744 8.27668 21.0877 8.63202 21.0877C9.00468 21.0877 9.32102 21.183 9.58102 21.3737C9.84102 21.5644 9.97102 21.8157 9.97102 22.1277C9.97102 22.3617 9.88868 22.5307 9.72402 22.6347C9.55935 22.7387 9.36435 22.769 9.13902 22.7257C9.15635 22.6477 9.16935 22.5697 9.17802 22.4917C9.19535 22.4137 9.20402 22.3314 9.20402 22.2447C9.20402 22.0714 9.16935 21.9154 9.10002 21.7767C9.03068 21.638 8.88335 21.5687 8.65802 21.5687C8.41535 21.5687 8.16835 21.651 7.91702 21.8157C7.66568 21.9804 7.42302 22.197 7.18902 22.4657C6.96368 22.7257 6.76002 23.016 6.57802 23.3367C6.39602 23.6487 6.25302 23.9564 6.14902 24.2597C6.04502 24.563 5.99302 24.836 5.99302 25.0787C5.99302 25.356 6.09268 25.4947 6.29202 25.4947C6.49135 25.4947 6.71235 25.3994 6.95502 25.2087C7.19768 25.0094 7.44035 24.7624 7.68302 24.4677C7.93435 24.173 8.17268 23.874 8.39802 23.5707C8.62335 23.2587 8.81835 22.9944 8.98302 22.7777C9.00902 22.7344 9.04368 22.7127 9.08702 22.7127C9.12168 22.7214 9.18668 22.743 9.28202 22.7777C9.38602 22.8037 9.48135 22.847 9.56802 22.9077C9.65468 22.9684 9.69802 23.0464 9.69802 23.1417C9.69802 23.2284 9.65902 23.341 9.58102 23.4797C9.51168 23.6097 9.42502 23.757 9.32102 23.9217C9.22568 24.0777 9.13902 24.238 9.06102 24.4027C8.99168 24.5587 8.95702 24.7104 8.95702 24.8577C8.95702 24.9704 8.98735 25.0787 9.04802 25.1827C9.10868 25.278 9.20835 25.3257 9.34702 25.3257C9.55502 25.3257 9.84535 25.174 10.218 24.8707C10.5993 24.5587 10.985 24.0344 11.375 23.2977L11.622 23.5447C11.414 24.0127 11.1627 24.4287 10.868 24.7927C10.582 25.148 10.2787 25.4254 9.95802 25.6247C9.63735 25.8327 9.31235 25.9367 8.98302 25.9367C8.62768 25.9367 8.36335 25.824 8.19002 25.5987C8.01668 25.3734 7.92135 25.1307 7.90402 24.8707C7.90402 24.8534 7.90402 24.8404 7.90402 24.8317C7.90402 24.823 7.90402 24.8144 7.90402 24.8057C7.55735 25.2217 7.23668 25.551 6.94202 25.7937C6.65602 26.0364 6.34835 26.1577 6.01902 26.1577ZM13.4724 25.8847C13.1517 25.8847 12.8917 25.798 12.6924 25.6247C12.493 25.46 12.3934 25.2347 12.3934 24.9487C12.3934 24.706 12.454 24.446 12.5754 24.1687C12.6967 23.8914 12.818 23.6184 12.9394 23.3497C13.0694 23.081 13.1344 22.8427 13.1344 22.6347C13.1344 22.4354 13.0694 22.2707 12.9394 22.1407C12.8094 22.002 12.6577 21.8894 12.4844 21.8027C12.2937 22.2794 12.077 22.743 11.8344 23.1937C11.6004 23.6357 11.4097 23.9824 11.2624 24.2337L11.0674 23.8567C11.1887 23.6314 11.349 23.3107 11.5484 22.8947C11.7477 22.4787 11.9384 22.015 12.1204 21.5037C12.0337 21.417 11.9904 21.3 11.9904 21.1527C11.9904 20.9274 12.0597 20.715 12.1984 20.5157C12.337 20.3164 12.4714 20.2167 12.6014 20.2167C12.7054 20.2167 12.779 20.2774 12.8224 20.3987C12.8744 20.5114 12.9004 20.5894 12.9004 20.6327C12.9004 20.676 12.8787 20.754 12.8354 20.8667C12.8007 20.9794 12.7747 21.0617 12.7574 21.1137C12.766 21.209 12.8397 21.3044 12.9784 21.3997C13.1257 21.4864 13.2904 21.5904 13.4724 21.7117C13.6544 21.833 13.8147 21.9847 13.9534 22.1667C14.092 22.3487 14.1614 22.5784 14.1614 22.8557C14.1614 23.107 14.105 23.3627 13.9924 23.6227C13.8797 23.8827 13.767 24.1254 13.6544 24.3507C13.5417 24.576 13.4854 24.771 13.4854 24.9357C13.4854 25.057 13.5157 25.1394 13.5764 25.1827C13.6457 25.2174 13.7237 25.2347 13.8104 25.2347C14.0184 25.2347 14.235 25.174 14.4604 25.0527C14.6857 24.9227 14.9067 24.758 15.1234 24.5587C15.34 24.3594 15.5307 24.1514 15.6954 23.9347C15.86 23.7094 15.9857 23.5057 16.0724 23.3237L16.3844 23.5577C16.2197 23.9304 15.9814 24.2987 15.6694 24.6627C15.3574 25.018 15.0107 25.3127 14.6294 25.5467C14.248 25.772 13.8624 25.8847 13.4724 25.8847ZM22.589 25.9497C22.251 25.9497 21.9997 25.85 21.835 25.6507C21.6704 25.4514 21.588 25.213 21.588 24.9357C21.588 24.7364 21.6184 24.537 21.679 24.3377C21.7397 24.1384 21.8004 23.9434 21.861 23.7527C21.9217 23.5534 21.952 23.3757 21.952 23.2197C21.952 23.0724 21.9217 22.9727 21.861 22.9207C21.809 22.86 21.7397 22.8297 21.653 22.8297C21.4537 22.8297 21.2197 22.9814 20.951 23.2847C20.691 23.588 20.366 24.03 19.976 24.6107C19.8374 24.8187 19.7074 25.0397 19.586 25.2737C19.4647 25.499 19.3564 25.6897 19.261 25.8457C19.183 25.8457 19.079 25.8327 18.949 25.8067C18.8277 25.7807 18.7194 25.7417 18.624 25.6897C18.5287 25.6464 18.481 25.5857 18.481 25.5077C18.481 25.4297 18.5244 25.278 18.611 25.0527C18.6977 24.8274 18.7974 24.5674 18.91 24.2727C19.0227 23.9694 19.1224 23.6747 19.209 23.3887C19.2957 23.094 19.339 22.847 19.339 22.6477C19.339 22.5264 19.3174 22.431 19.274 22.3617C19.2307 22.2924 19.1614 22.2577 19.066 22.2577C18.884 22.2577 18.663 22.366 18.403 22.5827C18.1517 22.7994 17.883 23.0854 17.597 23.4407C17.3197 23.7874 17.0554 24.1774 16.804 24.6107C16.5614 25.0354 16.362 25.4644 16.206 25.8977C16.1107 25.8977 15.9937 25.876 15.855 25.8327C15.7164 25.798 15.595 25.7504 15.491 25.6897C15.387 25.6377 15.335 25.59 15.335 25.5467C15.335 25.538 15.3654 25.4167 15.426 25.1827C15.4867 24.94 15.5604 24.641 15.647 24.2857C15.7337 23.9304 15.8247 23.5664 15.92 23.1937C16.0154 22.821 16.0977 22.496 16.167 22.2187C16.193 22.1234 16.2884 22.041 16.453 21.9717C16.6177 21.8937 16.7607 21.8547 16.882 21.8547C17.0034 21.8547 17.1074 21.8937 17.194 21.9717C17.2807 22.0497 17.324 22.1537 17.324 22.2837C17.324 22.3704 17.3067 22.496 17.272 22.6607C17.2374 22.8254 17.194 23.0117 17.142 23.2197C17.324 22.977 17.5147 22.7387 17.714 22.5047C17.922 22.262 18.1344 22.0454 18.351 21.8547C18.5764 21.664 18.7974 21.5124 19.014 21.3997C19.2394 21.287 19.4604 21.2307 19.677 21.2307C19.9977 21.2307 20.2144 21.3477 20.327 21.5817C20.4397 21.807 20.496 22.054 20.496 22.3227C20.496 22.4354 20.4874 22.548 20.47 22.6607C20.4527 22.7647 20.4267 22.873 20.392 22.9857C20.366 23.0897 20.327 23.2154 20.275 23.3627C20.4397 23.12 20.6174 22.899 20.808 22.6997C21.0074 22.4917 21.2197 22.327 21.445 22.2057C21.6704 22.0844 21.9087 22.0237 22.16 22.0237C22.498 22.0237 22.732 22.1277 22.862 22.3357C22.992 22.535 23.057 22.756 23.057 22.9987C23.057 23.224 23.018 23.4624 22.94 23.7137C22.8707 23.9564 22.797 24.1904 22.719 24.4157C22.6497 24.6324 22.615 24.8187 22.615 24.9747C22.615 25.0614 22.6367 25.1437 22.68 25.2217C22.7234 25.291 22.81 25.3257 22.94 25.3257C23.174 25.3257 23.3994 25.2174 23.616 25.0007C23.8327 24.784 24.032 24.5197 24.214 24.2077C24.4047 23.887 24.565 23.5837 24.695 23.2977L24.916 23.5707C24.7774 23.926 24.5954 24.29 24.37 24.6627C24.1534 25.0267 23.8977 25.33 23.603 25.5727C23.3084 25.824 22.9704 25.9497 22.589 25.9497ZM25.1001 26.1577C24.8141 26.1577 24.5671 26.0624 24.3591 25.8717C24.1424 25.681 24.0341 25.395 24.0341 25.0137C24.0341 24.7104 24.1034 24.381 24.2421 24.0257C24.3807 23.6704 24.5714 23.3194 24.8141 22.9727C25.0567 22.626 25.3341 22.314 25.6461 22.0367C25.9581 21.7507 26.2917 21.521 26.6471 21.3477C27.0024 21.1744 27.3577 21.0877 27.7131 21.0877C28.0857 21.0877 28.4021 21.183 28.6621 21.3737C28.9221 21.5644 29.0521 21.8157 29.0521 22.1277C29.0521 22.3617 28.9697 22.5307 28.8051 22.6347C28.6404 22.7387 28.4454 22.769 28.2201 22.7257C28.2374 22.6477 28.2504 22.5697 28.2591 22.4917C28.2764 22.4137 28.2851 22.3314 28.2851 22.2447C28.2851 22.0714 28.2504 21.9154 28.1811 21.7767C28.1117 21.638 27.9644 21.5687 27.7391 21.5687C27.4964 21.5687 27.2494 21.651 26.9981 21.8157C26.7467 21.9804 26.5041 22.197 26.2701 22.4657C26.0447 22.7257 25.8411 23.016 25.6591 23.3367C25.4771 23.6487 25.3341 23.9564 25.2301 24.2597C25.1261 24.563 25.0741 24.836 25.0741 25.0787C25.0741 25.356 25.1737 25.4947 25.3731 25.4947C25.5724 25.4947 25.7934 25.3994 26.0361 25.2087C26.2787 25.0094 26.5214 24.7624 26.7641 24.4677C27.0154 24.173 27.2537 23.874 27.4791 23.5707C27.7044 23.2587 27.8994 22.9944 28.0641 22.7777C28.0901 22.7344 28.1247 22.7127 28.1681 22.7127C28.2027 22.7214 28.2677 22.743 28.3631 22.7777C28.4671 22.8037 28.5624 22.847 28.6491 22.9077C28.7357 22.9684 28.7791 23.0464 28.7791 23.1417C28.7791 23.2284 28.7401 23.341 28.6621 23.4797C28.5927 23.6097 28.5061 23.757 28.4021 23.9217C28.3067 24.0777 28.2201 24.238 28.1421 24.4027C28.0727 24.5587 28.0381 24.7104 28.0381 24.8577C28.0381 24.9704 28.0684 25.0787 28.1291 25.1827C28.1897 25.278 28.2894 25.3257 28.4281 25.3257C28.6361 25.3257 28.9264 25.174 29.2991 24.8707C29.6804 24.5587 30.0661 24.0344 30.4561 23.2977L30.7031 23.5447C30.4951 24.0127 30.2437 24.4287 29.9491 24.7927C29.6631 25.148 29.3597 25.4254 29.0391 25.6247C28.7184 25.8327 28.3934 25.9367 28.0641 25.9367C27.7087 25.9367 27.4444 25.824 27.2711 25.5987C27.0977 25.3734 27.0024 25.1307 26.9851 24.8707C26.9851 24.8534 26.9851 24.8404 26.9851 24.8317C26.9851 24.823 26.9851 24.8144 26.9851 24.8057C26.6384 25.2217 26.3177 25.551 26.0231 25.7937C25.7371 26.0364 25.4294 26.1577 25.1001 26.1577ZM32.5534 25.8847C32.2328 25.8847 31.9728 25.798 31.7734 25.6247C31.5741 25.46 31.4744 25.2347 31.4744 24.9487C31.4744 24.706 31.5351 24.446 31.6564 24.1687C31.7778 23.8914 31.8991 23.6184 32.0204 23.3497C32.1504 23.081 32.2154 22.8427 32.2154 22.6347C32.2154 22.4354 32.1504 22.2707 32.0204 22.1407C31.8904 22.002 31.7388 21.8894 31.5654 21.8027C31.3748 22.2794 31.1581 22.743 30.9154 23.1937C30.6814 23.6357 30.4908 23.9824 30.3434 24.2337L30.1484 23.8567C30.2698 23.6314 30.4301 23.3107 30.6294 22.8947C30.8288 22.4787 31.0194 22.015 31.2014 21.5037C31.1148 21.417 31.0714 21.3 31.0714 21.1527C31.0714 20.9274 31.1408 20.715 31.2794 20.5157C31.4181 20.3164 31.5524 20.2167 31.6824 20.2167C31.7864 20.2167 31.8601 20.2774 31.9034 20.3987C31.9554 20.5114 31.9814 20.5894 31.9814 20.6327C31.9814 20.676 31.9598 20.754 31.9164 20.8667C31.8818 20.9794 31.8558 21.0617 31.8384 21.1137C31.8471 21.209 31.9208 21.3044 32.0594 21.3997C32.2068 21.4864 32.3714 21.5904 32.5534 21.7117C32.7354 21.833 32.8958 21.9847 33.0344 22.1667C33.1731 22.3487 33.2424 22.5784 33.2424 22.8557C33.2424 23.107 33.1861 23.3627 33.0734 23.6227C32.9608 23.8827 32.8481 24.1254 32.7354 24.3507C32.6228 24.576 32.5664 24.771 32.5664 24.9357C32.5664 25.057 32.5968 25.1394 32.6574 25.1827C32.7268 25.2174 32.8048 25.2347 32.8914 25.2347C33.0994 25.2347 33.3161 25.174 33.5414 25.0527C33.7668 24.9227 33.9878 24.758 34.2044 24.5587C34.4211 24.3594 34.6118 24.1514 34.7764 23.9347C34.9411 23.7094 35.0668 23.5057 35.1534 23.3237L35.4654 23.5577C35.3008 23.9304 35.0624 24.2987 34.7504 24.6627C34.4384 25.018 34.0918 25.3127 33.7104 25.5467C33.3291 25.772 32.9434 25.8847 32.5534 25.8847ZM35.4951 29.1867C35.2784 29.1867 35.0748 29.1174 34.8841 28.9787C34.7021 28.8487 34.6111 28.6364 34.6111 28.3417C34.6111 28.0644 34.6934 27.813 34.8581 27.5877C35.0228 27.371 35.2351 27.1674 35.4951 26.9767C35.7551 26.7947 36.0324 26.6257 36.3271 26.4697C36.6304 26.3224 36.9208 26.1837 37.1981 26.0537C37.2934 25.8024 37.3974 25.486 37.5101 25.1047C37.6314 24.7147 37.7354 24.355 37.8221 24.0257C37.5534 24.3984 37.2674 24.7277 36.9641 25.0137C36.6608 25.2997 36.3228 25.4427 35.9501 25.4427C35.7941 25.4427 35.6294 25.4124 35.4561 25.3517C35.2828 25.2824 35.1354 25.1697 35.0141 25.0137C34.9014 24.849 34.8451 24.6324 34.8451 24.3637C34.8451 24.1384 34.8841 23.8654 34.9621 23.5447C35.0488 23.224 35.1528 22.912 35.2741 22.6087C35.4041 22.2967 35.5384 22.041 35.6771 21.8417C35.8158 21.6337 35.9371 21.5297 36.0411 21.5297C36.0931 21.5297 36.1668 21.5514 36.2621 21.5947C36.3661 21.6294 36.4658 21.6814 36.5611 21.7507C36.6564 21.8114 36.7171 21.8807 36.7431 21.9587C36.6651 22.0627 36.5784 22.2144 36.4831 22.4137C36.3878 22.6044 36.2968 22.821 36.2101 23.0637C36.1234 23.2977 36.0498 23.5274 35.9891 23.7527C35.9371 23.978 35.9111 24.173 35.9111 24.3377C35.9111 24.4677 35.9371 24.5804 35.9891 24.6757C36.0411 24.771 36.1408 24.8187 36.2881 24.8187C36.4788 24.8187 36.6738 24.7407 36.8731 24.5847C37.0811 24.4287 37.2804 24.2294 37.4711 23.9867C37.6704 23.744 37.8481 23.497 38.0041 23.2457C38.0214 23.185 38.0388 23.0897 38.0561 22.9597C38.0734 22.8297 38.1038 22.6954 38.1471 22.5567C38.1904 22.4094 38.2641 22.275 38.3681 22.1537C38.4808 22.0324 38.6368 21.9717 38.8361 21.9717C38.9054 21.9717 38.9704 21.976 39.0311 21.9847C39.0918 21.9934 39.1654 22.0064 39.2521 22.0237C39.2521 22.1537 39.2044 22.4094 39.1091 22.7907C39.0224 23.1634 38.9054 23.5967 38.7581 24.0907C38.6108 24.5847 38.4461 25.0787 38.2641 25.5727C38.6281 25.4254 39.0051 25.1827 39.3951 24.8447C39.7938 24.498 40.1144 24.0084 40.3571 23.3757L40.5781 23.5577C40.4481 23.991 40.2488 24.368 39.9801 24.6887C39.7201 25.0094 39.4254 25.2824 39.0961 25.5077C38.7668 25.733 38.4331 25.9194 38.0951 26.0667C37.8611 26.63 37.6054 27.15 37.3281 27.6267C37.0594 28.1034 36.7734 28.4804 36.4701 28.7577C36.1668 29.0437 35.8418 29.1867 35.4951 29.1867ZM35.3651 28.7057C35.5298 28.7057 35.7594 28.5324 36.0541 28.1857C36.3488 27.839 36.6478 27.319 36.9511 26.6257C36.6738 26.7644 36.3921 26.9247 36.1061 27.1067C35.8288 27.2974 35.5948 27.4967 35.4041 27.7047C35.2134 27.9127 35.1181 28.125 35.1181 28.3417C35.1181 28.4284 35.1354 28.5107 35.1701 28.5887C35.2134 28.6667 35.2784 28.7057 35.3651 28.7057Z" fill="#555555"/>
</svg>
