<svg width="16" height="19" viewBox="0 0 16 19" fill="none" xmlns="http://www.w3.org/2000/svg">
<path d="M8.24446 0.500015C3.31112 0.500015 0.6875 3.66141 0.6875 7.10856C0.6875 8.70726 1.58079 10.7008 3.01073 11.3331C3.22786 11.431 3.34599 11.3894 3.39437 11.188C3.43712 11.035 3.62501 10.2981 3.71614 9.95044C3.74426 9.83906 3.72964 9.7423 3.63963 9.63767C3.16486 9.08865 2.78797 8.08848 2.78797 7.15019C2.78797 4.74595 4.69943 2.41148 7.95195 2.41148C10.7646 2.41148 12.7323 4.23856 12.7323 6.85205C12.7323 9.80531 11.1696 11.8484 9.13888 11.8484C8.01495 11.8484 7.17792 10.9664 7.44343 9.87506C7.76407 8.57563 8.39297 7.17832 8.39297 6.24115C8.39297 5.40074 7.9182 4.70545 6.94841 4.70545C5.80423 4.70545 4.87606 5.83838 4.87606 7.35945C4.87606 8.32587 5.21808 8.97839 5.21808 8.97839C5.21808 8.97839 4.08628 13.5506 3.87589 14.4045C3.52038 15.8502 3.92427 18.1914 3.95915 18.3928C3.98052 18.5042 4.1054 18.5391 4.17516 18.4479C4.28654 18.3017 5.6546 16.3497 6.03824 14.9389C6.17775 14.4248 6.7504 12.34 6.7504 12.34C7.12729 13.0207 8.21521 13.5911 9.37401 13.5911C12.8212 13.5911 15.312 10.5613 15.312 6.80142C15.2997 3.19676 12.2148 0.500015 8.24446 0.500015Z" fill="#4D4D4D"/>
</svg>
