<?xml version="1.0" standalone="no"?>
<!DOCTYPE svg PUBLIC "-//W3C//DTD SVG 20010904//EN"
 "http://www.w3.org/TR/2001/REC-SVG-20010904/DTD/svg10.dtd">
<svg version="1.0" xmlns="http://www.w3.org/2000/svg"
 width="92.000000pt" height="56.000000pt" viewBox="0 0 92.000000 56.000000"
 preserveAspectRatio="xMidYMid meet">

<g transform="translate(0.000000,56.000000) scale(0.100000,-0.100000)"
fill="#000000" stroke="none">
<path d="M674 499 c-4 -6 31 -48 80 -98 47 -47 86 -90 86 -94 0 -4 -183 -7
-407 -7 -251 0 -414 -4 -423 -10 -38 -25 26 -30 423 -30 224 0 407 -3 407 -7
0 -4 -39 -47 -87 -95 -69 -70 -85 -90 -75 -100 10 -10 37 12 130 105 l117 117
-115 115 c-63 63 -118 115 -122 115 -4 0 -10 -5 -14 -11z"/>
</g>
</svg>
