<?xml version="1.0" standalone="no"?>
<!DOCTYPE svg PUBLIC "-//W3C//DTD SVG 20010904//EN"
 "http://www.w3.org/TR/2001/REC-SVG-20010904/DTD/svg10.dtd">
<svg version="1.0" xmlns="http://www.w3.org/2000/svg"
 width="88.000000pt" height="83.000000pt" viewBox="0 0 88.000000 83.000000"
 preserveAspectRatio="xMidYMid meet">

<g transform="translate(0.000000,83.000000) scale(0.100000,-0.100000)"
fill="#000000" stroke="none">
<path d="M132 779 c-74 -37 -130 -130 -131 -218 -1 -63 33 -148 86 -215 41
-51 336 -316 353 -316 17 0 319 272 357 321 49 63 83 148 83 204 0 50 -29 127
-63 170 -37 47 -101 75 -171 75 -73 0 -115 -20 -167 -78 l-40 -46 -39 46 c-22
25 -55 53 -74 62 -49 23 -141 21 -194 -5z m148 -29 c43 -12 101 -70 127 -125
10 -22 25 -40 33 -40 8 0 24 20 36 45 28 59 91 115 137 124 114 21 217 -77
217 -206 0 -93 -91 -209 -302 -387 l-88 -73 -87 73 c-216 183 -303 293 -303
385 0 90 52 174 125 199 49 17 60 18 105 5z"/>
</g>
</svg>
