<svg width="154" height="59" viewBox="0 0 154 59" fill="none" xmlns="http://www.w3.org/2000/svg">
<rect width="154" height="58.4898" rx="4" fill="#333333"/>
<g clip-path="url(#clip0_516_6130)">
<path d="M35.4247 37.0656C35.0163 38.0167 34.512 38.9236 33.9197 39.7723C33.1275 40.9011 32.4794 41.6821 31.9801 42.1161C31.206 42.8278 30.3759 43.193 29.4875 43.2134C28.8499 43.2134 28.0811 43.032 27.1857 42.6639C26.2873 42.2976 25.4619 42.1156 24.7071 42.1156C23.9155 42.1156 23.0667 42.2976 22.1585 42.6639C21.2491 43.032 20.5164 43.2239 19.9564 43.2426C19.1047 43.2793 18.2554 42.9042 17.4072 42.1161C16.8665 41.6436 16.1904 40.8351 15.3796 39.6895C14.5098 38.4656 13.7947 37.047 13.2347 35.4288C12.635 33.6817 12.334 31.9895 12.334 30.3515C12.334 28.4749 12.7394 26.8567 13.5514 25.5005C14.1902 24.4108 15.0389 23.5521 16.1017 22.921C17.1444 22.297 18.3342 21.9612 19.5492 21.948C20.2259 21.948 21.1132 22.1574 22.2162 22.5686C23.3158 22.9811 24.0217 23.1905 24.3314 23.1905C24.5624 23.1905 25.347 22.9455 26.6764 22.4578C27.9341 22.0051 28.9952 21.8179 29.8643 21.892C32.2204 22.0821 33.9902 23.0108 35.1668 24.6838C33.0604 25.9601 32.018 27.7481 32.039 30.0417C32.0577 31.8285 32.7057 33.3154 33.9797 34.4955C34.5572 35.0438 35.2018 35.4673 35.9187 35.7677C35.7684 36.2057 35.6036 36.6386 35.4247 37.0656V37.0656ZM30.0218 15.8055C30.0218 17.2055 29.5102 18.5133 28.4906 19.7231C27.2597 21.1622 25.7717 21.9935 24.1576 21.8622C24.1359 21.6861 24.125 21.5088 24.1249 21.3314C24.1249 19.9874 24.71 18.5489 25.7495 17.3723C26.2687 16.7767 26.9278 16.2815 27.7282 15.8866C28.5273 15.4975 29.2822 15.2822 29.9927 15.2449C30.0131 15.4321 30.0218 15.6194 30.0218 15.8049V15.8055Z" fill="white"/>
</g>
<path d="M47.234 13.333C48.07 13.333 48.7923 13.4907 49.401 13.806C50.017 14.114 50.4863 14.5577 50.809 15.137C51.139 15.7163 51.304 16.3983 51.304 17.183C51.304 17.9677 51.139 18.6497 50.809 19.229C50.4863 19.801 50.017 20.241 49.401 20.549C48.7923 20.8497 48.07 21 47.234 21H44.847V13.333H47.234ZM47.234 20.175C48.224 20.175 48.9793 19.9147 49.5 19.394C50.0207 18.866 50.281 18.129 50.281 17.183C50.281 16.2297 50.017 15.4853 49.489 14.95C48.9683 14.4147 48.2167 14.147 47.234 14.147H45.848V20.175H47.234ZM55.2533 21.099C54.6887 21.099 54.1753 20.9707 53.7133 20.714C53.2587 20.4573 52.8993 20.0943 52.6353 19.625C52.3787 19.1483 52.2503 18.5983 52.2503 17.975C52.2503 17.359 52.3823 16.8163 52.6463 16.347C52.9177 15.8703 53.2843 15.5073 53.7463 15.258C54.2083 15.0013 54.7253 14.873 55.2973 14.873C55.8693 14.873 56.3863 15.0013 56.8483 15.258C57.3103 15.5073 57.6733 15.8667 57.9373 16.336C58.2087 16.8053 58.3443 17.3517 58.3443 17.975C58.3443 18.5983 58.205 19.1483 57.9263 19.625C57.655 20.0943 57.2847 20.4573 56.8153 20.714C56.346 20.9707 55.8253 21.099 55.2533 21.099ZM55.2533 20.219C55.6127 20.219 55.95 20.1347 56.2653 19.966C56.5807 19.7973 56.8337 19.5443 57.0243 19.207C57.2223 18.8697 57.3213 18.459 57.3213 17.975C57.3213 17.491 57.226 17.0803 57.0353 16.743C56.8447 16.4057 56.5953 16.1563 56.2873 15.995C55.9793 15.8263 55.6457 15.742 55.2863 15.742C54.9197 15.742 54.5823 15.8263 54.2743 15.995C53.9737 16.1563 53.7317 16.4057 53.5483 16.743C53.365 17.0803 53.2733 17.491 53.2733 17.975C53.2733 18.4663 53.3613 18.8807 53.5373 19.218C53.7207 19.5553 53.9627 19.8083 54.2633 19.977C54.564 20.1383 54.894 20.219 55.2533 20.219ZM67.6905 14.972L65.8095 21H64.7755L63.3235 16.215L61.8715 21H60.8375L58.9455 14.972H59.9685L61.3545 20.032L62.8505 14.972H63.8735L65.3365 20.043L66.7005 14.972H67.6905ZM71.6209 14.862C72.3542 14.862 72.9482 15.0857 73.4029 15.533C73.8576 15.973 74.0849 16.611 74.0849 17.447V21H73.0949V17.59C73.0949 16.9887 72.9446 16.5303 72.6439 16.215C72.3432 15.8923 71.9326 15.731 71.4119 15.731C70.8839 15.731 70.4622 15.896 70.1469 16.226C69.8389 16.556 69.6849 17.0363 69.6849 17.667V21H68.6839V14.972H69.6849V15.83C69.8829 15.522 70.1506 15.2837 70.4879 15.115C70.8326 14.9463 71.2102 14.862 71.6209 14.862ZM76.721 12.86V21H75.72V12.86H76.721ZM81.0561 21.099C80.4914 21.099 79.9781 20.9707 79.5161 20.714C79.0614 20.4573 78.7021 20.0943 78.4381 19.625C78.1814 19.1483 78.0531 18.5983 78.0531 17.975C78.0531 17.359 78.1851 16.8163 78.4491 16.347C78.7204 15.8703 79.0871 15.5073 79.5491 15.258C80.0111 15.0013 80.5281 14.873 81.1001 14.873C81.6721 14.873 82.1891 15.0013 82.6511 15.258C83.1131 15.5073 83.4761 15.8667 83.7401 16.336C84.0114 16.8053 84.1471 17.3517 84.1471 17.975C84.1471 18.5983 84.0077 19.1483 83.7291 19.625C83.4577 20.0943 83.0874 20.4573 82.6181 20.714C82.1487 20.9707 81.6281 21.099 81.0561 21.099ZM81.0561 20.219C81.4154 20.219 81.7527 20.1347 82.0681 19.966C82.3834 19.7973 82.6364 19.5443 82.8271 19.207C83.0251 18.8697 83.1241 18.459 83.1241 17.975C83.1241 17.491 83.0287 17.0803 82.8381 16.743C82.6474 16.4057 82.3981 16.1563 82.0901 15.995C81.7821 15.8263 81.4484 15.742 81.0891 15.742C80.7224 15.742 80.3851 15.8263 80.0771 15.995C79.7764 16.1563 79.5344 16.4057 79.3511 16.743C79.1677 17.0803 79.0761 17.491 79.0761 17.975C79.0761 18.4663 79.1641 18.8807 79.3401 19.218C79.5234 19.5553 79.7654 19.8083 80.0661 19.977C80.3667 20.1383 80.6967 20.219 81.0561 20.219ZM85.0892 17.964C85.0892 17.348 85.2139 16.809 85.4632 16.347C85.7125 15.8777 86.0535 15.5147 86.4862 15.258C86.9262 15.0013 87.4139 14.873 87.9492 14.873C88.4772 14.873 88.9355 14.9867 89.3242 15.214C89.7129 15.4413 90.0025 15.7273 90.1932 16.072V14.972H91.2052V21H90.1932V19.878C89.9952 20.23 89.6982 20.5233 89.3022 20.758C88.9135 20.9853 88.4589 21.099 87.9382 21.099C87.4029 21.099 86.9189 20.967 86.4862 20.703C86.0535 20.439 85.7125 20.0687 85.4632 19.592C85.2139 19.1153 85.0892 18.5727 85.0892 17.964ZM90.1932 17.975C90.1932 17.5203 90.1015 17.1243 89.9182 16.787C89.7349 16.4497 89.4855 16.193 89.1702 16.017C88.8622 15.8337 88.5212 15.742 88.1472 15.742C87.7732 15.742 87.4322 15.83 87.1242 16.006C86.8162 16.182 86.5705 16.4387 86.3872 16.776C86.2039 17.1133 86.1122 17.5093 86.1122 17.964C86.1122 18.426 86.2039 18.8293 86.3872 19.174C86.5705 19.5113 86.8162 19.7717 87.1242 19.955C87.4322 20.131 87.7732 20.219 88.1472 20.219C88.5212 20.219 88.8622 20.131 89.1702 19.955C89.4855 19.7717 89.7349 19.5113 89.9182 19.174C90.1015 18.8293 90.1932 18.4297 90.1932 17.975ZM92.5228 17.964C92.5228 17.348 92.6475 16.809 92.8968 16.347C93.1461 15.8777 93.4871 15.5147 93.9198 15.258C94.3598 15.0013 94.8511 14.873 95.3938 14.873C95.8631 14.873 96.2995 14.983 96.7028 15.203C97.1061 15.4157 97.4141 15.698 97.6268 16.05V12.86H98.6388V21H97.6268V19.867C97.4288 20.2263 97.1355 20.5233 96.7468 20.758C96.3581 20.9853 95.9035 21.099 95.3828 21.099C94.8475 21.099 94.3598 20.967 93.9198 20.703C93.4871 20.439 93.1461 20.0687 92.8968 19.592C92.6475 19.1153 92.5228 18.5727 92.5228 17.964ZM97.6268 17.975C97.6268 17.5203 97.5351 17.1243 97.3518 16.787C97.1685 16.4497 96.9191 16.193 96.6038 16.017C96.2958 15.8337 95.9548 15.742 95.5808 15.742C95.2068 15.742 94.8658 15.83 94.5578 16.006C94.2498 16.182 94.0041 16.4387 93.8208 16.776C93.6375 17.1133 93.5458 17.5093 93.5458 17.964C93.5458 18.426 93.6375 18.8293 93.8208 19.174C94.0041 19.5113 94.2498 19.7717 94.5578 19.955C94.8658 20.131 95.2068 20.219 95.5808 20.219C95.9548 20.219 96.2958 20.131 96.6038 19.955C96.9191 19.7717 97.1685 19.5113 97.3518 19.174C97.5351 18.8293 97.6268 18.4297 97.6268 17.975ZM105.892 21.099C105.327 21.099 104.814 20.9707 104.352 20.714C103.897 20.4573 103.538 20.0943 103.274 19.625C103.017 19.1483 102.889 18.5983 102.889 17.975C102.889 17.359 103.021 16.8163 103.285 16.347C103.556 15.8703 103.923 15.5073 104.385 15.258C104.847 15.0013 105.364 14.873 105.936 14.873C106.508 14.873 107.025 15.0013 107.487 15.258C107.949 15.5073 108.312 15.8667 108.576 16.336C108.847 16.8053 108.983 17.3517 108.983 17.975C108.983 18.5983 108.844 19.1483 108.565 19.625C108.294 20.0943 107.923 20.4573 107.454 20.714C106.985 20.9707 106.464 21.099 105.892 21.099ZM105.892 20.219C106.251 20.219 106.589 20.1347 106.904 19.966C107.219 19.7973 107.472 19.5443 107.663 19.207C107.861 18.8697 107.96 18.459 107.96 17.975C107.96 17.491 107.865 17.0803 107.674 16.743C107.483 16.4057 107.234 16.1563 106.926 15.995C106.618 15.8263 106.284 15.742 105.925 15.742C105.558 15.742 105.221 15.8263 104.913 15.995C104.612 16.1563 104.37 16.4057 104.187 16.743C104.004 17.0803 103.912 17.491 103.912 17.975C103.912 18.4663 104 18.8807 104.176 19.218C104.359 19.5553 104.601 19.8083 104.902 19.977C105.203 20.1383 105.533 20.219 105.892 20.219ZM113.236 14.862C113.969 14.862 114.563 15.0857 115.018 15.533C115.473 15.973 115.7 16.611 115.7 17.447V21H114.71V17.59C114.71 16.9887 114.56 16.5303 114.259 16.215C113.958 15.8923 113.548 15.731 113.027 15.731C112.499 15.731 112.077 15.896 111.762 16.226C111.454 16.556 111.3 17.0363 111.3 17.667V21H110.299V14.972H111.3V15.83C111.498 15.522 111.766 15.2837 112.103 15.115C112.448 14.9463 112.825 14.862 113.236 14.862ZM121.489 15.797V19.35C121.489 19.6433 121.551 19.8523 121.676 19.977C121.801 20.0943 122.017 20.153 122.325 20.153H123.062V21H122.16C121.603 21 121.185 20.8717 120.906 20.615C120.627 20.3583 120.488 19.9367 120.488 19.35V15.797H119.707V14.972H120.488V13.454H121.489V14.972H123.062V15.797H121.489ZM127.267 14.862C127.721 14.862 128.132 14.961 128.499 15.159C128.865 15.3497 129.151 15.6393 129.357 16.028C129.569 16.4167 129.676 16.8897 129.676 17.447V21H128.686V17.59C128.686 16.9887 128.535 16.5303 128.235 16.215C127.934 15.8923 127.523 15.731 127.003 15.731C126.475 15.731 126.053 15.896 125.738 16.226C125.43 16.556 125.276 17.0363 125.276 17.667V21H124.275V12.86H125.276V15.83C125.474 15.522 125.745 15.2837 126.09 15.115C126.442 14.9463 126.834 14.862 127.267 14.862ZM136.811 17.755C136.811 17.9457 136.8 18.1473 136.778 18.36H131.96C131.997 18.954 132.198 19.4197 132.565 19.757C132.939 20.087 133.39 20.252 133.918 20.252C134.351 20.252 134.71 20.153 134.996 19.955C135.289 19.7497 135.495 19.4783 135.612 19.141H136.69C136.529 19.7203 136.206 20.1933 135.722 20.56C135.238 20.9193 134.637 21.099 133.918 21.099C133.346 21.099 132.833 20.9707 132.378 20.714C131.931 20.4573 131.579 20.0943 131.322 19.625C131.065 19.1483 130.937 18.5983 130.937 17.975C130.937 17.3517 131.062 16.8053 131.311 16.336C131.56 15.8667 131.909 15.5073 132.356 15.258C132.811 15.0013 133.331 14.873 133.918 14.873C134.49 14.873 134.996 14.9977 135.436 15.247C135.876 15.4963 136.213 15.841 136.448 16.281C136.69 16.7137 136.811 17.205 136.811 17.755ZM135.777 17.546C135.777 17.1647 135.693 16.8383 135.524 16.567C135.355 16.2883 135.124 16.0793 134.831 15.94C134.545 15.7933 134.226 15.72 133.874 15.72C133.368 15.72 132.935 15.8813 132.576 16.204C132.224 16.5267 132.022 16.974 131.971 17.546H135.777Z" fill="#B3B3B3"/>
<path d="M51.904 39.728H47.248L46.448 42H44.544L48.528 30.864H50.64L54.624 42H52.704L51.904 39.728ZM51.392 38.24L49.584 33.072L47.76 38.24H51.392ZM58.1803 34.48C58.4896 34.0747 58.9109 33.7333 59.4443 33.456C59.9776 33.1787 60.5803 33.04 61.2523 33.04C62.0203 33.04 62.7189 33.232 63.3483 33.616C63.9883 33.9893 64.4896 34.5173 64.8523 35.2C65.2149 35.8827 65.3963 36.6667 65.3963 37.552C65.3963 38.4373 65.2149 39.232 64.8523 39.936C64.4896 40.6293 63.9883 41.1733 63.3483 41.568C62.7189 41.952 62.0203 42.144 61.2523 42.144C60.5803 42.144 59.9829 42.0107 59.4603 41.744C58.9376 41.4667 58.5109 41.1253 58.1803 40.72V46.192H56.3563V33.184H58.1803V34.48ZM63.5403 37.552C63.5403 36.944 63.4123 36.4213 63.1562 35.984C62.9109 35.536 62.5803 35.2 62.1643 34.976C61.7589 34.7413 61.3216 34.624 60.8523 34.624C60.3936 34.624 59.9563 34.7413 59.5403 34.976C59.1349 35.2107 58.8043 35.552 58.5483 36C58.3029 36.448 58.1803 36.976 58.1803 37.584C58.1803 38.192 58.3029 38.7253 58.5483 39.184C58.8043 39.632 59.1349 39.9733 59.5403 40.208C59.9563 40.4427 60.3936 40.56 60.8523 40.56C61.3216 40.56 61.7589 40.4427 62.1643 40.208C62.5803 39.9627 62.9109 39.6107 63.1562 39.152C63.4123 38.6933 63.5403 38.16 63.5403 37.552ZM69.024 34.48C69.3333 34.0747 69.7547 33.7333 70.288 33.456C70.8213 33.1787 71.424 33.04 72.096 33.04C72.864 33.04 73.5627 33.232 74.192 33.616C74.832 33.9893 75.3333 34.5173 75.696 35.2C76.0587 35.8827 76.24 36.6667 76.24 37.552C76.24 38.4373 76.0587 39.232 75.696 39.936C75.3333 40.6293 74.832 41.1733 74.192 41.568C73.5627 41.952 72.864 42.144 72.096 42.144C71.424 42.144 70.8267 42.0107 70.304 41.744C69.7813 41.4667 69.3547 41.1253 69.024 40.72V46.192H67.2V33.184H69.024V34.48ZM74.384 37.552C74.384 36.944 74.256 36.4213 74 35.984C73.7547 35.536 73.424 35.2 73.008 34.976C72.6027 34.7413 72.1653 34.624 71.696 34.624C71.2373 34.624 70.8 34.7413 70.384 34.976C69.9787 35.2107 69.648 35.552 69.392 36C69.1467 36.448 69.024 36.976 69.024 37.584C69.024 38.192 69.1467 38.7253 69.392 39.184C69.648 39.632 69.9787 39.9733 70.384 40.208C70.8 40.4427 71.2373 40.56 71.696 40.56C72.1653 40.56 72.6027 40.4427 73.008 40.208C73.424 39.9627 73.7547 39.6107 74 39.152C74.256 38.6933 74.384 38.16 74.384 37.552ZM85.864 42.112C85.1173 42.112 84.4453 41.984 83.848 41.728C83.2507 41.4613 82.7813 41.088 82.44 40.608C82.0987 40.128 81.928 39.568 81.928 38.928H83.88C83.9227 39.408 84.1093 39.8027 84.44 40.112C84.7813 40.4213 85.256 40.576 85.864 40.576C86.4933 40.576 86.984 40.4267 87.336 40.128C87.688 39.8187 87.864 39.424 87.864 38.944C87.864 38.5707 87.752 38.2667 87.528 38.032C87.3147 37.7973 87.0427 37.616 86.712 37.488C86.392 37.36 85.944 37.2213 85.368 37.072C84.6427 36.88 84.0507 36.688 83.592 36.496C83.144 36.2933 82.76 35.984 82.44 35.568C82.12 35.152 81.96 34.5973 81.96 33.904C81.96 33.264 82.12 32.704 82.44 32.224C82.76 31.744 83.208 31.376 83.784 31.12C84.36 30.864 85.0267 30.736 85.784 30.736C86.8613 30.736 87.7413 31.008 88.424 31.552C89.1173 32.0853 89.5013 32.8213 89.576 33.76H87.56C87.528 33.3547 87.336 33.008 86.984 32.72C86.632 32.432 86.168 32.288 85.592 32.288C85.0693 32.288 84.6427 32.4213 84.312 32.688C83.9813 32.9547 83.816 33.3387 83.816 33.84C83.816 34.1813 83.9173 34.464 84.12 34.688C84.3333 34.9013 84.6 35.072 84.92 35.2C85.24 35.328 85.6773 35.4667 86.232 35.616C86.968 35.8187 87.5653 36.0213 88.024 36.224C88.4933 36.4267 88.888 36.7413 89.208 37.168C89.5387 37.584 89.704 38.144 89.704 38.848C89.704 39.4133 89.5493 39.9467 89.24 40.448C88.9413 40.9493 88.4987 41.3547 87.912 41.664C87.336 41.9627 86.6533 42.112 85.864 42.112ZM93.9843 34.672V39.552C93.9843 39.8827 94.0589 40.1227 94.2083 40.272C94.3683 40.4107 94.6349 40.48 95.0083 40.48H96.1283V42H94.6883C93.8669 42 93.2376 41.808 92.8003 41.424C92.3629 41.04 92.1443 40.416 92.1443 39.552V34.672H91.1043V33.184H92.1443V30.992H93.9843V33.184H96.1283V34.672H93.9843ZM101.633 42.144C100.801 42.144 100.049 41.9573 99.3774 41.584C98.7054 41.2 98.1774 40.6667 97.7934 39.984C97.4094 39.2907 97.2174 38.4907 97.2174 37.584C97.2174 36.688 97.4147 35.8933 97.8094 35.2C98.204 34.5067 98.7427 33.9733 99.4254 33.6C100.108 33.2267 100.871 33.04 101.713 33.04C102.556 33.04 103.319 33.2267 104.001 33.6C104.684 33.9733 105.223 34.5067 105.617 35.2C106.012 35.8933 106.209 36.688 106.209 37.584C106.209 38.48 106.007 39.2747 105.601 39.968C105.196 40.6613 104.641 41.2 103.937 41.584C103.244 41.9573 102.476 42.144 101.633 42.144ZM101.633 40.56C102.103 40.56 102.54 40.448 102.945 40.224C103.361 40 103.697 39.664 103.953 39.216C104.209 38.768 104.337 38.224 104.337 37.584C104.337 36.944 104.215 36.4053 103.969 35.968C103.724 35.52 103.399 35.184 102.993 34.96C102.588 34.736 102.151 34.624 101.681 34.624C101.212 34.624 100.775 34.736 100.369 34.96C99.9747 35.184 99.66 35.52 99.4254 35.968C99.1907 36.4053 99.0734 36.944 99.0734 37.584C99.0734 38.5333 99.3134 39.2693 99.7934 39.792C100.284 40.304 100.897 40.56 101.633 40.56ZM109.837 34.464C110.103 34.016 110.455 33.6693 110.893 33.424C111.341 33.168 111.869 33.04 112.477 33.04V34.928H112.013C111.298 34.928 110.754 35.1093 110.381 35.472C110.018 35.8347 109.837 36.464 109.837 37.36V42H108.013V33.184H109.837V34.464ZM122.233 37.376C122.233 37.7067 122.212 38.0053 122.169 38.272H115.433C115.486 38.976 115.748 39.5413 116.217 39.968C116.686 40.3947 117.262 40.608 117.945 40.608C118.926 40.608 119.62 40.1973 120.025 39.376H121.993C121.726 40.1867 121.241 40.8533 120.537 41.376C119.844 41.888 118.98 42.144 117.945 42.144C117.102 42.144 116.345 41.9573 115.673 41.584C115.012 41.2 114.489 40.6667 114.105 39.984C113.732 39.2907 113.545 38.4907 113.545 37.584C113.545 36.6773 113.726 35.8827 114.089 35.2C114.462 34.5067 114.98 33.9733 115.641 33.6C116.313 33.2267 117.081 33.04 117.945 33.04C118.777 33.04 119.518 33.2213 120.169 33.584C120.82 33.9467 121.326 34.4587 121.689 35.12C122.052 35.7707 122.233 36.5227 122.233 37.376ZM120.329 36.8C120.318 36.128 120.078 35.5893 119.609 35.184C119.14 34.7787 118.558 34.576 117.865 34.576C117.236 34.576 116.697 34.7787 116.249 35.184C115.801 35.5787 115.534 36.1173 115.449 36.8H120.329Z" fill="white"/>
<defs>
<clipPath id="clip0_516_6130">
<rect width="28" height="28" fill="white" transform="translate(10 15.2449)"/>
</clipPath>
</defs>
</svg>
