<svg width="24" height="24" viewBox="0 0 24 24" fill="none" xmlns="http://www.w3.org/2000/svg">
<g clip-path="url(#clip0_466_597)">
<path d="M12.1722 9.21848C12.2275 9.42227 12.4117 9.55631 12.6135 9.55631C12.6529 9.55631 12.6932 9.55136 12.7333 9.54038L14.7071 9.00607C14.951 8.94034 15.095 8.68912 15.0292 8.4454C14.9633 8.20132 14.7126 8.05483 14.468 8.1235L12.4941 8.65762C12.2504 8.72354 12.1063 8.97458 12.1722 9.21848Z" fill="#CCCCCC"/>
<path d="M4.99541 11.688L6.36741 12.1454C6.41539 12.1613 6.46446 12.1692 6.51188 12.1692C6.70359 12.1692 6.88194 12.048 6.94602 11.8563C7.02604 11.6168 6.89659 11.3573 6.6569 11.2778L5.2849 10.8205C5.04466 10.7399 4.7863 10.8699 4.70628 11.1094C4.62627 11.3496 4.75572 11.6085 4.99541 11.688Z" fill="#CCCCCC"/>
<path d="M9.97185 10.8812C9.98137 10.8818 9.99053 10.8821 9.99968 10.8821C10.2399 10.8821 10.4415 10.6952 10.4556 10.4522L10.4941 9.80657C10.5093 9.55407 10.3172 9.33763 10.065 9.32262C9.80852 9.30944 9.5963 9.50005 9.58129 9.75164L9.54284 10.3975C9.52764 10.6503 9.71971 10.8666 9.97185 10.8812Z" fill="#CCCCCC"/>
<path d="M18.0797 12.847C18.169 12.9362 18.286 12.9811 18.403 12.9811C18.5202 12.9811 18.6372 12.9362 18.7264 12.847C18.9053 12.6682 18.9053 12.379 18.7264 12.2003L18.2692 11.7429C18.0903 11.5642 17.8012 11.5642 17.6225 11.7429C17.4436 11.9218 17.4436 12.2109 17.6225 12.3896L18.0797 12.847Z" fill="#CCCCCC"/>
<path d="M13.9243 11.7426C13.7454 11.5637 13.4565 11.5637 13.2776 11.7426C13.0989 11.9213 13.0989 12.2104 13.2776 12.3891L13.735 12.8465C13.8242 12.9357 13.9413 12.9805 14.0583 12.9805C14.1755 12.9805 14.2925 12.9357 14.3817 12.8465C14.5606 12.6676 14.5606 12.3787 14.3817 12.1998L13.9243 11.7426Z" fill="#CCCCCC"/>
<path d="M12.386 4.71443C12.4382 4.92244 12.6243 5.06105 12.8291 5.06105C12.8663 5.06105 12.9033 5.05647 12.9408 5.04731C13.186 4.98616 13.3347 4.73768 13.2737 4.49305L12.8163 2.66365C12.755 2.41811 12.5058 2.27034 12.2615 2.33076C12.0165 2.39211 11.8678 2.6404 11.9286 2.88502L12.386 4.71443Z" fill="#CCCCCC"/>
<path d="M10.3043 7.46301C10.3935 7.55219 10.5105 7.59705 10.6277 7.59705C10.7447 7.59705 10.8619 7.55219 10.951 7.46301C11.1299 7.28412 11.1299 6.99518 10.951 6.81628L10.4937 6.35889C10.3148 6.18018 10.0258 6.18018 9.84692 6.35889C9.66821 6.53778 9.66821 6.8269 9.84692 7.00562L10.3043 7.46301Z" fill="#CCCCCC"/>
<path d="M23.7557 14.5091C23.389 14.1464 22.9627 13.8792 22.509 13.7014C22.5148 13.6111 22.5194 13.5234 22.5194 13.4383C22.5194 11.367 21.1553 9.59711 19.2065 9.04559C19.2805 8.76379 19.318 8.47375 19.318 8.17877C19.318 6.3338 17.8541 4.82446 16.0265 4.7514C16.064 4.53735 16.0827 4.32202 16.0827 4.10522C16.0827 1.84167 14.4747 0 12.499 0H11.978C10.0018 0 8.39374 1.84131 8.39374 4.10522C8.39374 4.32147 8.4126 4.53699 8.44958 4.75104C6.61414 4.81494 5.14069 6.32794 5.14069 8.17877C5.14069 8.43896 5.16943 8.69513 5.22656 8.94489C3.08533 9.336 1.48187 11.2088 1.48187 13.4383C1.48187 13.5244 1.48627 13.6126 1.49231 13.7032C1.03857 13.881 0.612854 14.1467 0.246094 14.5082L0 14.7501L4.38776 22.8181C4.66461 23.5009 5.34009 23.9573 6.07874 23.9573H17.9218C18.6605 23.9573 19.3359 23.5009 19.6126 22.8181L24 14.7508L23.7557 14.5091ZM2.39612 13.4694C2.39612 13.4594 2.39612 13.4489 2.39612 13.4388C2.39612 11.4983 3.91534 9.89575 5.85498 9.79047C6.00366 9.78186 6.13898 9.70276 6.21771 9.57605C6.29681 9.44989 6.30927 9.29333 6.25159 9.15582C6.12122 8.84564 6.05493 8.51733 6.05493 8.17896C6.05493 6.7923 7.18323 5.66345 8.57025 5.66345C8.62207 5.66345 8.74365 5.66931 8.98004 5.70996C9.14008 5.73615 9.30396 5.67719 9.40778 5.55176C9.51251 5.42706 9.54218 5.25586 9.48651 5.10315C9.36804 4.77667 9.30817 4.44141 9.30817 4.10522C9.30817 2.34576 10.5059 0.914795 11.9777 0.914795H12.4986C13.9702 0.914795 15.1677 2.34576 15.1677 4.10522C15.1677 4.44177 15.1077 4.77795 14.9888 5.10406C14.933 5.25824 14.9636 5.43018 15.0692 5.55505C15.1745 5.67993 15.3387 5.73981 15.5006 5.71051C15.7128 5.67169 15.8286 5.66345 15.8881 5.66345C17.2751 5.66345 18.4034 6.79211 18.4034 8.17896C18.4034 8.53015 18.3307 8.87183 18.1877 9.19464C18.1304 9.32446 18.1364 9.47314 18.204 9.59802C18.2712 9.72235 18.3935 9.80878 18.5334 9.83167C20.3134 10.119 21.605 11.636 21.605 13.4388V13.4685C21.5641 13.4636 21.5235 13.4636 21.4823 13.4599C21.4197 13.4544 21.3571 13.4489 21.2939 13.4462C21.2441 13.4443 21.1943 13.4443 21.1445 13.4449C21.0749 13.4449 21.0053 13.4462 20.9359 13.4504C20.8914 13.4531 20.8477 13.4562 20.8037 13.4604C20.7277 13.4672 20.6519 13.4767 20.5763 13.4886C20.5389 13.4947 20.5014 13.5005 20.4642 13.5075C20.382 13.5225 20.3002 13.5414 20.2187 13.5624C20.1881 13.5701 20.1575 13.5775 20.1273 13.5862C20.0394 13.611 19.9534 13.6403 19.8675 13.6712C19.8433 13.68 19.819 13.6877 19.7948 13.6974C19.7042 13.7325 19.6155 13.7723 19.5271 13.8149C19.5084 13.8241 19.4886 13.8318 19.47 13.8415C19.3762 13.8885 19.2847 13.9407 19.1946 13.9966C19.1827 14.0037 19.1704 14.0098 19.1585 14.0176C19.0571 14.0821 18.9582 14.1508 18.8622 14.2256C18.7749 14.1572 18.6797 14.1053 18.5878 14.0455C17.2811 13.1966 15.5533 13.2482 14.3112 14.2251C12.9816 13.1797 11.0883 13.1807 9.75916 14.226C8.41772 13.1796 6.505 13.1796 5.16412 14.2275C5.00629 14.1039 4.83893 13.9979 4.66699 13.9037C4.65509 13.8973 4.64374 13.8895 4.63129 13.8831C4.46393 13.7935 4.29053 13.7197 4.11365 13.6577C4.09259 13.6503 4.0719 13.6421 4.05103 13.6351C3.87891 13.578 3.70331 13.5346 3.52588 13.5029C3.4953 13.4974 3.46454 13.4925 3.43396 13.4874C3.26074 13.4614 3.08643 13.4464 2.91119 13.4445C2.89526 13.4445 2.8797 13.4403 2.86377 13.4403C2.83575 13.4403 2.80792 13.4449 2.77954 13.4453C2.68304 13.4476 2.58655 13.4535 2.4906 13.4632C2.45837 13.4667 2.42706 13.4654 2.39612 13.4694ZM18.7958 22.4055L18.7705 22.4595C18.6365 22.8085 18.2953 23.0427 17.9218 23.0427H6.07874C5.70502 23.0427 5.36389 22.808 5.22986 22.4595L1.14294 14.937C1.54688 14.6255 2.01929 14.4413 2.50452 14.3796C2.53931 14.3751 2.57355 14.3751 2.60834 14.3723C2.72369 14.3617 2.83923 14.358 2.95496 14.3617C3.00256 14.3632 3.05017 14.3663 3.09723 14.3699C3.20984 14.3791 3.32135 14.3956 3.43213 14.4181C3.46948 14.4258 3.50757 14.43 3.54456 14.4391C3.68408 14.4734 3.82141 14.5192 3.95526 14.575C3.99609 14.5919 4.03436 14.6129 4.07428 14.6321C4.17352 14.6792 4.27094 14.7318 4.36523 14.7907C4.40588 14.8163 4.44653 14.8416 4.4859 14.8694C4.60803 14.9555 4.72687 15.0483 4.83673 15.1558C4.83856 15.1577 4.84076 15.1589 4.84259 15.1608C4.84259 15.1608 4.84314 15.1608 4.84351 15.1613L5.16357 15.4764L5.48456 15.1608C5.55011 15.0967 5.62463 15.0487 5.69403 14.9921C6.79175 14.1033 8.41443 14.1506 9.43927 15.1608L9.76172 15.4781L10.0827 15.1589C10.6051 14.6389 11.2864 14.3763 11.9725 14.3608C11.9936 14.3604 12.0146 14.3549 12.0357 14.3549C12.0595 14.3549 12.0831 14.3613 12.1075 14.3619C12.6138 14.3751 13.1173 14.5197 13.5555 14.8074C13.7086 14.9079 13.8536 15.0251 13.9882 15.1589L14.311 15.4801L14.6334 15.1595H14.6338C14.7684 15.0255 14.9138 14.9079 15.0665 14.8072C16.1376 14.1039 17.5966 14.2214 18.5387 15.1589L18.8608 15.479L19.1836 15.1599C19.2947 15.05 19.415 14.9559 19.5385 14.8685C19.5769 14.8416 19.6166 14.8163 19.6564 14.7913C19.7507 14.7318 19.8475 14.6792 19.947 14.632C19.9861 14.6133 20.0242 14.5922 20.0645 14.5754C20.1971 14.5199 20.3324 14.4747 20.471 14.4404C20.5098 14.4307 20.5497 14.4258 20.5889 14.4181C20.697 14.3961 20.8054 14.38 20.9147 14.3708C20.9626 14.3668 21.0112 14.3635 21.0597 14.3622C21.173 14.3586 21.2869 14.3628 21.3999 14.3727C21.4356 14.376 21.4708 14.376 21.5065 14.38C21.989 14.4413 22.4583 14.6255 22.8598 14.9366L18.7958 22.4055Z" fill="#CCCCCC"/>
<path d="M6.03857 16.52C5.97173 16.2763 5.71923 16.13 5.47698 16.199C5.23308 16.2659 5.08953 16.5169 5.15581 16.7606L6.52801 21.7915C6.58367 21.9951 6.76769 22.1286 6.96874 22.1286C7.00866 22.1286 7.04931 22.1236 7.08959 22.1126C7.33331 22.0458 7.47704 21.7947 7.41058 21.5509L6.03857 16.52Z" fill="#CCCCCC"/>
<path d="M18.5231 16.1984C18.2784 16.1321 18.0278 16.2757 17.9615 16.5194L16.5895 21.5499C16.523 21.7932 16.6667 22.0448 16.9105 22.1114C16.9507 22.1226 16.9914 22.1276 17.0311 22.1276C17.2324 22.1276 17.4167 21.9941 17.472 21.7905L18.8441 16.76C18.9105 16.5168 18.767 16.2653 18.5231 16.1984Z" fill="#CCCCCC"/>
<path d="M14.3289 16.1844C14.0764 16.1627 13.8552 16.3471 13.8322 16.5982L13.375 21.6286C13.3521 21.8806 13.5372 22.1029 13.7893 22.1258C13.8034 22.1271 13.8172 22.1276 13.8309 22.1276C14.0651 22.1276 14.2645 21.9487 14.2859 21.7118L14.7433 16.6813C14.7657 16.4299 14.5805 16.2072 14.3289 16.1844Z" fill="#CCCCCC"/>
<path d="M9.67229 16.1844C9.4207 16.2071 9.23503 16.4299 9.25774 16.6813L9.71514 21.7118C9.73656 21.9493 9.93615 22.1276 10.1703 22.1276C10.1839 22.1276 10.1982 22.1271 10.2119 22.1258C10.4635 22.1029 10.6492 21.8806 10.6263 21.6287L10.1689 16.5982C10.146 16.3475 9.92644 16.1637 9.67229 16.1844Z" fill="#CCCCCC"/>
</g>
<defs>
<clipPath id="clip0_466_597">
<rect width="24" height="24" fill="white"/>
</clipPath>
</defs>
</svg>
