<svg width="24" height="24" viewBox="0 0 24 24" fill="none" xmlns="http://www.w3.org/2000/svg">
<path d="M9.56549 14.2374C9.56549 14.462 9.3833 14.644 9.15863 14.644C8.93414 14.644 8.75195 14.462 8.75195 14.2374C8.75195 14.0127 8.93414 13.8305 9.15863 13.8305C9.3833 13.8305 9.56549 14.0127 9.56549 14.2374Z" fill="#CCCCCC"/>
<path d="M9.56549 15.8644C9.56549 16.0891 9.3833 16.2711 9.15863 16.2711C8.93414 16.2711 8.75195 16.0891 8.75195 15.8644C8.75195 15.6398 8.93414 15.4576 9.15863 15.4576C9.3833 15.4576 9.56549 15.6398 9.56549 15.8644Z" fill="#CCCCCC"/>
<path d="M15.2647 14.2374C15.2647 14.462 15.0827 14.644 14.858 14.644C14.6334 14.644 14.4512 14.462 14.4512 14.2374C14.4512 14.0127 14.6334 13.8305 14.858 13.8305C15.0827 13.8305 15.2647 14.0127 15.2647 14.2374Z" fill="#CCCCCC"/>
<path d="M15.2647 15.8644C15.2647 16.0891 15.0827 16.2711 14.858 16.2711C14.6334 16.2711 14.4512 16.0891 14.4512 15.8644C14.4512 15.6398 14.6334 15.4576 14.858 15.4576C15.0827 15.4576 15.2647 15.6398 15.2647 15.8644Z" fill="#CCCCCC"/>
<path d="M10.7862 0C10.5612 0 10.3793 0.181824 10.3793 0.40686V5.69495C10.3793 6.22449 10.038 6.672 9.5658 6.84045V0.40686C9.5658 0.181824 9.38397 0 9.15894 0C8.93408 0 8.75208 0.181824 8.75208 0.40686V6.84045C8.27985 6.672 7.93854 6.22449 7.93854 5.69495V0.40686C7.93854 0.181824 7.75671 0 7.53186 0C7.30682 0 7.125 0.181824 7.125 0.40686V5.69495C7.125 6.67694 7.82501 7.49854 8.75208 7.68768V11.8544C8.05243 12.0363 7.53168 12.6676 7.53168 13.4236V22.3729C7.53168 23.2703 8.26154 24 9.15875 24C10.0562 24 10.7858 23.2703 10.7858 22.3729V13.4236C10.7858 12.6676 10.2653 12.0363 9.56561 11.8544V7.68768C10.4927 7.49854 11.1927 6.67731 11.1927 5.69495V0.40686C11.1929 0.181824 11.011 0 10.7862 0V0ZM9.97266 13.4236V22.3729C9.97266 22.8215 9.60773 23.1865 9.15894 23.1865C8.71033 23.1865 8.3454 22.8215 8.3454 22.3729V13.4236C8.3454 12.975 8.71033 12.6101 9.15894 12.6101C9.60773 12.6101 9.97266 12.975 9.97266 13.4236Z" fill="#CCCCCC"/>
<path d="M16.0499 0.684265C15.592 0.223755 14.9357 0 14.0442 0C13.8192 0 13.6373 0.181824 13.6373 0.40686V12.2034C13.6373 12.2477 13.6494 12.2884 13.6626 12.3283C13.3969 12.6178 13.2305 13.0003 13.2305 13.4236V22.3729C13.2305 23.2701 13.9603 24 14.8575 24C15.7549 24 16.4846 23.2701 16.4846 22.3729V13.4236C16.4846 12.9027 16.2341 12.4429 15.8518 12.1448C16.8895 10.8008 16.8922 8.81287 16.8915 5.92273L16.8939 5.02533C16.9037 3.08423 16.9123 1.55109 16.0499 0.684265ZM15.6713 22.3729C15.6713 22.8215 15.3063 23.1865 14.8575 23.1865C14.4089 23.1865 14.044 22.8215 14.044 22.3729V13.4236C14.044 12.975 14.4089 12.6101 14.8575 12.6101C15.3063 12.6101 15.6713 12.975 15.6713 13.4236V22.3729ZM16.0805 5.0213L16.0779 5.9231C16.0789 8.7843 16.0759 10.6998 15.0646 11.8176C14.9963 11.8087 14.9284 11.7966 14.8577 11.7966C14.7165 11.7966 14.582 11.8202 14.4509 11.8542V0.837524C14.9024 0.887878 15.2413 1.02466 15.4731 1.25775C16.0966 1.88507 16.0895 3.2688 16.0805 5.0213Z" fill="#CCCCCC"/>
</svg>
