<svg width="24" height="24" viewBox="0 0 24 24" fill="none" xmlns="http://www.w3.org/2000/svg">
<g clip-path="url(#clip0_466_502)">
<path d="M4.63147 16.2938C4.04004 15.7038 3.07929 15.7038 2.48895 16.2938C2.20313 16.5796 2.04492 16.9605 2.04492 17.3655C2.04492 17.7702 2.20313 18.151 2.48895 18.4369C2.78449 18.7324 3.1723 18.8798 3.56012 18.8798C3.94812 18.8798 4.33612 18.7324 4.63147 18.4369C4.9173 18.151 5.0755 17.7702 5.0755 17.3655C5.0755 16.9605 4.91785 16.5802 4.63147 16.2938ZM3.91736 17.7226C3.71979 17.9202 3.40064 17.9202 3.20325 17.7226C3.10822 17.6272 3.05512 17.5005 3.05512 17.3655C3.05512 17.2302 3.10767 17.1039 3.20325 17.0085C3.30176 16.9098 3.43103 16.8609 3.5603 16.8609C3.68958 16.8609 3.81885 16.91 3.91736 17.0085V17.009C4.01294 17.1039 4.06531 17.2302 4.06531 17.3655C4.06531 17.4999 4.01276 17.6266 3.91736 17.7226Z" fill="#CCCCCC"/>
<path d="M23.9376 6.9126C23.8612 6.54144 23.6139 6.22925 23.2764 6.08039C23.0486 5.97876 22.9638 5.7464 22.8501 5.37635C22.7344 4.9964 22.5238 4.29438 21.7288 4.36194C21.4596 4.38867 21.2232 4.31195 21.0615 4.151C20.9004 3.98987 20.8252 3.75238 20.8504 3.48377C20.9035 2.90992 20.7252 2.38605 20.3474 2.00776C19.9909 1.6518 19.5035 1.4795 18.9423 1.49872C18.9357 1.46686 18.9291 1.43152 18.9236 1.40168C18.8513 1.01972 18.7024 0.232914 17.6043 0.0847822C17.4104 0.0232588 16.8785 -0.105098 16.437 0.165715C16.2265 0.295537 15.9642 0.560673 15.9091 1.13892L15.8976 4.30243H10.7406C9.93751 4.30243 9.15858 4.39984 8.40601 4.57013C8.1363 3.55371 7.6897 2.59223 7.05231 1.71222L6.80182 1.36634L6.41895 1.55512C6.323 1.60273 4.06073 2.74366 3.43689 4.706C3.18439 5.49939 3.23218 6.30615 3.5777 7.11017C1.47107 9.04871 0.140625 11.8191 0.140625 14.9008V24H9.16975C12.02 24 14.699 22.8902 16.7142 20.8744C16.9587 20.6299 17.189 20.3745 17.4068 20.1114C17.629 20.1295 17.8594 20.1425 18.1069 20.1425C19.5317 20.1425 21.3435 19.7931 23.1442 18.4883L23.4901 18.2379L23.3002 17.855C23.2421 17.7372 21.9436 15.1785 19.7316 14.7715C19.7954 14.2967 19.8399 13.8173 19.8393 13.3304V8.20368L23.0299 8.23352L23.0704 8.22693C23.3002 8.19159 23.5064 8.08191 23.6681 7.90924L23.6695 7.90778C23.9118 7.64612 24.0119 7.27387 23.9376 6.9126ZM4.39655 6.41675C4.25043 5.94251 4.25208 5.4798 4.39911 5.01618C4.75653 3.88623 5.89106 3.05219 6.49073 2.6781C6.92451 3.35395 7.24366 4.07611 7.44471 4.83325C6.98823 4.9834 6.54877 5.16815 6.1214 5.37635C6.01795 5.42633 5.9123 5.47284 5.81086 5.52631C5.66932 5.6012 5.53345 5.68341 5.39557 5.7638C5.25477 5.84619 5.11487 5.92896 4.97791 6.01776C4.85358 6.0987 4.73291 6.18292 4.6128 6.2688C4.54102 6.31915 4.46631 6.3642 4.39655 6.41675ZM19.5539 15.7608C20.8272 15.9988 21.7724 17.2771 22.1768 17.9262C20.7191 18.8648 19.277 19.1294 18.1214 19.132C18.7784 18.1223 19.2492 17.0121 19.5306 15.8432C19.5377 15.8154 19.5474 15.7886 19.5539 15.7608ZM22.929 7.22241L18.8291 7.18488V13.331C18.8291 13.9153 18.7705 14.4901 18.67 15.0533L18.6568 15.1245C18.6281 15.277 18.5933 15.429 18.5568 15.5801C18.5413 15.6453 18.5252 15.7099 18.5085 15.7745C18.1765 17.0383 17.5862 18.2375 16.7749 19.2739L16.5795 19.5234C16.3956 19.7426 16.2052 19.9568 16.0007 20.1612C14.1762 21.9857 11.7503 22.9909 9.1703 22.9909H1.15082V14.9013C1.15082 11.9672 2.4787 9.34021 4.56116 7.57929C5.35071 6.9126 6.22706 6.38434 7.17866 6.00495C7.18616 6.00202 7.19367 6 7.20081 5.99707C7.51447 5.87274 7.83619 5.76471 8.1656 5.67316C8.98628 5.44391 9.8476 5.31153 10.741 5.31153H16.9041L16.9173 1.19037C16.9279 1.08234 16.9547 1.0329 16.9668 1.02576C17.0167 0.99445 17.1916 1.00708 17.3088 1.04993L17.435 1.08124C17.8442 1.12665 17.8663 1.24292 17.931 1.58936C17.9835 1.86274 18.122 2.58692 18.9659 2.51075C19.2341 2.48548 19.4715 2.56073 19.6337 2.72187C19.7948 2.88337 19.8701 3.12085 19.8448 3.38947C19.7917 3.96332 19.97 4.48719 20.3478 4.86493C20.7146 5.23114 21.223 5.40729 21.7811 5.37158C21.815 5.44483 21.8555 5.57648 21.8848 5.67114C22.0106 6.08313 22.201 6.70642 22.8662 7.00305C22.9142 7.02411 22.94 7.07575 22.9481 7.11658C22.9527 7.13745 22.9587 7.18891 22.9283 7.22168L22.929 7.22241ZM22.9977 7.2995V7.2854L23.2991 7.56482L22.9977 7.2995Z" fill="#CCCCCC"/>
<path d="M3.56055 12.5742V13.5846C7.45996 13.5846 10.6319 16.7565 10.6319 20.6558H11.6421C11.6421 16.1999 8.0166 12.5742 3.56055 12.5742Z" fill="#CCCCCC"/>
<path d="M5.20508 10.9307V11.9409C9.1045 11.9409 12.2764 15.113 12.2764 19.0122H13.2866C13.2866 14.5558 9.66114 10.9307 5.20508 10.9307Z" fill="#CCCCCC"/>
<path d="M6.77539 9.35999V10.3702C10.6748 10.3702 13.8467 13.5421 13.8467 17.4415H14.8569C14.8569 12.9855 11.232 9.35999 6.77539 9.35999Z" fill="#CCCCCC"/>
<path d="M8.41992 7.71589V8.72608C12.3193 8.72608 15.4913 11.898 15.4913 15.7974H16.5015C16.5015 11.3414 12.8763 7.71589 8.41992 7.71589Z" fill="#CCCCCC"/>
</g>
<defs>
<clipPath id="clip0_466_502">
<rect width="24" height="24" fill="white"/>
</clipPath>
</defs>
</svg>
