<svg width="24" height="24" viewBox="0 0 24 24" fill="none" xmlns="http://www.w3.org/2000/svg">
<g clip-path="url(#clip0_466_525)">
<path d="M7.29335 8.33313C7.37136 8.41113 7.47371 8.45032 7.57625 8.45032C7.67861 8.45032 7.78096 8.41113 7.85897 8.33313C8.01534 8.17676 8.01534 7.92389 7.85897 7.76751C7.45302 7.3612 7.45302 6.70037 7.85897 6.29406C8.20705 5.94597 8.39895 5.48363 8.39895 4.99162C8.39895 4.49962 8.20742 4.03709 7.85897 3.68919C7.7026 3.53263 7.44973 3.53263 7.29335 3.68919C7.13698 3.84556 7.13698 4.09843 7.29335 4.25462C7.49019 4.45146 7.59914 4.71312 7.59914 4.99144C7.59914 5.26994 7.49056 5.53142 7.29335 5.72826C6.57539 6.44622 6.57539 7.61517 7.29335 8.33313Z" fill="#CCCCCC"/>
<path d="M16.0932 8.33313C16.1712 8.41113 16.2735 8.45032 16.3759 8.45032C16.4784 8.45032 16.5808 8.41113 16.6588 8.33313C16.8151 8.17676 16.8151 7.92389 16.6588 7.76751C16.2528 7.3612 16.2528 6.70037 16.6588 6.29406C17.0067 5.94597 17.1987 5.48363 17.1987 4.99162C17.1987 4.49962 17.0072 4.03709 16.6588 3.68919C16.5024 3.53263 16.2495 3.53263 16.0932 3.68919C15.9368 3.84556 15.9368 4.09843 16.0932 4.25462C16.29 4.45146 16.3988 4.71312 16.3988 4.99144C16.3988 5.26994 16.2904 5.53142 16.0932 5.72826C15.3752 6.44622 15.3752 7.61517 16.0932 8.33313Z" fill="#CCCCCC"/>
<path d="M11.6928 5.93314C11.7708 6.01115 11.8733 6.05033 11.9757 6.05033C12.078 6.05033 12.1804 6.01115 12.2584 5.93314C12.4149 5.77677 12.4149 5.5239 12.2584 5.36753C11.8524 4.96122 11.8524 4.30039 12.2584 3.89389C12.6065 3.54599 12.7984 3.08347 12.7984 2.59146C12.7984 2.09964 12.6068 1.63712 12.2584 1.28922C12.102 1.13266 11.8491 1.13266 11.6929 1.28922C11.5364 1.44559 11.5364 1.69827 11.6929 1.85465C11.8896 2.05148 11.9985 2.31314 11.9985 2.59146C11.9985 2.86978 11.8901 3.13144 11.6929 3.32828C10.9748 4.04624 10.9748 5.21518 11.6928 5.93314Z" fill="#CCCCCC"/>
<path d="M10.0912 11.4551C10.1203 11.4551 10.15 11.452 10.1797 11.4456C10.7548 11.3159 11.3495 11.2502 11.9481 11.2502H11.9532C12.1741 11.2502 12.3531 11.0715 12.3531 10.8507C12.3531 10.6295 12.1744 10.4504 11.9532 10.4504C11.9516 10.4504 11.9496 10.4504 11.9476 10.4504C11.2904 10.4504 10.6363 10.5227 10.0037 10.6652C9.788 10.7135 9.65287 10.9276 9.70121 11.1431C9.74369 11.3291 9.9083 11.4551 10.0912 11.4551Z" fill="#CCCCCC"/>
<path d="M3.88092 18.0436C3.90545 18.0484 3.92944 18.0504 3.95288 18.0504C4.14258 18.0504 4.31103 17.9151 4.34619 17.7223C4.76184 15.4431 6.13532 13.415 8.02058 12.2983C8.21046 12.186 8.27345 11.9403 8.16102 11.7502C8.04823 11.5604 7.80305 11.4976 7.61298 11.61C5.53125 12.843 4.01623 15.0744 3.55938 17.5783C3.51947 17.796 3.66339 18.0039 3.88092 18.0436Z" fill="#CCCCCC"/>
<path d="M22.2027 17.4996C21.478 13.2431 18.1599 9.86117 13.9358 9.04195C13.9428 8.97805 13.953 8.9136 13.953 8.85006C13.953 7.74721 13.056 6.84999 11.9532 6.84999C10.8503 6.84999 9.95309 7.74721 9.95309 8.85006C9.95309 8.9136 9.96316 8.97805 9.97031 9.04195C5.74623 9.86117 2.42835 13.2431 1.70344 17.4996C0.867556 17.9728 -0.046875 18.6691 -0.046875 19.4504C-0.046875 21.4844 6.15786 22.8503 11.9532 22.8503C17.7483 22.8503 23.9532 21.4844 23.9532 19.4504C23.9532 18.6691 23.0388 17.9728 22.2027 17.4996ZM10.7556 8.91909C10.754 8.89583 10.7531 8.87276 10.7531 8.85024C10.7531 8.18868 11.2916 7.65016 11.9532 7.65016C12.6147 7.65016 13.1532 8.18868 13.1532 8.85024C13.1532 8.87313 13.1525 8.89583 13.1509 8.91909C13.132 8.91707 13.1131 8.91634 13.0948 8.91433C12.9573 8.89913 12.8187 8.88833 12.6795 8.87862C12.6285 8.87514 12.5776 8.86983 12.5265 8.86709C12.3368 8.85665 12.146 8.85061 11.9537 8.85061C11.7613 8.85061 11.5705 8.85665 11.3808 8.86709C11.3297 8.86983 11.2788 8.87514 11.2277 8.87862C11.0885 8.88833 10.9501 8.8995 10.8124 8.91433C10.7932 8.91634 10.7743 8.91671 10.7556 8.91909ZM10.5127 9.75845C10.7274 9.7264 10.9435 9.70315 11.1603 9.68557C11.2048 9.68191 11.2491 9.6788 11.2934 9.67568C11.7327 9.64602 12.174 9.64602 12.6131 9.67568C12.6576 9.6788 12.7019 9.68191 12.7464 9.68557C12.9632 9.70315 13.1792 9.7264 13.3938 9.75845C17.5611 10.3883 20.8567 13.7071 21.4547 17.8849C21.473 18.0132 21.4879 18.142 21.501 18.2709C21.5054 18.3152 21.5115 18.3591 21.5155 18.4036C21.5311 18.5807 21.5426 18.7579 21.5483 18.9352C15.2643 20.3916 8.6426 20.3916 2.35859 18.9352C2.36463 18.7579 2.3758 18.5807 2.39136 18.4036C2.39539 18.3591 2.40107 18.3152 2.40565 18.2709C2.41883 18.1416 2.43366 18.0127 2.45216 17.8849C3.05 13.7071 6.34554 10.388 10.5127 9.75845ZM11.9532 22.0504C5.1147 22.0504 0.753115 20.3427 0.753115 19.4504C0.753115 19.2972 0.94263 18.9597 1.57874 18.5193C1.57709 18.542 1.57782 18.5644 1.57618 18.5873C1.56263 18.8064 1.55311 19.0273 1.55311 19.2505V19.5656L1.85981 19.6396C5.16158 20.4317 8.55746 20.8285 11.953 20.8285C15.3487 20.8285 18.7447 20.4321 22.0463 19.6396L22.353 19.5656V19.2505C22.353 19.0273 22.3435 18.8068 22.3298 18.5873C22.3283 18.5644 22.329 18.542 22.3274 18.5193C22.9635 18.9597 23.153 19.2972 23.153 19.4504C23.1532 20.3427 18.7916 22.0504 11.9532 22.0504Z" fill="#CCCCCC"/>
</g>
<defs>
<clipPath id="clip0_466_525">
<rect width="24" height="24" fill="white"/>
</clipPath>
</defs>
</svg>
