<svg width="150" height="59" viewBox="0 0 150 59" fill="none" xmlns="http://www.w3.org/2000/svg">
<rect width="150" height="58.4898" rx="4" fill="#333333"/>
<g clip-path="url(#clip0_516_6138)">
<path d="M25.0652 28.7297L14.7188 18.3545L27.8828 25.9121L25.0652 28.7297ZM12.0176 17.7449C11.408 18.0641 11 18.6449 11 19.4009V40.0889C11 40.8449 11.408 41.4257 12.0176 41.7449L24.05 29.7425L12.0176 17.7449ZM31.9532 28.3217L29.192 26.7233L26.1116 29.7473L29.192 32.7713L32.0096 31.1729C32.8532 30.5021 32.8532 28.9925 31.9532 28.3217ZM14.7188 41.1401L27.8828 33.5825L25.0652 30.7649L14.7188 41.1401Z" fill="white"/>
</g>
<path d="M43.234 13.333C44.07 13.333 44.7923 13.4907 45.401 13.806C46.017 14.114 46.4863 14.5577 46.809 15.137C47.139 15.7163 47.304 16.3983 47.304 17.183C47.304 17.9677 47.139 18.6497 46.809 19.229C46.4863 19.801 46.017 20.241 45.401 20.549C44.7923 20.8497 44.07 21 43.234 21H40.847V13.333H43.234ZM43.234 20.175C44.224 20.175 44.9793 19.9147 45.5 19.394C46.0207 18.866 46.281 18.129 46.281 17.183C46.281 16.2297 46.017 15.4853 45.489 14.95C44.9683 14.4147 44.2167 14.147 43.234 14.147H41.848V20.175H43.234ZM51.2533 21.099C50.6887 21.099 50.1753 20.9707 49.7133 20.714C49.2587 20.4573 48.8993 20.0943 48.6353 19.625C48.3787 19.1483 48.2503 18.5983 48.2503 17.975C48.2503 17.359 48.3823 16.8163 48.6463 16.347C48.9177 15.8703 49.2843 15.5073 49.7463 15.258C50.2083 15.0013 50.7253 14.873 51.2973 14.873C51.8693 14.873 52.3863 15.0013 52.8483 15.258C53.3103 15.5073 53.6733 15.8667 53.9373 16.336C54.2087 16.8053 54.3443 17.3517 54.3443 17.975C54.3443 18.5983 54.205 19.1483 53.9263 19.625C53.655 20.0943 53.2847 20.4573 52.8153 20.714C52.346 20.9707 51.8253 21.099 51.2533 21.099ZM51.2533 20.219C51.6127 20.219 51.95 20.1347 52.2653 19.966C52.5807 19.7973 52.8337 19.5443 53.0243 19.207C53.2223 18.8697 53.3213 18.459 53.3213 17.975C53.3213 17.491 53.226 17.0803 53.0353 16.743C52.8447 16.4057 52.5953 16.1563 52.2873 15.995C51.9793 15.8263 51.6457 15.742 51.2863 15.742C50.9197 15.742 50.5823 15.8263 50.2743 15.995C49.9737 16.1563 49.7317 16.4057 49.5483 16.743C49.365 17.0803 49.2733 17.491 49.2733 17.975C49.2733 18.4663 49.3613 18.8807 49.5373 19.218C49.7207 19.5553 49.9627 19.8083 50.2633 19.977C50.564 20.1383 50.894 20.219 51.2533 20.219ZM63.6905 14.972L61.8095 21H60.7755L59.3235 16.215L57.8715 21H56.8375L54.9455 14.972H55.9685L57.3545 20.032L58.8505 14.972H59.8735L61.3365 20.043L62.7005 14.972H63.6905ZM67.6209 14.862C68.3542 14.862 68.9482 15.0857 69.4029 15.533C69.8576 15.973 70.0849 16.611 70.0849 17.447V21H69.0949V17.59C69.0949 16.9887 68.9446 16.5303 68.6439 16.215C68.3432 15.8923 67.9326 15.731 67.4119 15.731C66.8839 15.731 66.4622 15.896 66.1469 16.226C65.8389 16.556 65.6849 17.0363 65.6849 17.667V21H64.6839V14.972H65.6849V15.83C65.8829 15.522 66.1506 15.2837 66.4879 15.115C66.8326 14.9463 67.2102 14.862 67.6209 14.862ZM72.721 12.86V21H71.72V12.86H72.721ZM77.0561 21.099C76.4914 21.099 75.9781 20.9707 75.5161 20.714C75.0614 20.4573 74.7021 20.0943 74.4381 19.625C74.1814 19.1483 74.0531 18.5983 74.0531 17.975C74.0531 17.359 74.1851 16.8163 74.4491 16.347C74.7204 15.8703 75.0871 15.5073 75.5491 15.258C76.0111 15.0013 76.5281 14.873 77.1001 14.873C77.6721 14.873 78.1891 15.0013 78.6511 15.258C79.1131 15.5073 79.4761 15.8667 79.7401 16.336C80.0114 16.8053 80.1471 17.3517 80.1471 17.975C80.1471 18.5983 80.0077 19.1483 79.7291 19.625C79.4577 20.0943 79.0874 20.4573 78.6181 20.714C78.1487 20.9707 77.6281 21.099 77.0561 21.099ZM77.0561 20.219C77.4154 20.219 77.7527 20.1347 78.0681 19.966C78.3834 19.7973 78.6364 19.5443 78.8271 19.207C79.0251 18.8697 79.1241 18.459 79.1241 17.975C79.1241 17.491 79.0287 17.0803 78.8381 16.743C78.6474 16.4057 78.3981 16.1563 78.0901 15.995C77.7821 15.8263 77.4484 15.742 77.0891 15.742C76.7224 15.742 76.3851 15.8263 76.0771 15.995C75.7764 16.1563 75.5344 16.4057 75.3511 16.743C75.1677 17.0803 75.0761 17.491 75.0761 17.975C75.0761 18.4663 75.1641 18.8807 75.3401 19.218C75.5234 19.5553 75.7654 19.8083 76.0661 19.977C76.3667 20.1383 76.6967 20.219 77.0561 20.219ZM81.0892 17.964C81.0892 17.348 81.2139 16.809 81.4632 16.347C81.7125 15.8777 82.0535 15.5147 82.4862 15.258C82.9262 15.0013 83.4139 14.873 83.9492 14.873C84.4772 14.873 84.9355 14.9867 85.3242 15.214C85.7129 15.4413 86.0025 15.7273 86.1932 16.072V14.972H87.2052V21H86.1932V19.878C85.9952 20.23 85.6982 20.5233 85.3022 20.758C84.9135 20.9853 84.4589 21.099 83.9382 21.099C83.4029 21.099 82.9189 20.967 82.4862 20.703C82.0535 20.439 81.7125 20.0687 81.4632 19.592C81.2139 19.1153 81.0892 18.5727 81.0892 17.964ZM86.1932 17.975C86.1932 17.5203 86.1015 17.1243 85.9182 16.787C85.7349 16.4497 85.4855 16.193 85.1702 16.017C84.8622 15.8337 84.5212 15.742 84.1472 15.742C83.7732 15.742 83.4322 15.83 83.1242 16.006C82.8162 16.182 82.5705 16.4387 82.3872 16.776C82.2039 17.1133 82.1122 17.5093 82.1122 17.964C82.1122 18.426 82.2039 18.8293 82.3872 19.174C82.5705 19.5113 82.8162 19.7717 83.1242 19.955C83.4322 20.131 83.7732 20.219 84.1472 20.219C84.5212 20.219 84.8622 20.131 85.1702 19.955C85.4855 19.7717 85.7349 19.5113 85.9182 19.174C86.1015 18.8293 86.1932 18.4297 86.1932 17.975ZM88.5228 17.964C88.5228 17.348 88.6475 16.809 88.8968 16.347C89.1461 15.8777 89.4871 15.5147 89.9198 15.258C90.3598 15.0013 90.8511 14.873 91.3938 14.873C91.8631 14.873 92.2995 14.983 92.7028 15.203C93.1061 15.4157 93.4141 15.698 93.6268 16.05V12.86H94.6388V21H93.6268V19.867C93.4288 20.2263 93.1355 20.5233 92.7468 20.758C92.3581 20.9853 91.9035 21.099 91.3828 21.099C90.8475 21.099 90.3598 20.967 89.9198 20.703C89.4871 20.439 89.1461 20.0687 88.8968 19.592C88.6475 19.1153 88.5228 18.5727 88.5228 17.964ZM93.6268 17.975C93.6268 17.5203 93.5351 17.1243 93.3518 16.787C93.1685 16.4497 92.9191 16.193 92.6038 16.017C92.2958 15.8337 91.9548 15.742 91.5808 15.742C91.2068 15.742 90.8658 15.83 90.5578 16.006C90.2498 16.182 90.0041 16.4387 89.8208 16.776C89.6375 17.1133 89.5458 17.5093 89.5458 17.964C89.5458 18.426 89.6375 18.8293 89.8208 19.174C90.0041 19.5113 90.2498 19.7717 90.5578 19.955C90.8658 20.131 91.2068 20.219 91.5808 20.219C91.9548 20.219 92.2958 20.131 92.6038 19.955C92.9191 19.7717 93.1685 19.5113 93.3518 19.174C93.5351 18.8293 93.6268 18.4297 93.6268 17.975ZM101.892 21.099C101.327 21.099 100.814 20.9707 100.352 20.714C99.8973 20.4573 99.538 20.0943 99.274 19.625C99.0173 19.1483 98.889 18.5983 98.889 17.975C98.889 17.359 99.021 16.8163 99.285 16.347C99.5563 15.8703 99.923 15.5073 100.385 15.258C100.847 15.0013 101.364 14.873 101.936 14.873C102.508 14.873 103.025 15.0013 103.487 15.258C103.949 15.5073 104.312 15.8667 104.576 16.336C104.847 16.8053 104.983 17.3517 104.983 17.975C104.983 18.5983 104.844 19.1483 104.565 19.625C104.294 20.0943 103.923 20.4573 103.454 20.714C102.985 20.9707 102.464 21.099 101.892 21.099ZM101.892 20.219C102.251 20.219 102.589 20.1347 102.904 19.966C103.219 19.7973 103.472 19.5443 103.663 19.207C103.861 18.8697 103.96 18.459 103.96 17.975C103.96 17.491 103.865 17.0803 103.674 16.743C103.483 16.4057 103.234 16.1563 102.926 15.995C102.618 15.8263 102.284 15.742 101.925 15.742C101.558 15.742 101.221 15.8263 100.913 15.995C100.612 16.1563 100.37 16.4057 100.187 16.743C100.004 17.0803 99.912 17.491 99.912 17.975C99.912 18.4663 100 18.8807 100.176 19.218C100.359 19.5553 100.601 19.8083 100.902 19.977C101.203 20.1383 101.533 20.219 101.892 20.219ZM109.236 14.862C109.969 14.862 110.563 15.0857 111.018 15.533C111.473 15.973 111.7 16.611 111.7 17.447V21H110.71V17.59C110.71 16.9887 110.56 16.5303 110.259 16.215C109.958 15.8923 109.548 15.731 109.027 15.731C108.499 15.731 108.077 15.896 107.762 16.226C107.454 16.556 107.3 17.0363 107.3 17.667V21H106.299V14.972H107.3V15.83C107.498 15.522 107.766 15.2837 108.103 15.115C108.448 14.9463 108.825 14.862 109.236 14.862ZM117.489 15.797V19.35C117.489 19.6433 117.551 19.8523 117.676 19.977C117.801 20.0943 118.017 20.153 118.325 20.153H119.062V21H118.16C117.603 21 117.185 20.8717 116.906 20.615C116.627 20.3583 116.488 19.9367 116.488 19.35V15.797H115.707V14.972H116.488V13.454H117.489V14.972H119.062V15.797H117.489ZM123.267 14.862C123.721 14.862 124.132 14.961 124.499 15.159C124.865 15.3497 125.151 15.6393 125.357 16.028C125.569 16.4167 125.676 16.8897 125.676 17.447V21H124.686V17.59C124.686 16.9887 124.535 16.5303 124.235 16.215C123.934 15.8923 123.523 15.731 123.003 15.731C122.475 15.731 122.053 15.896 121.738 16.226C121.43 16.556 121.276 17.0363 121.276 17.667V21H120.275V12.86H121.276V15.83C121.474 15.522 121.745 15.2837 122.09 15.115C122.442 14.9463 122.834 14.862 123.267 14.862ZM132.811 17.755C132.811 17.9457 132.8 18.1473 132.778 18.36H127.96C127.997 18.954 128.198 19.4197 128.565 19.757C128.939 20.087 129.39 20.252 129.918 20.252C130.351 20.252 130.71 20.153 130.996 19.955C131.289 19.7497 131.495 19.4783 131.612 19.141H132.69C132.529 19.7203 132.206 20.1933 131.722 20.56C131.238 20.9193 130.637 21.099 129.918 21.099C129.346 21.099 128.833 20.9707 128.378 20.714C127.931 20.4573 127.579 20.0943 127.322 19.625C127.065 19.1483 126.937 18.5983 126.937 17.975C126.937 17.3517 127.062 16.8053 127.311 16.336C127.56 15.8667 127.909 15.5073 128.356 15.258C128.811 15.0013 129.331 14.873 129.918 14.873C130.49 14.873 130.996 14.9977 131.436 15.247C131.876 15.4963 132.213 15.841 132.448 16.281C132.69 16.7137 132.811 17.205 132.811 17.755ZM131.777 17.546C131.777 17.1647 131.693 16.8383 131.524 16.567C131.355 16.2883 131.124 16.0793 130.831 15.94C130.545 15.7933 130.226 15.72 129.874 15.72C129.368 15.72 128.935 15.8813 128.576 16.204C128.224 16.5267 128.022 16.974 127.971 17.546H131.777Z" fill="#B3B3B3"/>
<path d="M49.248 34.08C48.96 33.5253 48.56 33.1093 48.048 32.832C47.536 32.544 46.944 32.4 46.272 32.4C45.536 32.4 44.88 32.5653 44.304 32.896C43.728 33.2267 43.2747 33.696 42.944 34.304C42.624 34.912 42.464 35.616 42.464 36.416C42.464 37.216 42.624 37.9253 42.944 38.544C43.2747 39.152 43.728 39.6213 44.304 39.952C44.88 40.2827 45.536 40.448 46.272 40.448C47.264 40.448 48.0693 40.1707 48.688 39.616C49.3067 39.0613 49.6853 38.3093 49.824 37.36H45.648V35.904H51.776V37.328C51.6587 38.192 51.3493 38.9867 50.848 39.712C50.3573 40.4373 49.712 41.0187 48.912 41.456C48.1227 41.8827 47.2427 42.096 46.272 42.096C45.2267 42.096 44.272 41.856 43.408 41.376C42.544 40.8853 41.856 40.208 41.344 39.344C40.8427 38.48 40.592 37.504 40.592 36.416C40.592 35.328 40.8427 34.352 41.344 33.488C41.856 32.624 42.544 31.952 43.408 31.472C44.2827 30.9813 45.2373 30.736 46.272 30.736C47.456 30.736 48.5067 31.0293 49.424 31.616C50.352 32.192 51.024 33.0133 51.44 34.08H49.248ZM57.399 42.144C56.567 42.144 55.815 41.9573 55.143 41.584C54.471 41.2 53.943 40.6667 53.559 39.984C53.175 39.2907 52.983 38.4907 52.983 37.584C52.983 36.688 53.1803 35.8933 53.575 35.2C53.9697 34.5067 54.5083 33.9733 55.191 33.6C55.8737 33.2267 56.6363 33.04 57.479 33.04C58.3217 33.04 59.0843 33.2267 59.767 33.6C60.4497 33.9733 60.9883 34.5067 61.383 35.2C61.7777 35.8933 61.975 36.688 61.975 37.584C61.975 38.48 61.7723 39.2747 61.367 39.968C60.9617 40.6613 60.407 41.2 59.703 41.584C59.0097 41.9573 58.2417 42.144 57.399 42.144ZM57.399 40.56C57.8683 40.56 58.3057 40.448 58.711 40.224C59.127 40 59.463 39.664 59.719 39.216C59.975 38.768 60.103 38.224 60.103 37.584C60.103 36.944 59.9803 36.4053 59.735 35.968C59.4897 35.52 59.1643 35.184 58.759 34.96C58.3537 34.736 57.9163 34.624 57.447 34.624C56.9777 34.624 56.5403 34.736 56.135 34.96C55.7403 35.184 55.4257 35.52 55.191 35.968C54.9563 36.4053 54.839 36.944 54.839 37.584C54.839 38.5333 55.079 39.2693 55.559 39.792C56.0497 40.304 56.663 40.56 57.399 40.56ZM67.6021 42.144C66.7701 42.144 66.0181 41.9573 65.3461 41.584C64.6741 41.2 64.1461 40.6667 63.7621 39.984C63.3781 39.2907 63.1861 38.4907 63.1861 37.584C63.1861 36.688 63.3835 35.8933 63.7781 35.2C64.1728 34.5067 64.7115 33.9733 65.3941 33.6C66.0768 33.2267 66.8395 33.04 67.6821 33.04C68.5248 33.04 69.2875 33.2267 69.9701 33.6C70.6528 33.9733 71.1915 34.5067 71.5861 35.2C71.9808 35.8933 72.1781 36.688 72.1781 37.584C72.1781 38.48 71.9755 39.2747 71.5701 39.968C71.1648 40.6613 70.6101 41.2 69.9061 41.584C69.2128 41.9573 68.4448 42.144 67.6021 42.144ZM67.6021 40.56C68.0715 40.56 68.5088 40.448 68.9141 40.224C69.3301 40 69.6661 39.664 69.9221 39.216C70.1781 38.768 70.3061 38.224 70.3061 37.584C70.3061 36.944 70.1835 36.4053 69.9381 35.968C69.6928 35.52 69.3675 35.184 68.9621 34.96C68.5568 34.736 68.1195 34.624 67.6501 34.624C67.1808 34.624 66.7435 34.736 66.3381 34.96C65.9435 35.184 65.6288 35.52 65.3941 35.968C65.1595 36.4053 65.0421 36.944 65.0421 37.584C65.0421 38.5333 65.2821 39.2693 65.7621 39.792C66.2528 40.304 66.8661 40.56 67.6021 40.56ZM77.5333 33.04C78.2159 33.04 78.8186 33.1787 79.3413 33.456C79.8746 33.7227 80.2906 34.0587 80.5893 34.464V33.184H82.4293V42.144C82.4293 42.9547 82.2586 43.6747 81.9173 44.304C81.5759 44.944 81.0799 45.4453 80.4293 45.808C79.7893 46.1707 79.0213 46.352 78.1253 46.352C76.9306 46.352 75.9386 46.0693 75.1493 45.504C74.3599 44.9493 73.9119 44.192 73.8053 43.232H75.6133C75.7519 43.6907 76.0453 44.0587 76.4933 44.336C76.9519 44.624 77.4959 44.768 78.1253 44.768C78.8613 44.768 79.4533 44.544 79.9013 44.096C80.3599 43.648 80.5893 42.9973 80.5893 42.144V40.672C80.2799 41.088 79.8586 41.44 79.3253 41.728C78.8026 42.0053 78.2053 42.144 77.5333 42.144C76.7653 42.144 76.0613 41.952 75.4213 41.568C74.7919 41.1733 74.2906 40.6293 73.9173 39.936C73.5546 39.232 73.3733 38.4373 73.3733 37.552C73.3733 36.6667 73.5546 35.8827 73.9173 35.2C74.2906 34.5173 74.7919 33.9893 75.4213 33.616C76.0613 33.232 76.7653 33.04 77.5333 33.04ZM80.5893 37.584C80.5893 36.976 80.4613 36.448 80.2053 36C79.9599 35.552 79.6346 35.2107 79.2293 34.976C78.8239 34.7413 78.3866 34.624 77.9173 34.624C77.4479 34.624 77.0106 34.7413 76.6053 34.976C76.1999 35.2 75.8693 35.536 75.6133 35.984C75.3679 36.4213 75.2453 36.944 75.2453 37.552C75.2453 38.16 75.3679 38.6933 75.6133 39.152C75.8693 39.6107 76.1999 39.9627 76.6053 40.208C77.0213 40.4427 77.4586 40.56 77.9173 40.56C78.3866 40.56 78.8239 40.4427 79.2293 40.208C79.6346 39.9733 79.9599 39.632 80.2053 39.184C80.4613 38.7253 80.5893 38.192 80.5893 37.584ZM86.649 30.16V42H84.825V30.16H86.649ZM97.1238 37.376C97.1238 37.7067 97.1024 38.0053 97.0598 38.272H90.3238C90.3771 38.976 90.6384 39.5413 91.1078 39.968C91.5771 40.3947 92.1531 40.608 92.8358 40.608C93.8171 40.608 94.5104 40.1973 94.9158 39.376H96.8837C96.6171 40.1867 96.1318 40.8533 95.4278 41.376C94.7344 41.888 93.8704 42.144 92.8358 42.144C91.9931 42.144 91.2358 41.9573 90.5638 41.584C89.9024 41.2 89.3798 40.6667 88.9958 39.984C88.6224 39.2907 88.4358 38.4907 88.4358 37.584C88.4358 36.6773 88.6171 35.8827 88.9798 35.2C89.3531 34.5067 89.8704 33.9733 90.5318 33.6C91.2038 33.2267 91.9718 33.04 92.8358 33.04C93.6678 33.04 94.4091 33.2213 95.0598 33.584C95.7104 33.9467 96.2171 34.4587 96.5798 35.12C96.9424 35.7707 97.1238 36.5227 97.1238 37.376ZM95.2198 36.8C95.2091 36.128 94.9691 35.5893 94.4998 35.184C94.0304 34.7787 93.4491 34.576 92.7558 34.576C92.1264 34.576 91.5878 34.7787 91.1398 35.184C90.6918 35.5787 90.4251 36.1173 90.3398 36.8H95.2198ZM104.899 34.48C105.208 34.0747 105.63 33.7333 106.163 33.456C106.696 33.1787 107.299 33.04 107.971 33.04C108.739 33.04 109.438 33.232 110.067 33.616C110.707 33.9893 111.208 34.5173 111.571 35.2C111.934 35.8827 112.115 36.6667 112.115 37.552C112.115 38.4373 111.934 39.232 111.571 39.936C111.208 40.6293 110.707 41.1733 110.067 41.568C109.438 41.952 108.739 42.144 107.971 42.144C107.299 42.144 106.702 42.0107 106.179 41.744C105.656 41.4667 105.23 41.1253 104.899 40.72V46.192H103.075V33.184H104.899V34.48ZM110.259 37.552C110.259 36.944 110.131 36.4213 109.875 35.984C109.63 35.536 109.299 35.2 108.883 34.976C108.478 34.7413 108.04 34.624 107.571 34.624C107.112 34.624 106.675 34.7413 106.259 34.976C105.854 35.2107 105.523 35.552 105.267 36C105.022 36.448 104.899 36.976 104.899 37.584C104.899 38.192 105.022 38.7253 105.267 39.184C105.523 39.632 105.854 39.9733 106.259 40.208C106.675 40.4427 107.112 40.56 107.571 40.56C108.04 40.56 108.478 40.4427 108.883 40.208C109.299 39.9627 109.63 39.6107 109.875 39.152C110.131 38.6933 110.259 38.16 110.259 37.552ZM115.743 30.16V42H113.919V30.16H115.743ZM117.53 37.552C117.53 36.6667 117.711 35.8827 118.074 35.2C118.447 34.5173 118.948 33.9893 119.578 33.616C120.218 33.232 120.922 33.04 121.69 33.04C122.383 33.04 122.986 33.1787 123.498 33.456C124.02 33.7227 124.436 34.0587 124.746 34.464V33.184H126.586V42H124.746V40.688C124.436 41.104 124.015 41.4507 123.482 41.728C122.948 42.0053 122.34 42.144 121.658 42.144C120.9 42.144 120.207 41.952 119.578 41.568C118.948 41.1733 118.447 40.6293 118.074 39.936C117.711 39.232 117.53 38.4373 117.53 37.552ZM124.746 37.584C124.746 36.976 124.618 36.448 124.362 36C124.116 35.552 123.791 35.2107 123.386 34.976C122.98 34.7413 122.543 34.624 122.074 34.624C121.604 34.624 121.167 34.7413 120.762 34.976C120.356 35.2 120.026 35.536 119.77 35.984C119.524 36.4213 119.402 36.944 119.402 37.552C119.402 38.16 119.524 38.6933 119.77 39.152C120.026 39.6107 120.356 39.9627 120.762 40.208C121.178 40.4427 121.615 40.56 122.074 40.56C122.543 40.56 122.98 40.4427 123.386 40.208C123.791 39.9733 124.116 39.632 124.362 39.184C124.618 38.7253 124.746 38.192 124.746 37.584ZM136.917 33.184L131.509 46.144H129.621L131.413 41.856L127.941 33.184H129.973L132.453 39.904L135.029 33.184H136.917Z" fill="white"/>
<defs>
<clipPath id="clip0_516_6138">
<rect width="24" height="24" fill="white" transform="translate(10 17.2449)"/>
</clipPath>
</defs>
</svg>
