<svg width="24" height="24" viewBox="0 0 24 24" fill="none" xmlns="http://www.w3.org/2000/svg">
<path d="M12.2113 0H11.7577C8.53142 0 5.90625 2.62518 5.90625 5.85148V17.8222C5.90625 18.9457 6.82013 19.8597 7.94402 19.8597H10.4474V22.7588C10.4474 23.4431 11.0043 23.9999 11.6887 23.9999H12.1025C12.7868 23.9999 13.3436 23.4431 13.3436 22.7588V19.8594H16.0246C17.1483 19.8594 18.0624 18.9453 18.0624 17.8216V5.85148C18.0628 2.62518 15.4376 0 12.2113 0V0ZM12.5165 22.7583C12.5165 22.9866 12.3312 23.1721 12.1029 23.1721H11.6891C11.4607 23.1721 11.2753 22.9866 11.2753 22.7583V19.8621H12.5165V22.7583ZM17.2351 17.8216C17.2351 18.4887 16.692 19.0317 16.025 19.0317H7.94439C7.27752 19.0317 6.73425 18.4887 6.73425 17.8216V5.85148C6.73425 3.08111 8.98791 0.827451 11.7583 0.827451H12.2117C14.9817 0.827451 17.2357 3.08111 17.2357 5.85148V17.8216H17.2351Z" fill="#CCCCCC"/>
<path d="M15.4174 8.81598C15.1887 8.81598 15.0037 9.00092 15.0037 9.22961V11.2707C15.0037 11.6678 14.6809 11.9905 14.2838 11.9905C13.8866 11.9905 13.5638 11.6678 13.5638 11.2707V9.22961C13.5638 9.00092 13.3788 8.81598 13.1501 8.81598C12.9213 8.81598 12.7363 9.00092 12.7363 9.22961V11.2707C12.7363 12.1241 13.4307 12.8181 14.2838 12.8181C15.1368 12.8181 15.8312 12.1238 15.8312 11.2707V9.22961C15.8312 9.00092 15.6462 8.81598 15.4174 8.81598Z" fill="#CCCCCC"/>
<path d="M11.4804 14.5047C11.2515 14.5047 11.0666 14.6896 11.0666 14.9185V16.0521C11.0666 16.4493 10.7434 16.7721 10.3463 16.7721C9.9491 16.7721 9.62646 16.4493 9.62646 16.0521V14.9185C9.62646 14.6896 9.44153 14.5047 9.21265 14.5047C8.98376 14.5047 8.79883 14.6896 8.79883 14.9185V16.0521C8.79883 16.9057 9.49316 17.5995 10.3463 17.5995C11.1993 17.5995 11.894 16.9052 11.894 16.0521V14.9185C11.894 14.6896 11.7087 14.5047 11.4804 14.5047Z" fill="#CCCCCC"/>
<path d="M10.1714 8.26649C11.0249 8.26649 11.7187 7.57216 11.7187 6.71907V5.58546C11.7187 5.35658 11.5338 5.17165 11.3051 5.17165C11.0762 5.17165 10.8912 5.35658 10.8912 5.58546V6.71907C10.8912 7.11623 10.5686 7.43904 10.1714 7.43904C9.77411 7.43904 9.45148 7.11623 9.45148 6.71907V5.58546C9.45148 5.35658 9.26654 5.17165 9.03766 5.17165C8.80896 5.17165 8.62402 5.35658 8.62402 5.58546V6.71907C8.62366 7.57271 9.31781 8.26649 10.1714 8.26649Z" fill="#CCCCCC"/>
</svg>
