<svg width="24" height="24" viewBox="0 0 24 24" fill="none" xmlns="http://www.w3.org/2000/svg">
<g clip-path="url(#clip0_466_619)">
<path d="M23.8412 8.3159C22.8438 4.50566 20.2945 5.17271 16.0699 6.27831C15.4339 6.44457 14.5609 6.5482 13.6362 6.6577C12.8653 6.74925 12.0489 6.84813 11.2562 6.99297C10.9727 6.70274 10.6785 6.38854 10.3709 6.05803C9.22078 4.82097 7.91689 3.41875 6.54634 2.71013C4.43422 1.61772 2.71687 2.0081 1.14271 3.9395C-0.82055 6.34789 -0.20092 10.2923 2.59309 13.3947C2.55537 13.5659 2.52131 13.7419 2.49366 13.927C2.23384 15.6894 2.93257 17.4754 4.4626 18.9563C5.95381 20.3998 8.0663 21.3849 10.4112 21.7311C11.0156 21.8203 11.6173 21.8646 12.2094 21.8646C13.9145 21.8646 15.5387 21.4991 16.9076 20.7927C18.8 19.8168 19.985 18.3087 20.245 16.5463C20.3076 16.1235 20.3304 15.7414 20.3203 15.3904C23.1108 13.5518 24.4914 10.8008 23.8412 8.3159ZM2.89485 12.4109C0.68348 9.70622 0.214363 6.46379 1.82148 4.49211C2.65205 3.47331 3.45552 2.98039 4.37379 2.98039C4.91469 2.98039 5.4955 3.1516 6.14442 3.48723C7.38002 4.12627 8.62862 5.46898 9.73018 6.65404C9.89333 6.82945 10.0539 7.0023 10.211 7.16911C9.55678 7.33153 9.00966 7.52416 8.55281 7.75212C7.35109 8.35124 6.61153 9.12816 6.30153 10.1197C6.27663 10.1219 6.25484 10.1272 6.2303 10.1297C5.83845 10.1691 5.47883 10.2402 5.15016 10.3434C5.14009 10.3465 5.13002 10.35 5.11995 10.353C4.4236 10.578 3.86787 10.9504 3.44453 11.48C3.43666 11.4897 3.42933 11.5001 3.42183 11.5098C3.33082 11.6263 3.24586 11.7497 3.16713 11.8813C3.15486 11.9018 3.14131 11.9211 3.12941 11.9418C3.05378 12.074 2.9842 12.2131 2.9203 12.3602C2.91297 12.3775 2.9029 12.3929 2.89485 12.4109ZM19.3793 16.418C19.1614 17.8938 18.1413 19.1713 16.5067 20.0141C14.8238 20.8821 12.704 21.1831 10.5393 20.8645C8.37392 20.5452 6.43245 19.6439 5.07179 18.327C3.75013 17.0478 3.14222 15.5301 3.36012 14.0542C3.39601 13.8102 3.4416 13.5835 3.4958 13.3711C3.54231 13.1896 3.59687 13.021 3.6573 12.8617C3.66426 12.8434 3.67085 12.8249 3.67781 12.8071C3.73951 12.652 3.80873 12.5077 3.88527 12.3739C3.89351 12.3594 3.90193 12.3457 3.91017 12.3318C3.99073 12.1966 4.07826 12.071 4.17549 11.9577C4.1786 11.9542 4.18208 11.9511 4.18501 11.9476C4.287 11.8297 4.39778 11.7229 4.51899 11.6281C4.51973 11.6275 4.52028 11.6268 4.52119 11.6263C4.63765 11.5353 4.76527 11.456 4.90059 11.3842C4.91597 11.3763 4.9308 11.3675 4.946 11.3597C5.07783 11.2937 5.21864 11.2368 5.36879 11.1877C5.39168 11.1802 5.41475 11.1733 5.438 11.1663C5.58998 11.1203 5.7502 11.0813 5.92085 11.0517C5.94264 11.0477 5.9659 11.0451 5.98769 11.0416C6.16804 11.0127 6.35628 10.9903 6.55843 10.9781C6.65071 10.9724 6.7549 10.9759 6.85469 10.9759C6.96803 10.9751 7.08357 10.9781 7.20039 10.9843C7.32033 10.9913 7.44429 11.0004 7.57503 11.014C7.62923 11.0193 7.68269 11.0237 7.73689 11.0301C7.78157 11.0354 7.82497 11.0389 7.87001 11.0451C7.98811 11.0608 8.1086 11.0819 8.2289 11.1024C8.29811 11.1143 8.36623 11.1238 8.43581 11.137C8.54567 11.1575 8.657 11.1815 8.7676 11.2051C8.84597 11.2218 8.92342 11.2368 9.00179 11.2542C9.16896 11.2923 9.33705 11.3329 9.5046 11.3754C9.52272 11.3798 9.54103 11.3838 9.55898 11.3886C10.1361 11.536 10.7125 11.7054 11.2622 11.8656C12.1838 12.1348 13.0548 12.3885 13.7647 12.4936C16.0497 12.8306 17.5056 13.094 18.3717 13.5663C18.3773 13.5694 18.383 13.5723 18.3887 13.5754C19.0574 13.9453 19.3681 14.4428 19.433 15.2027L19.4509 15.4118C19.458 15.6985 19.4366 16.0294 19.3793 16.418ZM20.178 14.4311C20.1754 14.4228 20.172 14.4157 20.1692 14.408C20.1412 14.3168 20.1077 14.2308 20.0716 14.1462C20.0555 14.1077 20.0389 14.0693 20.0209 14.0321C19.9803 13.9471 19.9369 13.8644 19.888 13.786C19.8744 13.7642 19.8587 13.7435 19.8442 13.7221C19.6686 13.4592 19.4428 13.2303 19.1658 13.0323C19.151 13.0219 19.1365 13.0109 19.1215 13.0005C19.0748 12.9681 19.0345 12.9322 18.9845 12.9014C18.9333 12.8699 18.8747 12.8434 18.8208 12.8135C18.8199 12.8132 18.8186 12.8122 18.8177 12.8119C18.5224 12.6485 18.1853 12.5094 17.8015 12.3882C17.7433 12.3693 17.6869 12.3497 17.6268 12.3316C17.566 12.3136 17.5014 12.2966 17.4378 12.2796C17.2968 12.2406 17.1516 12.203 17.002 12.1675C16.9857 12.1637 16.9696 12.1602 16.9533 12.1562C16.0719 11.9509 15.0448 11.7973 13.8938 11.6275C13.731 11.6034 13.5564 11.5702 13.3716 11.5294C13.3696 11.529 13.3665 11.5281 13.3643 11.5278C12.8119 11.4056 12.173 11.2187 11.5056 11.0237C10.2346 10.652 8.83406 10.2442 7.54482 10.1294C7.48714 10.1233 7.42836 10.1167 7.37233 10.112C7.65816 9.48613 8.20876 8.98277 9.06826 8.55394C10.3121 7.93376 12.1331 7.71751 13.7396 7.52727C14.6951 7.41429 15.5974 7.30718 16.2921 7.12535C20.894 5.92107 22.2524 5.70134 22.9951 8.53801C23.5221 10.5535 22.4245 12.8144 20.178 14.4311Z" fill="#CCCCCC"/>
<path d="M6.10874 14.2289C6.04996 13.9944 5.81229 13.8517 5.57773 13.9103C5.34317 13.9689 5.2009 14.2066 5.25913 14.4411L5.69694 16.1916C5.74674 16.3905 5.9249 16.523 6.12101 16.523C6.15653 16.523 6.19187 16.519 6.22776 16.5099C6.46232 16.4513 6.60459 16.2136 6.54636 15.979L6.10874 14.2289Z" fill="#CCCCCC"/>
<path d="M15.7376 8.53946C15.6789 8.3049 15.4417 8.16226 15.2066 8.22086C14.9721 8.27963 14.8298 8.51712 14.888 8.75168L15.3258 10.5023C15.3756 10.701 15.5538 10.8336 15.7499 10.8336C15.7854 10.8336 15.8208 10.8296 15.8567 10.8206C16.0912 10.7618 16.2335 10.5243 16.1753 10.2896L15.7376 8.53946Z" fill="#CCCCCC"/>
<path d="M13.3187 18.2194L11.8193 19.2233C11.6184 19.3576 11.5646 19.6298 11.699 19.8303C11.7834 19.9563 11.9216 20.0246 12.063 20.0246C12.1467 20.0246 12.2316 20.0004 12.306 19.9506L13.8054 18.9467C14.0063 18.8123 14.0601 18.5402 13.9257 18.3397C13.7908 18.1388 13.5187 18.085 13.3187 18.2194Z" fill="#CCCCCC"/>
<path d="M4.37157 6.4576C4.45525 6.4576 4.54003 6.43361 4.61455 6.38363L6.11382 5.37966C6.31468 5.24526 6.36852 4.97317 6.23412 4.77266C6.09935 4.5718 5.82762 4.51833 5.62712 4.65236L4.12786 5.65633C3.92699 5.79055 3.87316 6.06283 4.00756 6.26333C4.09197 6.3893 4.23022 6.4576 4.37157 6.4576Z" fill="#CCCCCC"/>
<path d="M13.2446 15.5138C13.4367 15.5138 13.613 15.386 13.6665 15.1917C13.7304 14.9588 13.5934 14.7176 13.3601 14.6539L11.6199 14.1758C11.3866 14.1112 11.146 14.2489 11.0821 14.4821C11.0182 14.7151 11.1552 14.9562 11.3884 15.0201L13.1285 15.498C13.1671 15.509 13.2065 15.5138 13.2446 15.5138Z" fill="#CCCCCC"/>
<path d="M4.14658 9.60862C4.29196 9.60862 4.43424 9.53647 4.51736 9.40464C4.64645 9.20029 4.5853 8.93039 4.38077 8.80112L2.85477 7.83836C2.65115 7.71018 2.37997 7.77061 2.25125 7.97495C2.12216 8.1793 2.18332 8.44938 2.38767 8.57847L3.91385 9.54123C3.98563 9.58683 4.06656 9.60862 4.14658 9.60862Z" fill="#CCCCCC"/>
<path d="M21.1693 10.0721L19.833 11.2848C19.6541 11.4472 19.6406 11.7242 19.8028 11.9033C19.8896 11.9985 20.0081 12.0469 20.1273 12.0469C20.2322 12.0469 20.3373 12.0097 20.4208 11.9335L21.7569 10.7208C21.936 10.5584 21.9495 10.2814 21.7871 10.1023C21.6249 9.92339 21.3482 9.91021 21.1693 10.0721Z" fill="#CCCCCC"/>
</g>
<defs>
<clipPath id="clip0_466_619">
<rect width="24" height="24" fill="white"/>
</clipPath>
</defs>
</svg>
