<svg width="24" height="24" viewBox="0 0 24 24" fill="none" xmlns="http://www.w3.org/2000/svg">
<g clip-path="url(#clip0_466_125)">
<path d="M23.7383 11.4858C23.5573 11.2921 23.3018 11.1812 23.0376 11.1812H22.9589C23.3152 10.5677 23.5089 9.87158 23.5089 9.15436C23.5089 7.53754 22.5418 6.08203 21.0736 5.44244C21.0392 3.2373 19.2371 1.45312 17.0241 1.45312C14.8112 1.45312 13.0096 3.23621 12.9739 5.44043C12.8914 5.42102 12.806 5.40967 12.7194 5.40967C12.3591 5.40967 12.0198 5.58563 11.8127 5.87988L11.7118 6.02344C11.6287 6.14081 11.4727 6.18347 11.3421 6.12268L11.1832 6.04889C10.8561 5.89655 10.4747 5.91431 10.1622 6.0943C9.8498 6.27429 9.64417 6.59656 9.61176 6.95526L9.59602 7.12994C9.59034 7.19238 9.56269 7.27954 9.52662 7.37274C9.43378 7.32861 9.36732 7.23779 9.35761 7.12958L9.34186 6.95581C9.3111 6.61523 9.1291 6.33307 8.86835 6.15436L10.144 4.34418C10.3925 3.99115 10.4888 3.56104 10.4143 3.13385C10.3402 2.70575 10.105 2.33331 9.75239 2.08484C9.02125 1.57013 8.00794 1.74518 7.49305 2.4765L5.15845 5.78979C5.08045 5.90039 5.02296 6.02032 4.97553 6.14355C4.93781 6.1452 4.89771 6.14154 4.85633 6.1225L4.69758 6.04871C4.37037 5.89709 3.98823 5.91449 3.67658 6.09448C3.36439 6.27448 3.15894 6.59637 3.12653 6.95508L3.11079 7.12976C3.09779 7.27368 2.98389 7.38757 2.83997 7.40057L2.66566 7.41632C2.30695 7.44873 1.98469 7.65472 1.80469 7.96637C1.62434 8.27875 1.60731 8.66034 1.75892 8.9881L1.83234 9.1463C1.89313 9.27759 1.85139 9.43323 1.7331 9.51636L1.58991 9.61725C1.2953 9.82526 1.11933 10.1646 1.11933 10.5249C1.11933 10.7651 1.20374 10.9922 1.34309 11.1806H0.962044C0.697822 11.1806 0.44239 11.2917 0.261299 11.4855C0.0783766 11.6808 -0.0159227 11.9467 0.00220476 12.2139C0.242256 15.7593 2.49738 17.5395 5.81013 19.1215C6.17982 19.2982 6.48505 19.5917 6.67036 19.9493C6.85108 20.2987 6.82233 20.7493 6.59162 21.1329C6.41785 21.4215 6.41291 21.7689 6.57862 22.0624C6.74451 22.3557 7.04444 22.5304 7.38135 22.5304H16.6188C16.9556 22.5304 17.2555 22.3553 17.4214 22.0624C17.5871 21.7689 17.5823 21.4215 17.4044 21.1256C17.1777 20.749 17.1495 20.2987 17.3298 19.9497C17.5146 19.5923 17.8198 19.2982 18.1899 19.1215C21.5019 17.5395 23.7576 15.7597 23.998 12.2142C24.0156 11.9467 23.9207 11.6812 23.7383 11.4858ZM22.6987 9.15436C22.6987 9.89209 22.4454 10.6051 21.9822 11.1812H19.8615V9.55975C19.8615 9.33563 19.6802 9.15436 19.4561 9.15436C19.2319 9.15436 19.0507 9.33563 19.0507 9.55975V11.1812H17.6195C17.6523 11.1365 17.6807 11.0894 17.7063 11.0409C17.7074 11.0389 17.7091 11.0369 17.7103 11.0347C17.7459 10.9658 17.7715 10.892 17.7922 10.8171C17.7973 10.7985 17.8019 10.7798 17.8059 10.7604C17.8226 10.6833 17.8343 10.6051 17.8343 10.5249C17.8343 10.1642 17.6583 9.82526 17.3641 9.61853L17.2709 9.55243C17.3033 9.55042 17.3344 9.5451 17.3665 9.54272C17.4152 9.5387 17.4639 9.53375 17.512 9.52771C17.5919 9.51782 17.6708 9.50574 17.7492 9.49164C17.7953 9.48303 17.842 9.47534 17.8878 9.46527C17.9722 9.44696 18.0551 9.42426 18.1375 9.40082C18.1743 9.3902 18.2117 9.38177 18.2481 9.37006C18.3637 9.33307 18.4768 9.29205 18.5874 9.24554C18.6182 9.23254 18.6475 9.21716 18.6773 9.20343C18.7575 9.16736 18.8375 9.13019 18.9148 9.08881C18.9582 9.06555 19.0005 9.04047 19.0426 9.01575C19.1045 8.97968 19.1662 8.94324 19.2261 8.90387C19.2708 8.87476 19.3145 8.84473 19.3579 8.81396C19.4127 8.77496 19.4665 8.7345 19.5192 8.69312C19.5626 8.65906 19.6055 8.62555 19.6472 8.58984C19.6972 8.54718 19.7446 8.50269 19.7924 8.45801C19.8333 8.41992 19.8746 8.3822 19.914 8.34247C19.9591 8.29669 20.0008 8.24817 20.0433 8.2002C20.124 8.10992 20.2002 8.01617 20.2727 7.91858C20.2982 7.88416 20.3254 7.85083 20.3502 7.81512C20.3943 7.75159 20.4349 7.68549 20.4754 7.61975C20.4956 7.58661 20.5166 7.55365 20.5362 7.51978C20.577 7.44873 20.6148 7.37622 20.6512 7.3028C20.6655 7.27368 20.6796 7.24493 20.6933 7.21527C20.731 7.1347 20.7664 7.05322 20.7988 6.96973C20.8055 6.95178 20.8121 6.93329 20.8185 6.91534C20.892 6.71796 20.9544 6.51544 20.9965 6.30542C22.032 6.86517 22.6987 7.95428 22.6987 9.15436ZM17.0241 2.26373C18.8119 2.26373 20.2667 3.71851 20.2667 5.50653C20.2667 5.56769 20.2615 5.62775 20.2579 5.68817C20.2579 5.68817 20.2566 5.69055 20.2566 5.6922C20.2328 6.1181 20.1266 6.52057 19.9547 6.88586C19.953 6.88953 19.9514 6.89319 19.9497 6.89685C19.91 6.98071 19.8662 7.06183 19.8197 7.14166C19.814 7.15137 19.8087 7.16107 19.803 7.17078C19.7597 7.24347 19.7126 7.31396 19.6637 7.38245C19.6531 7.39746 19.643 7.41248 19.6324 7.42694C19.5866 7.48938 19.5375 7.54944 19.4874 7.60822C19.4716 7.62689 19.4561 7.64594 19.4399 7.66425C19.3925 7.71771 19.3422 7.76843 19.2911 7.8186C19.27 7.83966 19.2493 7.86072 19.2275 7.88141C19.1788 7.92682 19.1278 7.96948 19.0763 8.01196C19.0499 8.03394 19.0239 8.05609 18.9968 8.07678C18.947 8.11487 18.8956 8.15057 18.8438 8.18628C18.8124 8.2077 18.7817 8.22968 18.7493 8.24982C18.6986 8.28186 18.6464 8.31061 18.594 8.3399C18.5585 8.35968 18.5228 8.38037 18.4862 8.39905C18.4351 8.42505 18.3825 8.44812 18.3301 8.47119C18.29 8.48914 18.2503 8.50763 18.2093 8.52356C18.158 8.5437 18.1051 8.5611 18.0526 8.57867C18.0082 8.59369 17.965 8.60907 17.92 8.62189C17.8689 8.6369 17.8162 8.64825 17.764 8.66052C17.7156 8.67188 17.6679 8.68396 17.6188 8.6933C17.5682 8.70264 17.5166 8.70886 17.4657 8.716C17.4133 8.72333 17.3615 8.73102 17.3088 8.73596C17.2987 8.73669 17.2881 8.73669 17.2777 8.73761V8.73706C17.2784 8.73193 17.2784 8.72699 17.2793 8.72168C17.2925 8.64844 17.2971 8.5741 17.2954 8.49994C17.2951 8.47614 17.2923 8.45288 17.2903 8.42908C17.2853 8.37067 17.2756 8.31354 17.2619 8.25677C17.2562 8.23407 17.2518 8.21136 17.2445 8.18903C17.2205 8.11285 17.1909 8.03778 17.15 7.96729C16.9697 7.65527 16.6478 7.44965 16.2891 7.41742L16.1144 7.40149C16.0069 7.39178 15.9161 7.32568 15.8716 7.23248L16.7377 6.36676C16.8962 6.20819 16.8962 5.95203 16.7377 5.79364C16.5793 5.63507 16.3231 5.63507 16.1647 5.79364L15.5863 6.37207C15.5008 6.26385 15.4003 6.16644 15.2778 6.09558C15.1959 6.04816 15.1088 6.01373 15.0196 5.98883C14.9896 5.98041 14.9592 5.97949 14.9288 5.974C14.868 5.9621 14.8081 5.95129 14.7464 5.95001C14.7387 5.95001 14.731 5.94672 14.7233 5.94672C14.6766 5.94672 14.6309 5.95569 14.5847 5.96173C14.556 5.96539 14.5272 5.96539 14.4987 5.97107C14.4161 5.9881 14.335 6.01318 14.2568 6.04926L14.0988 6.12268C14.0581 6.14136 14.0151 6.14868 13.9719 6.14703C13.9693 6.14703 13.9673 6.14648 13.9649 6.14648C13.9224 6.14374 13.8798 6.13202 13.8409 6.11041C13.8016 5.90533 13.7816 5.70264 13.7816 5.50653C13.7814 3.71851 15.2358 2.26373 17.0241 2.26373ZM10.4033 7.20319L10.4193 7.0285C10.4277 6.93036 10.4821 6.84558 10.5676 6.79669C10.6525 6.74762 10.7531 6.74231 10.8422 6.78461L11.0021 6.85876C11.488 7.08325 12.0661 6.92798 12.3745 6.49072L12.4755 6.34717C12.5892 6.18549 12.8511 6.18658 12.9642 6.3468L13.0653 6.49017C13.272 6.78333 13.5994 6.94574 13.9396 6.95599H13.9514C14.0004 6.95673 14.0499 6.95599 14.0989 6.95032C14.122 6.94794 14.1447 6.94263 14.1678 6.9386C14.2009 6.93256 14.2339 6.92798 14.2667 6.91919C14.3251 6.90344 14.3826 6.88348 14.4386 6.85748L14.597 6.78369C14.6865 6.74249 14.7871 6.74689 14.8718 6.79578C14.957 6.84521 15.0114 6.92963 15.0198 7.02814L15.0355 7.2019C15.0842 7.73621 15.507 8.15936 16.0408 8.20715L16.2151 8.22308C16.3136 8.23151 16.3984 8.28589 16.4475 8.3714C16.4969 8.45636 16.5013 8.55688 16.4599 8.64569L16.3854 8.80627C16.3821 8.8136 16.381 8.82001 16.3781 8.82733C16.2338 9.15802 16.2638 9.5257 16.4348 9.82324C16.4372 9.82727 16.4398 9.83167 16.4421 9.83569C16.4639 9.87268 16.4872 9.90784 16.5134 9.94244C16.5277 9.96149 16.5434 9.97888 16.559 9.99719C16.5787 10.0199 16.5978 10.0433 16.6196 10.0644C16.661 10.1054 16.7053 10.1439 16.7538 10.1779L16.8977 10.2797C16.9779 10.3372 17.0241 10.4264 17.0241 10.5249C17.0241 10.6234 16.9779 10.7122 16.8977 10.769L16.7534 10.8702C16.7521 10.8712 16.7514 10.8723 16.7498 10.8735C16.697 10.9113 16.6489 10.9537 16.6038 11.0001C16.5859 11.0182 16.5705 11.0389 16.5538 11.0583C16.5297 11.087 16.5057 11.1163 16.4846 11.1475C16.4766 11.1594 16.4659 11.1694 16.4583 11.1815H11.1343C11.1671 11.137 11.1954 11.0896 11.2214 11.0409C11.2225 11.0389 11.2238 11.0372 11.2251 11.0352C11.2606 10.966 11.2866 10.8922 11.3073 10.8168C11.3126 10.7981 11.3167 10.78 11.3207 10.7613C11.3377 10.6846 11.3491 10.6064 11.3494 10.5266V10.5258C11.3494 10.4738 11.3381 10.4244 11.3313 10.3738C11.326 10.3365 11.3267 10.298 11.3174 10.2614C11.2879 10.1407 11.2315 10.0302 11.1643 9.92633C11.0881 9.80914 10.996 9.70166 10.8789 9.6189L10.7355 9.51764C10.6174 9.43451 10.5762 9.27924 10.6366 9.14886L10.7108 8.98956C10.7468 8.91174 10.7716 8.83026 10.7886 8.74768C10.7939 8.72278 10.7939 8.69824 10.7972 8.67334C10.8052 8.61511 10.8113 8.55707 10.81 8.49866C10.8093 8.46826 10.8045 8.43823 10.8012 8.40784C10.7955 8.35565 10.7886 8.30365 10.7756 8.25275C10.7672 8.21942 10.7558 8.18774 10.7445 8.15533C10.7347 8.1286 10.7298 8.10059 10.7185 8.0744C10.7115 8.05847 10.6994 8.04675 10.6917 8.03174C10.6816 8.01105 10.6763 7.98871 10.665 7.96857C10.6436 7.93158 10.6143 7.90118 10.5888 7.86731C10.5676 7.83893 10.5489 7.80927 10.5255 7.7829C10.4764 7.72815 10.4205 7.68164 10.3621 7.63824C10.3447 7.62524 10.3317 7.60693 10.3136 7.59521C10.3555 7.47198 10.3912 7.33649 10.4033 7.20319ZM8.15626 2.9436C8.4137 2.57794 8.92072 2.49042 9.28583 2.74786C9.4618 2.87183 9.57935 3.05823 9.61616 3.27228C9.65314 3.48669 9.60572 3.70203 9.48176 3.87744L7.90046 6.1214C7.90046 6.1214 7.90009 6.1214 7.90009 6.12195L7.14661 7.19073C7.02247 7.36707 6.83662 7.48462 6.62257 7.52142C6.40888 7.55713 6.19318 7.51099 6.01722 7.38647C6.01649 7.38611 6.01612 7.38519 6.0152 7.38483C5.95734 7.34381 5.90864 7.29401 5.86451 7.24127C5.85316 7.22791 5.84272 7.21381 5.8321 7.19952C5.79365 7.14642 5.76032 7.09021 5.7356 7.02979C5.73396 7.02576 5.73157 7.02246 5.72993 7.01843C5.70521 6.95435 5.69147 6.8866 5.68342 6.81775C5.6814 6.80035 5.68049 6.78296 5.67939 6.76538C5.67573 6.69653 5.67774 6.6264 5.69239 6.55627C5.71473 6.45007 5.75721 6.34827 5.82111 6.25763L8.15626 2.9436ZM2.19984 10.8699L2.05628 10.7688C1.97572 10.712 1.92957 10.6234 1.92957 10.5245C1.92957 10.4257 1.97572 10.3369 2.05628 10.2797L2.19892 10.179C2.63801 9.87067 2.79291 9.29315 2.56751 8.80499L2.49409 8.64697C2.45234 8.55743 2.45728 8.45691 2.50617 8.3714C2.55561 8.28625 2.64002 8.23187 2.73853 8.22327L2.91248 8.20752C3.4466 8.15973 3.86939 7.73694 3.9181 7.20282L3.93385 7.02814C3.94245 6.92999 3.99665 6.84558 4.08179 6.79614C4.16657 6.74707 4.26746 6.74268 4.35664 6.78406L4.5163 6.85822C4.63221 6.91187 4.75507 6.94299 4.87995 6.9527C4.88105 6.9613 4.88471 6.96973 4.88636 6.97833C4.88764 6.98566 4.88673 6.9928 4.88801 6.99976C4.89606 7.0459 4.91309 7.08856 4.925 7.13342C4.93873 7.18579 4.94917 7.23889 4.96784 7.28998C4.99018 7.34985 5.02094 7.40533 5.04969 7.4621C5.06928 7.50037 5.08411 7.53955 5.10682 7.57599C5.14655 7.64044 5.19526 7.69885 5.24378 7.75726C5.26447 7.78198 5.28077 7.80908 5.30256 7.8327C5.37727 7.9118 5.45948 7.98468 5.5503 8.04822C5.63013 8.10461 5.71528 8.15076 5.80189 8.19141C5.82954 8.20386 5.85755 8.21411 5.88593 8.22491C5.94782 8.24982 6.01063 8.27087 6.07508 8.28735C6.10749 8.29596 6.13953 8.30402 6.17286 8.31006C6.24134 8.32343 6.31055 8.33112 6.38068 8.33569C6.40705 8.33734 6.43268 8.34137 6.45887 8.34174C6.46583 8.34174 6.47224 8.34338 6.47919 8.34338C6.57276 8.34338 6.66688 8.33533 6.76081 8.31903C7.18854 8.24451 7.56098 8.0094 7.80945 7.65674L8.40565 6.81042C8.4734 6.85547 8.52576 6.92834 8.53455 7.02814L8.5503 7.2019C8.59901 7.73621 9.0218 8.159 9.55555 8.20715L9.72987 8.2229C9.76795 8.2262 9.80128 8.24194 9.83369 8.25787C9.84943 8.26593 9.86536 8.27325 9.87946 8.28406C9.90125 8.30035 9.9192 8.32141 9.93568 8.34338C9.9463 8.35712 9.95801 8.36975 9.96625 8.3855C9.98566 8.42358 9.9994 8.46368 10.0014 8.50507C10.0014 8.50671 10.001 8.50909 10.001 8.51074C10.0027 8.55615 9.99409 8.60229 9.97431 8.64514L9.89997 8.80444C9.81537 8.98737 9.78443 9.18256 9.80201 9.37189C9.80238 9.37445 9.80311 9.37683 9.80311 9.37958C9.80933 9.44 9.8194 9.49951 9.83515 9.55829C9.90034 9.80237 10.0488 10.0237 10.2676 10.1777L10.3662 10.2469L10.4112 10.2786C10.4921 10.3374 10.5385 10.4262 10.5385 10.5247C10.5385 10.5742 10.5271 10.6207 10.5051 10.6626C10.4991 10.6747 10.4861 10.682 10.478 10.6934C10.4586 10.7208 10.4399 10.7488 10.4112 10.7692L10.4059 10.7726L10.2673 10.8701C10.2118 10.9094 10.1607 10.9548 10.1137 11.0034C10.0992 11.0184 10.0875 11.0354 10.0739 11.0508C10.0432 11.0865 10.0135 11.1229 9.98713 11.1623C9.98273 11.1687 9.97669 11.1744 9.97266 11.1808H2.49537C2.41791 11.0596 2.31776 10.9528 2.19984 10.8699ZM17.8403 18.39C17.3123 18.6422 16.8754 19.0637 16.6093 19.5771C16.3001 20.1746 16.3387 20.928 16.7135 21.5506C16.7412 21.5969 16.7298 21.6374 16.7148 21.663C16.7003 21.6885 16.6718 21.7198 16.6179 21.7198H7.38117C7.3277 21.7198 7.29896 21.689 7.28431 21.663C7.26984 21.6374 7.25794 21.5969 7.28998 21.5435C7.66096 20.9277 7.69941 20.1742 7.39014 19.5764C7.12464 19.0627 6.6872 18.6412 6.15949 18.3895C3.01612 16.8889 1.02521 15.3232 0.811165 12.1595C0.807136 12.0991 0.83625 12.0582 0.853828 12.0392C0.87397 12.0172 0.909309 11.9918 0.96241 11.9918H23.0378C23.0905 11.9918 23.1259 12.0172 23.1466 12.0392C23.1639 12.0582 23.1931 12.0987 23.1887 12.1595C22.9744 15.3232 20.9833 16.8889 17.8403 18.39Z" fill="#CCCCCC"/>
<path d="M14.9971 18.8823H11.4679C11.2441 18.8823 11.0625 19.0636 11.0625 19.2877C11.0625 19.5119 11.2441 19.6931 11.4679 19.6931H14.9971C15.2208 19.6931 15.4025 19.5119 15.4025 19.2877C15.4025 19.0636 15.2208 18.8823 14.9971 18.8823Z" fill="#CCCCCC"/>
<path d="M8.91711 19.6931H10.2895C10.5132 19.6931 10.6949 19.5119 10.6949 19.2877C10.6949 19.0636 10.5132 18.8823 10.2895 18.8823H8.91711C8.69336 18.8823 8.51172 19.0636 8.51172 19.2877C8.5119 19.5119 8.69299 19.6931 8.91711 19.6931Z" fill="#CCCCCC"/>
<path d="M14.9971 20.0984H8.91711C8.69336 20.0984 8.51172 20.2797 8.51172 20.5038C8.51172 20.7279 8.69336 20.9092 8.91711 20.9092H14.9971C15.2209 20.9092 15.4025 20.7279 15.4025 20.5038C15.4025 20.2797 15.2209 20.0984 14.9971 20.0984Z" fill="#CCCCCC"/>
<path d="M16.1649 5.21998C16.244 5.29908 16.3477 5.33863 16.4515 5.33863C16.5553 5.33863 16.659 5.2989 16.7381 5.21998C16.8966 5.06141 16.8966 4.80524 16.7381 4.64686L15.5915 3.50062C15.4329 3.34205 15.1767 3.34205 15.0183 3.50062C14.8598 3.659 14.8598 3.91517 15.0183 4.07355L16.1649 5.21998Z" fill="#CCCCCC"/>
<path d="M18.4568 7.51247C18.5359 7.59158 18.6397 7.63131 18.7435 7.63131C18.8472 7.63131 18.951 7.59158 19.0301 7.51247C19.1885 7.3539 19.1881 7.09774 19.0301 6.93935L17.8833 5.79311C17.7249 5.63454 17.4688 5.63454 17.3102 5.79311C17.1518 5.9515 17.1518 6.20766 17.3102 6.36623L18.4568 7.51247Z" fill="#CCCCCC"/>
<path d="M17.5977 5.33863C17.7015 5.33863 17.8053 5.2989 17.8844 5.21998L19.031 4.07355C19.1891 3.91517 19.1896 3.659 19.031 3.50062C18.8725 3.34205 18.6163 3.34205 18.4579 3.50062L17.3113 4.64686C17.1527 4.80524 17.1527 5.06141 17.3113 5.21998C17.3902 5.2989 17.494 5.33863 17.5977 5.33863Z" fill="#CCCCCC"/>
<path d="M19.8613 8.74916C19.8613 8.97328 20.0424 9.15437 20.2665 9.15437H21.8879C22.1121 9.15437 22.2933 8.97328 22.2933 8.74916C22.2933 8.52504 22.1121 8.34377 21.8879 8.34377H20.2665C20.0424 8.34377 19.8613 8.52504 19.8613 8.74916Z" fill="#CCCCCC"/>
<path d="M12.3633 8.95182C12.4671 8.95182 12.571 8.91209 12.6499 8.83298L13.258 8.22507C13.4165 8.06651 13.4165 7.81034 13.258 7.65195C13.0994 7.49339 12.8432 7.49339 12.6848 7.65195L12.0769 8.25986C11.9184 8.41843 11.9184 8.6746 12.0769 8.83298C12.1559 8.91209 12.2595 8.95182 12.3633 8.95182Z" fill="#CCCCCC"/>
<path d="M14.3054 9.84633C14.3845 9.92543 14.4883 9.96516 14.5919 9.96516C14.6958 9.96516 14.7994 9.92543 14.8785 9.84633C15.0371 9.68794 15.0371 9.43178 14.8785 9.27321L14.4733 8.868C14.3147 8.70943 14.0586 8.70943 13.9002 8.868C13.7416 9.02638 13.7416 9.28255 13.9002 9.44112L14.3054 9.84633Z" fill="#CCCCCC"/>
<path d="M12.6845 9.67857L12.2791 10.0838C12.1205 10.2424 12.1205 10.4985 12.2791 10.6569C12.3582 10.736 12.4618 10.7757 12.5656 10.7757C12.6695 10.7757 12.7731 10.736 12.8522 10.6569L13.2576 10.2517C13.4162 10.0931 13.4162 9.83696 13.2576 9.67857C13.099 9.52 12.8425 9.52 12.6845 9.67857Z" fill="#CCCCCC"/>
</g>
<defs>
<clipPath id="clip0_466_125">
<rect width="24" height="24" fill="white"/>
</clipPath>
</defs>
</svg>
