<svg width="24" height="24" viewBox="0 0 24 24" fill="none" xmlns="http://www.w3.org/2000/svg">
<g clip-path="url(#clip0_466_517)">
<path d="M22.9644 6.55753C22.11 4.45364 20.5167 1.71693 17.7741 0.625439C15.7621 -0.175468 13.4306 0.0166105 10.845 1.19508C7.61208 2.6689 6.55445 5.31058 7.86861 8.63396C8.27602 9.66466 8.12129 10.7904 7.45405 11.6451C6.7859 12.5013 5.72828 12.9232 4.62726 12.7815C2.87128 12.5513 1.5238 12.9448 0.728388 13.921C0.119378 14.6688 -0.419503 16.0968 0.46911 18.653L0.485773 18.6945C0.549127 18.833 2.08923 22.0979 6.04176 23.4048C6.89558 23.6871 7.77998 23.7655 8.63527 23.8409L8.7704 23.853C9.05568 23.8785 9.54842 23.9112 10.1878 23.9112C11.784 23.9112 14.2965 23.7071 16.7919 22.6745C20.4273 21.1705 22.7337 18.4922 23.6469 14.7138C24.2886 12.0591 24.0524 9.2382 22.9644 6.55753ZM22.7467 14.4961C21.9072 17.9709 19.7846 20.4348 16.4378 21.8193C13.138 23.1838 9.79909 23.0144 8.85298 22.9305L8.7173 22.9184C7.87794 22.8443 7.0851 22.774 6.33308 22.5253C2.91724 21.3959 1.45861 18.5741 1.33538 18.3241C0.760249 16.6557 0.799616 15.3009 1.44653 14.5058C2.02862 13.7917 3.08661 13.5139 4.50586 13.6996C5.93995 13.8889 7.31251 13.3328 8.18428 12.2151C9.05532 11.0987 9.25856 9.63262 8.72939 8.29356C7.59212 5.4166 8.43312 3.31216 11.229 2.03774C13.5766 0.96803 15.6634 0.782361 17.4313 1.48585C19.8703 2.45632 21.3192 4.9689 22.1058 6.9058C23.1213 9.4063 23.3427 12.0304 22.7467 14.4961Z" fill="#CCCCCC"/>
<path d="M15.4939 8.72571C16.7705 8.72571 17.8091 7.68713 17.8091 6.41033C17.8091 5.13371 16.7705 4.09513 15.4939 4.09513C14.2173 4.09513 13.1787 5.13371 13.1787 6.41033C13.1787 7.68713 14.2173 8.72571 15.4939 8.72571ZM15.4939 5.02128C16.2598 5.02128 16.8831 5.64439 16.8831 6.41033C16.8831 7.17645 16.2598 7.79956 15.4939 7.79956C14.728 7.79956 14.1047 7.17645 14.1047 6.41033C14.1047 5.64439 14.728 5.02128 15.4939 5.02128Z" fill="#CCCCCC"/>
<path d="M22.1271 11.2529C22.0683 9.9285 21.7816 8.59256 21.2537 7.29196C19.2432 2.34205 15.9418 0.836181 11.4593 2.87672C10.5619 3.28614 7.83182 4.5309 9.30857 8.26572C9.84599 9.62619 9.69053 11.0885 8.88194 12.2763C7.96659 13.6223 6.38254 14.3265 4.74429 14.1103C3.52407 13.9473 2.60872 14.1896 2.18629 14.7847C1.7386 15.4147 1.74263 16.5062 2.19838 17.8568L2.22529 17.9204C2.45637 18.3713 3.75881 20.6699 6.71121 21.6466C7.3823 21.8683 8.11527 21.9331 8.89036 22.0016L9.02146 22.0131C9.41404 22.0485 9.83555 22.0661 10.2745 22.0661C19.0214 22.0661 21.2812 16.6238 21.8466 14.2835C22.0789 13.3218 22.1674 12.3332 22.1308 11.3377C22.1335 11.3084 22.1302 11.2811 22.1271 11.2529ZM11.8437 3.71955C13.0167 3.1847 14.0968 2.91389 15.0544 2.91389C17.3248 2.91389 19.1218 4.50453 20.3957 7.64022C20.7763 8.57791 21.018 9.53446 21.1352 10.4894C19.0612 9.90397 15.3879 11.7233 14.7747 12.0392C12.0052 12.9199 10.7225 11.6572 10.3706 11.2104C10.6553 10.1468 10.598 9.01004 10.1692 7.9255C9.15385 5.35506 10.4458 4.35676 11.8437 3.71955ZM9.64842 12.7972C9.78776 12.5925 9.90678 12.3796 10.0143 12.1628C10.5555 12.6588 11.5192 13.2667 13.0022 13.2667C13.6107 13.2667 14.3066 13.164 15.0956 12.9093C15.1202 12.9014 15.1438 12.8915 15.1671 12.8796C16.991 11.9295 20.1518 10.7756 21.213 11.5246C21.2321 12.3845 21.1468 13.2369 20.9468 14.0663C20.9422 14.0848 20.9366 14.1053 20.932 14.1242C19.9234 13.8404 17.4777 13.5557 13.4413 15.4916C12.0608 16.1537 10.869 16.283 9.89982 15.8769C8.96269 15.4843 8.43809 14.6688 8.20554 14.2104C8.76347 13.8428 9.25804 13.3709 9.64842 12.7972ZM9.10423 21.0905L8.97276 21.0788C8.25187 21.0154 7.57126 20.9552 7.00217 20.7671C4.4244 19.9142 3.25051 17.8782 3.06484 17.5272C2.66804 16.3326 2.74019 15.6052 2.94161 15.3208C3.14302 15.037 3.79323 14.9183 4.62344 15.0282C5.54959 15.1503 6.45853 15.0203 7.28232 14.6905C7.31015 14.8411 7.33927 15.0115 7.366 15.1952C7.60221 16.8058 8.50144 18.256 9.83281 19.1752C10.7857 19.8324 11.4299 20.4249 11.459 21.0996C11.0779 21.1242 10.6861 21.1399 10.2745 21.1399C9.8632 21.1395 9.46916 21.1227 9.10423 21.0905ZM12.3849 21.0169C12.3104 19.7619 11.0713 18.9044 10.3587 18.4125C9.54515 17.8515 8.92369 17.0541 8.56809 16.1404C8.84037 16.3651 9.15953 16.5692 9.53032 16.7261C10.7569 17.2452 12.2071 17.111 13.8423 16.3266C17.634 14.5076 19.8507 14.7916 20.6612 15.0124C19.8914 17.1314 17.8336 20.3509 12.3849 21.0169Z" fill="#CCCCCC"/>
</g>
<defs>
<clipPath id="clip0_466_517">
<rect width="24" height="24" fill="white"/>
</clipPath>
</defs>
</svg>
