<svg width="24" height="24" viewBox="0 0 24 24" fill="none" xmlns="http://www.w3.org/2000/svg">
<g clip-path="url(#clip0_466_511)">
<path d="M23.6934 3.39995C23.4956 3.15623 23.2307 2.99199 22.9352 2.9301C22.811 2.64574 22.5992 2.41759 22.3229 2.27001C21.7981 1.98931 21.1354 2.08397 20.7095 2.49779C20.3874 2.81126 20.2398 3.24449 20.3036 3.6876C20.3239 3.82823 20.3325 4.0952 20.1613 4.30339L18.8177 5.93339C18.7977 5.92972 18.7794 5.92478 18.7594 5.92112L18.7029 5.91141L18.6459 5.91782C18.5036 5.93375 18.3685 5.97111 18.2376 6.01871C17.9472 6.12418 17.6875 6.29831 17.4887 6.5391C17.4841 6.54477 17.4784 6.55008 17.4741 6.55576C17.3992 6.64566 17.3195 6.73117 17.2393 6.81613C17.182 6.87583 17.1238 6.93534 17.0608 6.99503C15.6089 6.59586 13.4124 6.64896 10.8297 8.86343C10.7834 8.90316 10.7312 8.95041 10.6735 9.00296C10.5699 9.09762 10.4461 9.20712 10.3099 9.31405C10.3103 9.14779 10.3026 8.98245 10.2806 8.82113C10.1187 7.62271 9.34694 6.58176 8.04891 5.81089C7.73891 5.62797 7.35494 5.62907 7.04787 5.81583C6.73824 6.00406 6.55935 6.34665 6.58041 6.70957C6.60036 7.05619 6.5209 7.47513 6.35903 7.9426C6.16219 7.8743 5.96133 7.83676 5.75131 7.83676C3.20706 7.83548 1.62705 9.50448 1.62705 12.1917C1.62705 12.4415 1.65214 12.6918 1.70103 12.935C1.8292 13.5712 1.84019 14.1268 1.7349 14.6332C1.66331 14.9769 1.62705 15.3279 1.62705 15.6762C1.62705 16.3255 1.79862 16.9116 2.12052 17.4318C1.86655 17.6708 1.66001 17.9592 1.50584 18.2825H0.784951C0.489603 18.2825 0.222453 18.4453 0.0873217 18.7081C-0.0476266 18.9708 -0.0249216 19.2828 0.146831 19.5233L1.06602 20.8103C1.57285 21.52 2.39627 21.9435 3.26785 21.9435H19.9183C20.7901 21.9435 21.6135 21.5202 22.1203 20.8103L23.0401 19.5233C23.2116 19.2828 23.2345 18.9708 23.0994 18.7081C22.9645 18.4453 22.6971 18.2825 22.4018 18.2825H21.2742C21.2233 18.1754 21.166 18.0738 21.1028 17.9755C22.2187 17.1178 22.9196 16.0631 23.1783 14.8306C23.5427 13.0961 21.9035 11.0056 20.2507 9.14541C20.3016 9.07949 20.3492 9.01284 20.4024 8.94821C20.4035 8.94693 20.4045 8.94528 20.4056 8.944L20.4541 8.87057C20.4698 8.83963 20.7505 8.27457 20.6949 7.62692L22.1108 5.90958C22.282 5.70121 22.5461 5.65891 22.6876 5.65195C23.1347 5.63053 23.5321 5.40256 23.7784 5.02683C24.103 4.52952 24.068 3.86082 23.6934 3.39995ZM19.3518 8.9916L19.2062 9.19851L19.2123 9.20547C18.5346 10.2537 18.1263 11.4079 18.0298 12.592C17.9781 13.2233 17.7372 13.8164 17.3331 14.3073C16.7891 14.9667 16.0195 15.3646 15.1664 15.4268C14.3135 15.4862 13.4937 15.206 12.858 14.6303C11.6563 13.5423 11.5136 11.6344 12.5403 10.3762C12.9929 9.82144 13.6019 9.45083 14.3016 9.30435C15.4291 9.06887 16.4314 8.59042 17.2593 7.90799L17.2609 7.90836L17.2768 7.89407C17.4587 7.74283 17.6319 7.58206 17.7963 7.41086C17.8873 7.31766 17.9695 7.22336 18.0506 7.12851C18.0717 7.10361 18.0953 7.08145 18.116 7.05619C18.2585 6.8837 18.4577 6.77072 18.6827 6.73282C18.7657 6.7482 18.8343 6.77054 18.9089 6.7905C19.0187 6.8198 19.1183 6.85367 19.2092 6.89102C19.2399 6.90403 19.2709 6.91666 19.2994 6.93094C19.3564 6.95804 19.4089 6.98734 19.4569 7.01828C19.5036 7.04886 19.5475 7.08109 19.5871 7.11551C19.6134 7.1384 19.6387 7.16147 19.6614 7.18637C19.7046 7.23361 19.7416 7.2836 19.772 7.33652C19.7903 7.3682 19.8074 7.40079 19.8213 7.43485C19.8246 7.44254 19.8275 7.45078 19.8302 7.45847C19.8458 7.49967 19.8586 7.54196 19.8678 7.58627L19.8685 7.58994C19.943 7.96255 19.794 8.3522 19.7444 8.46609C19.6048 8.6373 19.4754 8.81344 19.3518 8.9916ZM7.47048 6.5098C7.50069 6.49149 7.5624 6.4675 7.63362 6.50943C8.38454 6.95566 9.31325 7.73697 9.47383 8.9288C9.51613 9.24209 9.50313 9.5704 9.44014 9.91171L9.42549 9.9833C9.27937 10.691 8.91133 11.4578 8.32759 12.276C8.32265 12.2827 8.31752 12.2902 8.31258 12.297C8.09011 12.607 7.83541 12.9243 7.55141 13.2486C7.52303 13.281 7.49373 13.314 7.46444 13.3469C7.32564 13.5028 7.18209 13.6593 7.0292 13.8181C6.76845 14.0885 6.51302 14.3005 6.26931 14.4505C5.8738 14.6939 5.50979 14.7724 5.20236 14.6796C5.19412 14.6772 5.18533 14.6772 5.17709 14.6743C4.80539 14.5474 4.52871 14.1361 4.4725 13.6256C4.47049 13.6086 4.47378 13.5903 4.47214 13.5731C4.4498 13.275 4.51205 12.9666 4.63034 12.6554C4.85336 12.0696 5.2637 11.4749 5.64437 10.9274C5.68063 10.8748 5.71285 10.8261 5.74819 10.7749C5.84707 10.632 5.94668 10.4894 6.03585 10.3526C6.05398 10.3246 6.06991 10.2973 6.08785 10.2693C6.15615 10.1627 6.22536 10.0545 6.29458 9.93936C6.35189 9.84414 6.40481 9.75021 6.45754 9.65628C6.48574 9.60702 6.51375 9.56033 6.5414 9.51016C6.7018 9.21774 6.8417 8.93264 6.95888 8.65762L7.09383 8.3403L7.08211 8.33298C7.2903 7.76883 7.42324 7.1937 7.39284 6.66233C7.38717 6.5737 7.43917 6.52884 7.47048 6.5098ZM2.91538 17.8317C2.9943 17.7768 3.07559 17.7272 3.15982 17.6845C3.17282 17.6779 3.18674 17.6735 3.19974 17.6669C3.27005 17.6332 3.34219 17.6043 3.41544 17.579C3.44675 17.5686 3.47842 17.5596 3.5101 17.5503C3.57108 17.5327 3.63333 17.5181 3.69614 17.5063C3.72617 17.5007 3.75619 17.4941 3.78714 17.4901C3.87942 17.4774 3.97299 17.4688 4.06784 17.4688C4.1647 17.4688 4.25992 17.4778 4.35422 17.4913C4.38223 17.4954 4.40988 17.501 4.43771 17.5063C4.50546 17.519 4.57266 17.5351 4.63858 17.5543C4.66586 17.5624 4.69351 17.5699 4.72043 17.5792C4.80209 17.6072 4.88192 17.6395 4.95919 17.6768C4.9656 17.6801 4.97219 17.6821 4.9786 17.6854C5.06155 17.7274 5.14047 17.7757 5.21664 17.8282C5.23861 17.8433 5.25985 17.8603 5.28128 17.8762C5.33584 17.9174 5.38876 17.9608 5.43911 18.0068C5.46035 18.026 5.48141 18.045 5.50137 18.0654C5.55905 18.123 5.61416 18.184 5.66451 18.2488C5.67184 18.2582 5.6799 18.2662 5.68722 18.2758C5.68887 18.2778 5.69015 18.2802 5.69125 18.2822H2.44315C2.57572 18.1068 2.73593 17.9559 2.91538 17.8317ZM7.35292 18.249C7.40383 18.1844 7.45821 18.1234 7.51607 18.0656C7.5364 18.0456 7.55745 18.0266 7.57833 18.0071C7.62868 17.9606 7.68123 17.9172 7.73616 17.8766C7.75759 17.8603 7.77846 17.8434 7.8008 17.8284C7.87679 17.7761 7.95571 17.7272 8.03884 17.6856C8.04524 17.6825 8.05184 17.6805 8.05824 17.6772C8.13515 17.6393 8.21535 17.6071 8.29701 17.5794C8.32393 17.5701 8.35158 17.5627 8.37886 17.5547C8.44478 17.5351 8.51143 17.5194 8.57973 17.5065C8.60738 17.5014 8.63503 17.4955 8.66322 17.4915C8.75716 17.4782 8.85274 17.4692 8.9496 17.4692C9.04646 17.4692 9.14149 17.4782 9.23598 17.4915C9.26399 17.4955 9.29164 17.5014 9.31929 17.5065C9.38722 17.5192 9.45442 17.5355 9.52034 17.5547C9.54762 17.5627 9.57527 17.5701 9.602 17.5794C9.68385 17.6076 9.7635 17.6396 9.84077 17.6772C9.84736 17.6803 9.85396 17.6823 9.86036 17.6856C9.94331 17.7275 10.0222 17.7761 10.0984 17.8284C10.1204 17.8434 10.1414 17.8607 10.163 17.8766C10.2176 17.9176 10.2703 17.9612 10.3209 18.0071C10.3421 18.0262 10.3632 18.0452 10.3831 18.0656C10.4408 18.1234 10.4957 18.1844 10.5463 18.249C10.5536 18.2585 10.5617 18.2666 10.569 18.2759C10.5706 18.278 10.5719 18.2803 10.573 18.2823H7.32692C7.32857 18.2803 7.32967 18.278 7.33095 18.2759C7.33754 18.2666 7.3456 18.2584 7.35292 18.249ZM12.2343 18.249C12.2852 18.1844 12.3398 18.1234 12.3975 18.0656C12.4178 18.0456 12.439 18.0266 12.4597 18.0071C12.5101 17.9606 12.5626 17.9172 12.6176 17.8766C12.639 17.8603 12.6599 17.8434 12.6822 17.8284C12.7582 17.7761 12.8371 17.7272 12.9202 17.6856C12.9266 17.6825 12.9332 17.6805 12.9396 17.6772C13.0165 17.6393 13.0967 17.6071 13.1784 17.5794C13.2053 17.5701 13.233 17.5627 13.2603 17.5547C13.3262 17.5351 13.3928 17.5194 13.4613 17.5065C13.489 17.5014 13.5166 17.4955 13.5446 17.4915C13.6386 17.4782 13.7341 17.4692 13.831 17.4692C13.9279 17.4692 14.0229 17.4782 14.1174 17.4915C14.1454 17.4955 14.173 17.5014 14.2007 17.5065C14.2686 17.5192 14.3358 17.5355 14.4017 17.5547C14.429 17.5627 14.4567 17.5701 14.4836 17.5794C14.5652 17.6076 14.6451 17.6396 14.7223 17.6772C14.7288 17.6803 14.7353 17.6823 14.7418 17.6856C14.8247 17.7275 14.9036 17.7761 14.9798 17.8284C15.0018 17.8434 15.023 17.8607 15.0444 17.8766C15.099 17.9176 15.1519 17.9612 15.2023 18.0071C15.2235 18.0262 15.2446 18.0452 15.2645 18.0656C15.3222 18.1234 15.3771 18.1844 15.4277 18.249C15.435 18.2585 15.4431 18.2666 15.4504 18.2759C15.452 18.278 15.4533 18.2803 15.4544 18.2823H12.2083C12.21 18.2803 12.2112 18.278 12.2123 18.2759C12.2189 18.2666 12.227 18.2584 12.2343 18.249ZM17.1157 18.249C17.1666 18.1844 17.221 18.1234 17.2789 18.0656C17.2992 18.0456 17.3202 18.0266 17.3411 18.0071C17.3915 17.9606 17.444 17.9172 17.499 17.8766C17.5204 17.8603 17.5412 17.8434 17.5636 17.8284C17.6396 17.7761 17.7185 17.7272 17.8016 17.6856C17.808 17.6825 17.8146 17.6805 17.821 17.6772C17.8979 17.6393 17.9781 17.6071 18.0598 17.5794C18.0867 17.5701 18.1144 17.5627 18.1417 17.5547C18.2076 17.5351 18.2742 17.5194 18.3425 17.5065C18.3702 17.5014 18.3978 17.4955 18.426 17.4915C18.5199 17.4782 18.6155 17.4692 18.7124 17.4692C18.788 17.4692 18.8629 17.4745 18.9372 17.4825C18.9775 17.4869 19.0167 17.4952 19.0564 17.5021C19.0883 17.5073 19.12 17.5122 19.1509 17.5192C19.2049 17.5313 19.2582 17.5468 19.3111 17.5635C19.3245 17.5675 19.3384 17.5715 19.352 17.5761C19.4157 17.5975 19.4787 17.6224 19.5402 17.6501C19.7989 17.768 20.034 17.941 20.2281 18.1606L20.3358 18.2827H17.089C17.0906 18.2807 17.0917 18.2781 17.093 18.2761C17.1001 18.2666 17.1084 18.2584 17.1157 18.249ZM22.3448 19.0959L21.4582 20.3373C21.1034 20.8337 20.5279 21.1298 19.918 21.1298H3.26804C2.6583 21.1298 2.0828 20.8334 1.72794 20.3373L0.841165 19.0959H21.5849H22.3448ZM22.3814 14.6636C22.161 15.7119 21.5536 16.6183 20.5746 17.3602C20.5539 17.3423 20.5314 17.3265 20.5103 17.309C20.422 17.2366 20.3305 17.1691 20.234 17.1077C20.1853 17.0762 20.1357 17.0466 20.0851 17.0182C20.0339 16.9896 19.9835 16.9609 19.9306 16.9356C19.8378 16.8907 19.7418 16.853 19.6451 16.8184C19.6056 16.8045 19.5657 16.7911 19.5254 16.7789C19.4137 16.7446 19.2996 16.717 19.1842 16.6972C19.159 16.6932 19.1333 16.6903 19.1077 16.6866C18.9772 16.6679 18.845 16.6553 18.7115 16.6553C18.5716 16.6553 18.4344 16.6679 18.2989 16.6879C18.255 16.6943 18.2123 16.7053 18.1687 16.7139C18.0781 16.7318 17.9886 16.7518 17.9007 16.7781C17.8514 16.7928 17.804 16.8104 17.7558 16.8274C17.6758 16.8563 17.5973 16.888 17.5204 16.9239C17.4735 16.9453 17.4272 16.9678 17.3812 16.9918C17.3043 17.0328 17.2307 17.0781 17.1578 17.126C17.1181 17.152 17.0778 17.1764 17.0392 17.2042C16.9529 17.2672 16.8711 17.3359 16.7922 17.4084C16.7722 17.4267 16.7504 17.4421 16.7308 17.4613C16.6356 17.554 16.5474 17.6536 16.4651 17.7594C16.4395 17.7924 16.4184 17.8277 16.3945 17.8619C16.3525 17.9209 16.3086 17.9782 16.271 18.0405C16.2337 17.9782 16.1898 17.9213 16.1478 17.8623C16.1238 17.8281 16.1022 17.7924 16.0766 17.7594C15.9944 17.6536 15.9061 17.554 15.8109 17.4617C15.7915 17.443 15.7695 17.4271 15.7496 17.4088C15.6706 17.3364 15.5892 17.2676 15.5026 17.2046C15.4643 17.1766 15.4236 17.1526 15.3839 17.1264C15.311 17.0788 15.2374 17.0332 15.1605 16.9922C15.1149 16.9678 15.0686 16.9459 15.0214 16.9239C14.9445 16.888 14.8661 16.8563 14.7859 16.8274C14.7379 16.8104 14.6903 16.793 14.6411 16.7781C14.5532 16.7518 14.4636 16.7318 14.373 16.7139C14.3294 16.7053 14.2867 16.6945 14.2428 16.6879C14.1073 16.6679 13.9698 16.6553 13.8303 16.6553C13.6907 16.6553 13.5532 16.6679 13.4177 16.6879C13.3738 16.6943 13.3311 16.7053 13.2875 16.7139C13.1969 16.7318 13.1074 16.7518 13.0195 16.7781C12.9702 16.7928 12.9228 16.8104 12.8746 16.8274C12.7946 16.8563 12.7161 16.888 12.6392 16.9239C12.5923 16.9453 12.546 16.9678 12.5 16.9918C12.4231 17.0328 12.3495 17.0781 12.2766 17.126C12.2369 17.152 12.1966 17.1764 12.158 17.2042C12.0717 17.2672 11.9899 17.3359 11.911 17.4084C11.891 17.4267 11.8692 17.4421 11.8496 17.4613C11.7544 17.554 11.6661 17.6536 11.5839 17.7594C11.5583 17.7924 11.5371 17.8277 11.5133 17.8619C11.4708 17.9209 11.4268 17.9784 11.3895 18.0405C11.3521 17.9784 11.3082 17.9214 11.2662 17.8625C11.2423 17.8282 11.2206 17.7924 11.195 17.7596C11.1128 17.6537 11.0245 17.554 10.9293 17.4617C10.9099 17.443 10.8879 17.4272 10.868 17.4089C10.7891 17.3364 10.7076 17.2678 10.621 17.2046C10.5827 17.1766 10.5421 17.1526 10.5023 17.1266C10.4295 17.079 10.3558 17.0334 10.2789 16.9924C10.2333 16.9678 10.187 16.9459 10.1398 16.9239C10.0629 16.8882 9.98451 16.8563 9.90431 16.8276C9.85634 16.8104 9.80873 16.793 9.75947 16.7783C9.67158 16.7518 9.58204 16.7318 9.49141 16.7139C9.44783 16.7054 9.40516 16.6945 9.36122 16.6879C9.22572 16.6679 9.08821 16.6553 8.94868 16.6553C8.80916 16.6553 8.67165 16.6679 8.53615 16.6879C8.4922 16.6945 8.44954 16.7054 8.40596 16.7139C8.31532 16.7318 8.22579 16.7518 8.1379 16.7783C8.08864 16.793 8.04122 16.8104 7.99306 16.8276C7.91304 16.8563 7.83449 16.8882 7.75759 16.9239C7.71071 16.9455 7.66439 16.9678 7.61843 16.9918C7.54152 17.033 7.46791 17.0781 7.39504 17.126C7.35531 17.1522 7.31502 17.1766 7.27639 17.2042C7.19014 17.2672 7.1083 17.3361 7.02938 17.4084C7.00942 17.4267 6.98763 17.4423 6.96804 17.4613C6.87282 17.554 6.78457 17.6537 6.70235 17.7596C6.67672 17.7925 6.65566 17.8279 6.63167 17.8621C6.58938 17.9211 6.54525 17.9784 6.5079 18.0406C6.47054 17.9784 6.4266 17.9214 6.38467 17.8625C6.36068 17.8282 6.33907 17.7925 6.31344 17.7596C6.23122 17.6537 6.14297 17.5541 6.04775 17.4619C6.02834 17.443 6.00637 17.4272 5.98641 17.4089C5.90749 17.3366 5.82601 17.2678 5.7394 17.2048C5.70114 17.1766 5.66049 17.1526 5.62075 17.1266C5.54788 17.079 5.47427 17.0334 5.39736 16.9924C5.35177 16.968 5.30545 16.946 5.2582 16.9241C5.1813 16.8882 5.10293 16.8565 5.02273 16.8276C4.97476 16.8106 4.92715 16.793 4.8779 16.7783C4.79001 16.752 4.70047 16.732 4.60983 16.7141C4.56625 16.7054 4.52359 16.6945 4.47964 16.6881C4.34414 16.6681 4.20663 16.6555 4.06711 16.6555C3.93088 16.6555 3.79629 16.6681 3.66318 16.6871C3.62747 16.6924 3.59195 16.6998 3.55661 16.7064C3.45572 16.7247 3.35611 16.7487 3.25815 16.778C3.22501 16.7877 3.19223 16.797 3.15927 16.808C3.04282 16.8475 2.92856 16.8931 2.81797 16.9479C2.80936 16.9519 2.80039 16.9552 2.79196 16.9592C2.78702 16.9618 2.78171 16.9633 2.77677 16.9658C2.55063 16.5842 2.44004 16.1591 2.44004 15.6762C2.44004 15.3834 2.47062 15.0884 2.53067 14.7993C2.65885 14.1826 2.64841 13.5203 2.49771 12.7738C2.45908 12.583 2.44004 12.3875 2.44004 12.1917C2.44004 11.1268 2.76267 8.64901 5.75039 8.64901C5.85165 8.64901 5.94888 8.6633 6.04501 8.69131C6.02908 8.72464 6.01186 8.75796 5.99539 8.79184C5.93093 8.92038 5.86227 9.05056 5.78866 9.18313C5.75771 9.23843 5.72805 9.29336 5.69546 9.34939C5.58926 9.5325 5.47702 9.71835 5.35324 9.9075C5.2366 10.0864 5.10769 10.2721 4.97549 10.4619C4.48037 11.1742 3.94058 11.9561 3.73587 12.7855C3.69577 12.9478 3.66519 13.1113 3.65384 13.2772C3.64395 13.422 3.64615 13.5681 3.66226 13.7153C3.75473 14.5505 4.23428 15.2126 4.9136 15.4437C4.98025 15.4666 5.05807 15.4869 5.14431 15.5028C5.15072 15.5039 5.15731 15.5048 5.16372 15.5059C5.24795 15.5202 5.34042 15.5288 5.44131 15.5295C5.4457 15.5295 5.449 15.5308 5.45339 15.5308C5.45742 15.5308 5.462 15.5301 5.46603 15.5301C5.52737 15.5295 5.59127 15.5264 5.65847 15.5189C5.66342 15.5186 5.66854 15.5173 5.67349 15.5169C5.73446 15.5096 5.79836 15.4988 5.86428 15.4845C5.88058 15.4808 5.89687 15.4772 5.91354 15.4733C5.98257 15.4567 6.05343 15.4373 6.12704 15.412C6.13107 15.4107 6.13473 15.4096 6.13894 15.4083C6.21621 15.3814 6.29623 15.3477 6.37807 15.3098C6.39712 15.3014 6.41634 15.2911 6.43539 15.2818C6.50332 15.2485 6.57253 15.2109 6.64339 15.1696C6.6617 15.1586 6.67983 15.1489 6.69832 15.1373C6.78493 15.0841 6.87319 15.0251 6.96346 14.9584C6.98049 14.9458 6.9977 14.9315 7.01473 14.9185C7.08999 14.8612 7.16689 14.7986 7.24471 14.731C7.27034 14.7087 7.29598 14.6867 7.32198 14.6631C7.41738 14.5769 7.51424 14.4853 7.61312 14.3824C7.76857 14.2209 7.91506 14.061 8.05733 13.9021C8.09523 13.8598 8.13185 13.8179 8.16847 13.7756C8.28365 13.6441 8.39369 13.5136 8.49953 13.3837C8.52351 13.3544 8.54842 13.3248 8.57185 13.2955C8.70003 13.1356 8.82124 12.9771 8.93513 12.8196C8.94978 12.7993 8.96333 12.7793 8.97743 12.7594C9.07704 12.6198 9.17116 12.4812 9.25978 12.3437C9.27846 12.3144 9.29786 12.2851 9.31618 12.2558C9.51228 11.9442 9.67946 11.6384 9.81733 11.3385C9.8296 11.3121 9.84095 11.2861 9.85231 11.2595C9.91127 11.127 9.9651 10.9951 10.0127 10.8651C10.0191 10.8472 10.027 10.8285 10.0334 10.8106C10.0863 10.6613 10.1319 10.5132 10.1693 10.3667C10.17 10.3638 10.1709 10.3614 10.1718 10.3587C10.6314 10.141 10.9791 9.82327 11.2199 9.60372C11.2705 9.55777 11.316 9.51583 11.3571 9.48031C12.996 8.07535 14.6603 7.45828 16.2211 7.65805C15.6051 8.05667 14.9038 8.34744 14.1333 8.50894C13.2621 8.69076 12.472 9.1716 11.9082 9.86263C10.6124 11.4503 10.7926 13.86 12.3107 15.2338C13.04 15.8945 13.9617 16.2492 14.9324 16.2492C15.029 16.2492 15.1268 16.2459 15.2244 16.2389C16.3011 16.1605 17.2726 15.6581 17.9593 14.825C18.4696 14.2055 18.7739 13.4563 18.8395 12.6585C18.9191 11.6794 19.2388 10.7194 19.7729 9.83462C20.9085 11.1158 22.6768 13.2583 22.3814 14.6636ZM23.0967 4.58116C22.9948 4.73661 22.8313 4.83054 22.6479 4.83952C22.1707 4.86277 21.7567 5.05906 21.482 5.39231L20.3612 6.75168C20.1877 6.52353 19.9533 6.33677 19.6565 6.19376L20.7884 4.82084C21.0631 4.48759 21.177 4.04393 21.1087 3.57115C21.0827 3.38933 21.1437 3.21025 21.2766 3.08098C21.4487 2.91307 21.7274 2.87389 21.9392 2.98741C22.0544 3.04893 22.1386 3.1392 22.1899 3.25676C22.2941 3.49351 22.4983 3.66197 22.7517 3.71928C22.8753 3.74656 22.9798 3.81212 23.0617 3.91301L23.062 3.91374C23.2138 4.09922 23.2285 4.38029 23.0967 4.58116Z" fill="#CCCCCC"/>
</g>
<defs>
<clipPath id="clip0_466_511">
<rect width="24" height="24" fill="white"/>
</clipPath>
</defs>
</svg>
