<?xml version="1.0" encoding="utf-8"?>
<svg style="display: none;" xmlns="http://www.w3.org/2000/svg">
    <defs>
        <symbol id="home" viewBox="0 0 24 24">
            <path d="M12 3L2 12h3v8h14v-8h3L12 3zm0 2.5L18.5 12H17v6H7v-6H5.5L12 5.5z"/>
        </symbol>
        <symbol id="apple-pay" viewBox="0 0 45 32">
            <rect x="0.5" y="0.5" width="44" height="30.7647" rx="4.79412" fill="#1A1A1A" stroke="#333333"/>
            <path fill-rule="evenodd" clip-rule="evenodd" d="M12.5076 11.0424C12.1299 11.5081 11.5255 11.8755 10.9212 11.823C10.8456 11.1932 11.1415 10.5241 11.4877 10.1109C11.8655 9.632 12.5265 9.29089 13.0615 9.26465C13.1245 9.92063 12.879 10.5635 12.5076 11.0424ZM13.0545 11.9476C12.522 11.9157 12.0362 12.1144 11.6438 12.275C11.3913 12.3783 11.1775 12.4658 11.0148 12.4658C10.8322 12.4658 10.6096 12.3736 10.3596 12.2702C10.032 12.1345 9.65749 11.9795 9.26475 11.9869C8.36453 12.0001 7.52727 12.5314 7.06773 13.3776C6.12345 15.0701 6.82221 17.5759 7.73502 18.9535C8.18197 19.6357 8.71707 20.3835 9.42213 20.3573C9.73231 20.3451 9.95544 20.2464 10.1864 20.1443C10.4522 20.0268 10.7284 19.9046 11.1596 19.9046C11.5759 19.9046 11.84 20.0236 12.0935 20.1377C12.3345 20.2463 12.566 20.3505 12.9097 20.3441C13.6399 20.331 14.0995 19.6619 14.5464 18.9797C15.0288 18.2475 15.2407 17.5329 15.2729 17.4245L15.2767 17.4119C15.2759 17.4111 15.2699 17.4083 15.2594 17.4032C15.0982 17.3263 13.8658 16.7384 13.8539 15.1619C13.8421 13.8386 14.8315 13.1682 14.9872 13.0627C14.9967 13.0562 15.0031 13.0519 15.006 13.0496C14.3764 12.0788 13.3944 11.9738 13.0545 11.9476ZM18.1086 20.272V10.0452H21.7913C23.6924 10.0452 25.0207 11.4097 25.0207 13.4039C25.0207 15.398 23.6672 16.7756 21.7409 16.7756H19.632V20.272H18.1086ZM19.6337 11.3835H21.3901C22.7121 11.3835 23.4675 12.1182 23.4675 13.4105C23.4675 14.7027 22.7121 15.444 21.3838 15.444H19.6337V11.3835ZM30.0505 19.0453C29.6476 19.8456 28.76 20.3507 27.8031 20.3507C26.3867 20.3507 25.3983 19.4717 25.3983 18.1466C25.3983 16.8347 26.3552 16.0803 28.1241 15.9688L30.0253 15.8507V15.2865C30.0253 14.4535 29.5028 14.0008 28.5711 14.0008C27.8031 14.0008 27.2428 14.4141 27.1295 15.0438H25.7571C25.8012 13.7188 26.9973 12.7545 28.6152 12.7545C30.3589 12.7545 31.4921 13.7056 31.4921 15.1816V20.272H30.0819V19.0453H30.0505ZM28.213 19.1372C27.4009 19.1372 26.8847 18.7304 26.8847 18.1073C26.8847 17.4644 27.382 17.0905 28.3326 17.0315L30.026 16.9199V17.4972C30.026 18.4549 29.2454 19.1372 28.213 19.1372ZM36.1713 20.6721C35.5607 22.463 34.8619 23.0534 33.3763 23.0534C33.263 23.0534 32.8853 23.0402 32.7971 23.014V21.7873C32.8916 21.8004 33.1245 21.8136 33.2441 21.8136C33.9177 21.8136 34.2954 21.5184 34.5283 20.7509L34.6668 20.2982L32.0858 12.8529H33.6784L35.4726 18.8944H35.5041L37.2982 12.8529H38.8468L36.1713 20.6721Z" fill="white"/>
        </symbol>
        <symbol id="visa" viewBox="0 0 45 32">
            <rect x="0.5" y="0.5" width="44" height="30.7647" rx="4.79412" fill="#1A1A1A" stroke="#333333"/>
            <path fill-rule="evenodd" clip-rule="evenodd" d="M14.2298 20.989H11.5037L9.45943 12.9606C9.3624 12.5913 9.15638 12.2648 8.85333 12.1109C8.09703 11.7242 7.26364 11.4165 6.35449 11.2613V10.9522H10.7461C11.3522 10.9522 11.8067 11.4165 11.8825 11.9557L12.9432 17.7469L15.668 10.9522H18.3184L14.2298 20.989ZM19.8327 20.989H17.2581L19.3781 10.9522H21.9527L19.8327 20.989ZM25.2856 13.7327C25.3614 13.1921 25.8159 12.883 26.3463 12.883C27.1797 12.8054 28.0875 12.9606 28.8451 13.346L29.2997 11.185C28.5421 10.8759 27.7087 10.7207 26.9524 10.7207C24.4535 10.7207 22.6352 12.1109 22.6352 14.0404C22.6352 15.5083 23.9232 16.279 24.8323 16.7433C25.8159 17.2063 26.1947 17.5154 26.119 17.9783C26.119 18.6728 25.3614 18.9819 24.6051 18.9819C23.6959 18.9819 22.7868 18.7504 21.9547 18.3637L21.5001 20.526C22.4093 20.9114 23.3929 21.0666 24.302 21.0666C27.1039 21.1429 28.8451 19.7539 28.8451 17.6693C28.8451 15.044 25.2856 14.8901 25.2856 13.7327ZM37.8554 20.989L35.8111 10.9522H33.6153C33.1608 10.9522 32.7062 11.2613 32.5547 11.7242L28.7692 20.989H31.4196L31.9486 19.5225H35.205L35.5081 20.989H37.8554ZM33.9923 13.6551L34.7486 17.4378H32.6286L33.9923 13.6551Z" fill="white"/>
        </symbol>
        <symbol id="discover" viewBox="0 0 45 32">
            <rect x="0.5" y="0.5" width="44" height="30.7647" rx="4.79412" fill="#1A1A1A" stroke="#333333"/>
            <path d="M18.5293 30.6762L43.6764 23.0659V26.7056C43.6764 28.8985 41.8987 30.6762 39.7058 30.6762H18.5293Z" fill="#FD6020"/>
            <path fill-rule="evenodd" clip-rule="evenodd" d="M38.9044 12.0583C40.2878 12.0583 41.0488 12.6983 41.0488 13.9072C41.1179 14.8316 40.4954 15.6138 39.6653 15.756L41.533 18.387H40.0803L38.4893 15.8271H38.351V18.387H37.175V12.0583H38.9044ZM38.3506 14.9738H38.6964C39.4574 14.9738 39.8032 14.6183 39.8032 13.9783C39.8032 13.4094 39.4574 13.0539 38.6964 13.0539H38.3506V14.9738ZM33.0933 18.387H36.4136V17.3204H34.2692V15.6138H36.3444V14.5471H34.2692V13.125H36.4136V12.0583H33.0933V18.387ZM29.6349 16.3249L28.0439 12.0583H26.7988L29.3582 18.5293H29.9808L32.5402 12.0583H31.2951L29.6349 16.3249ZM15.5927 15.2582C15.5927 17.036 16.9762 18.5293 18.7055 18.5293C19.2589 18.5293 19.7431 18.3871 20.2274 18.1737V16.7515C19.8815 17.1782 19.3973 17.4626 18.8439 17.4626C17.7371 17.4626 16.8378 16.6093 16.8378 15.4716V15.3294C16.7687 14.1916 17.6679 13.1961 18.7747 13.125C19.3281 13.125 19.8815 13.4094 20.2274 13.8361V12.4139C19.8123 12.1294 19.2589 12.0583 18.7747 12.0583C16.9762 11.9161 15.5927 13.4094 15.5927 15.2582ZM13.4467 14.476C12.7549 14.1916 12.5474 14.0494 12.5474 13.6938C12.6166 13.2672 12.9625 12.9116 13.3775 12.9828C13.7234 12.9828 14.0692 13.1961 14.3459 13.4805L14.9685 12.6272C14.4843 12.2005 13.8617 11.9161 13.2392 11.9161C12.2707 11.845 11.4406 12.6272 11.3715 13.6227V13.6938C11.3715 14.5472 11.7173 15.0449 12.8241 15.4005C13.1008 15.4716 13.3775 15.6138 13.6542 15.756C13.8617 15.8982 14.0001 16.1116 14.0001 16.396C14.0001 16.8938 13.585 17.3204 13.17 17.3204H13.1008C12.5474 17.3204 12.0632 16.9649 11.8557 16.4671L11.0948 17.2493C11.5098 18.0315 12.3399 18.4582 13.17 18.4582C14.2768 18.5293 15.176 17.676 15.2452 16.5382V16.3249C15.176 15.4716 14.8302 15.0449 13.4467 14.476ZM9.43519 18.387H10.6111V12.0583H9.43519V18.387ZM3.97046 12.0583H5.69981H6.04568C7.70585 12.1294 9.02015 13.5516 8.95098 15.2582C8.95098 16.1827 8.53594 17.036 7.8442 17.6759C7.22163 18.1737 6.46072 18.4581 5.69981 18.387H3.97046V12.0583ZM5.4924 17.3204C6.04579 17.3915 6.66835 17.1782 7.0834 16.8226C7.49844 16.396 7.70596 15.8271 7.70596 15.1871C7.70596 14.6182 7.49844 14.0493 7.0834 13.6227C6.66835 13.2671 6.04579 13.0538 5.4924 13.1249H5.14653V17.3204H5.4924Z" fill="white"/>
            <path fill-rule="evenodd" clip-rule="evenodd" d="M23.7534 11.9116C22.0241 11.9116 20.5714 13.3338 20.5714 15.1826C20.5714 16.9604 21.9549 18.4537 23.7534 18.5248C25.5519 18.5959 26.9354 17.1026 27.0046 15.2538C26.9354 13.4049 25.5519 11.9116 23.7534 11.9116V11.9116Z" fill="#FD6020"/>
        </symbol>
        <symbol id="mastercard" viewBox="0 0 45 32">
            <rect x="0.5" y="0.5" width="44" height="30.7647" rx="4.79412" fill="#1A1A1A" stroke="#333333"/>
            <path fill-rule="evenodd" clip-rule="evenodd" d="M28.5583 24.3925C33.5147 24.3925 37.5327 20.4223 37.5327 15.5249C37.5327 10.6274 33.5147 6.65723 28.5583 6.65723C26.3369 6.65723 24.3041 7.45468 22.7369 8.77567C21.1698 7.45469 19.137 6.65723 16.9156 6.65723C11.9592 6.65723 7.94116 10.6274 7.94116 15.5249C7.94116 20.4223 11.9592 24.3925 16.9156 24.3925C19.137 24.3925 21.1698 23.5951 22.737 22.2741C24.3041 23.5951 26.3369 24.3925 28.5583 24.3925Z" fill="#ED0006"/>
            <path fill-rule="evenodd" clip-rule="evenodd" d="M22.7363 22.274C24.6658 20.6475 25.8893 18.2274 25.8893 15.5249C25.8893 12.8224 24.6658 10.4022 22.7363 8.77576C24.3035 7.45472 26.3364 6.65723 28.5578 6.65723C33.5142 6.65723 37.5322 10.6274 37.5322 15.5249C37.5322 20.4223 33.5142 24.3925 28.5578 24.3925C26.3364 24.3925 24.3035 23.595 22.7363 22.274Z" fill="#F9A000"/>
            <path fill-rule="evenodd" clip-rule="evenodd" d="M22.737 22.2741C24.6665 20.6476 25.8899 18.2275 25.8899 15.525C25.8899 12.8225 24.6665 10.4024 22.737 8.77588C20.8075 10.4024 19.584 12.8225 19.584 15.525C19.584 18.2275 20.8075 20.6476 22.737 22.2741Z" fill="#FF5E00"/>
        </symbol>
        <symbol id="secure-payment" viewBox="0 0 65 32">
            <rect x="0.5" y="0.5" width="64" height="31" rx="4.79412" fill="#1A1A1A" stroke="#333333"/>
            <g clip-path="url(#clip0_41798_1874)">
                <rect width="11" height="11" transform="translate(5 4)" fill="#1A1A1A"/>
                <path d="M13.7083 9.04199H7.29167C6.78541 9.04199 6.375 9.4524 6.375 9.95866V13.167C6.375 13.6733 6.78541 14.0837 7.29167 14.0837H13.7083C14.2146 14.0837 14.625 13.6733 14.625 13.167V9.95866C14.625 9.4524 14.2146 9.04199 13.7083 9.04199Z" stroke="white" stroke-width="0.916667" stroke-linecap="round" stroke-linejoin="round"/>
                <path d="M8.20837 9.04199V7.20866C8.20837 6.60087 8.44982 6.01798 8.87959 5.58821C9.30936 5.15843 9.89225 4.91699 10.5 4.91699C11.1078 4.91699 11.6907 5.15843 12.1205 5.58821C12.5503 6.01798 12.7917 6.60087 12.7917 7.20866V9.04199" stroke="white" stroke-width="0.916667" stroke-linecap="round" stroke-linejoin="round"/>
            </g>
            <path d="M21.278 13.077C20.772 13.077 20.3173 12.989 19.914 12.813C19.518 12.6297 19.2063 12.3803 18.979 12.065C18.7517 11.7423 18.6343 11.372 18.627 10.954H19.694C19.7307 11.3133 19.8773 11.6177 20.134 11.867C20.398 12.109 20.7793 12.23 21.278 12.23C21.7547 12.23 22.1287 12.1127 22.4 11.878C22.6787 11.636 22.818 11.328 22.818 10.954C22.818 10.6607 22.7373 10.4223 22.576 10.239C22.4147 10.0557 22.213 9.91633 21.971 9.821C21.729 9.72567 21.4027 9.623 20.992 9.513C20.486 9.381 20.079 9.249 19.771 9.117C19.4703 8.985 19.21 8.77967 18.99 8.501C18.7773 8.215 18.671 7.83367 18.671 7.357C18.671 6.939 18.7773 6.56867 18.99 6.246C19.2027 5.92333 19.4997 5.674 19.881 5.498C20.2697 5.322 20.7133 5.234 21.212 5.234C21.9307 5.234 22.5173 5.41367 22.972 5.773C23.434 6.13233 23.6943 6.609 23.753 7.203H22.653C22.6163 6.90967 22.4623 6.653 22.191 6.433C21.9197 6.20567 21.5603 6.092 21.113 6.092C20.695 6.092 20.354 6.202 20.09 6.422C19.826 6.63467 19.694 6.93533 19.694 7.324C19.694 7.60267 19.771 7.83 19.925 8.006C20.0863 8.182 20.2807 8.31767 20.508 8.413C20.7427 8.501 21.069 8.60367 21.487 8.721C21.993 8.86033 22.4 8.99967 22.708 9.139C23.016 9.271 23.28 9.48 23.5 9.766C23.72 10.0447 23.83 10.426 23.83 10.91C23.83 11.284 23.731 11.636 23.533 11.966C23.335 12.296 23.0417 12.5637 22.653 12.769C22.2643 12.9743 21.806 13.077 21.278 13.077ZM30.8031 9.755C30.8031 9.94567 30.7921 10.1473 30.7701 10.36H25.9521C25.9887 10.954 26.1904 11.4197 26.5571 11.757C26.9311 12.087 27.3821 12.252 27.9101 12.252C28.3427 12.252 28.7021 12.153 28.9881 11.955C29.2814 11.7497 29.4867 11.4783 29.6041 11.141H30.6821C30.5207 11.7203 30.1981 12.1933 29.7141 12.56C29.2301 12.9193 28.6287 13.099 27.9101 13.099C27.3381 13.099 26.8247 12.9707 26.3701 12.714C25.9227 12.4573 25.5707 12.0943 25.3141 11.625C25.0574 11.1483 24.9291 10.5983 24.9291 9.975C24.9291 9.35167 25.0537 8.80533 25.3031 8.336C25.5524 7.86667 25.9007 7.50733 26.3481 7.258C26.8027 7.00133 27.3234 6.873 27.9101 6.873C28.4821 6.873 28.9881 6.99767 29.4281 7.247C29.8681 7.49633 30.2054 7.841 30.4401 8.281C30.6821 8.71367 30.8031 9.205 30.8031 9.755ZM29.7691 9.546C29.7691 9.16467 29.6847 8.83833 29.5161 8.567C29.3474 8.28833 29.1164 8.07933 28.8231 7.94C28.5371 7.79333 28.2181 7.72 27.8661 7.72C27.3601 7.72 26.9274 7.88133 26.5681 8.204C26.2161 8.52667 26.0144 8.974 25.9631 9.546H29.7691ZM31.7503 9.975C31.7503 9.35167 31.875 8.809 32.1243 8.347C32.3737 7.87767 32.7183 7.51467 33.1583 7.258C33.6057 7.00133 34.1153 6.873 34.6873 6.873C35.428 6.873 36.0367 7.05267 36.5133 7.412C36.9973 7.77133 37.3163 8.27 37.4703 8.908H36.3923C36.2897 8.54133 36.088 8.25167 35.7873 8.039C35.494 7.82633 35.1273 7.72 34.6873 7.72C34.1153 7.72 33.6533 7.918 33.3013 8.314C32.9493 8.70267 32.7733 9.25633 32.7733 9.975C32.7733 10.701 32.9493 11.262 33.3013 11.658C33.6533 12.054 34.1153 12.252 34.6873 12.252C35.1273 12.252 35.494 12.1493 35.7873 11.944C36.0807 11.7387 36.2823 11.4453 36.3923 11.064H37.4703C37.309 11.68 36.9863 12.175 36.5023 12.549C36.0183 12.9157 35.4133 13.099 34.6873 13.099C34.1153 13.099 33.6057 12.9707 33.1583 12.714C32.7183 12.4573 32.3737 12.0943 32.1243 11.625C31.875 11.1557 31.7503 10.6057 31.7503 9.975ZM44.152 6.972V13H43.151V12.109C42.9603 12.417 42.6927 12.659 42.348 12.835C42.0107 13.0037 41.6367 13.088 41.226 13.088C40.7567 13.088 40.335 12.9927 39.961 12.802C39.587 12.604 39.29 12.3107 39.07 11.922C38.8573 11.5333 38.751 11.0603 38.751 10.503V6.972H39.741V10.371C39.741 10.965 39.8913 11.4233 40.192 11.746C40.4927 12.0613 40.9033 12.219 41.424 12.219C41.9593 12.219 42.381 12.054 42.689 11.724C42.997 11.394 43.151 10.9137 43.151 10.283V6.972H44.152ZM46.8431 7.951C47.0191 7.60633 47.2685 7.33867 47.5911 7.148C47.9211 6.95733 48.3208 6.862 48.7901 6.862V7.896H48.5261C47.4041 7.896 46.8431 8.50467 46.8431 9.722V13H45.8421V6.972H46.8431V7.951ZM55.4456 9.755C55.4456 9.94567 55.4346 10.1473 55.4126 10.36H50.5946C50.6313 10.954 50.833 11.4197 51.1996 11.757C51.5736 12.087 52.0246 12.252 52.5526 12.252C52.9853 12.252 53.3446 12.153 53.6306 11.955C53.924 11.7497 54.1293 11.4783 54.2466 11.141H55.3246C55.1633 11.7203 54.8406 12.1933 54.3566 12.56C53.8726 12.9193 53.2713 13.099 52.5526 13.099C51.9806 13.099 51.4673 12.9707 51.0126 12.714C50.5653 12.4573 50.2133 12.0943 49.9566 11.625C49.7 11.1483 49.5716 10.5983 49.5716 9.975C49.5716 9.35167 49.6963 8.80533 49.9456 8.336C50.195 7.86667 50.5433 7.50733 50.9906 7.258C51.4453 7.00133 51.966 6.873 52.5526 6.873C53.1246 6.873 53.6306 6.99767 54.0706 7.247C54.5106 7.49633 54.848 7.841 55.0826 8.281C55.3246 8.71367 55.4456 9.205 55.4456 9.755ZM54.4116 9.546C54.4116 9.16467 54.3273 8.83833 54.1586 8.567C53.99 8.28833 53.759 8.07933 53.4656 7.94C53.1796 7.79333 52.8606 7.72 52.5086 7.72C52.0026 7.72 51.57 7.88133 51.2106 8.204C50.8586 8.52667 50.657 8.974 50.6056 9.546H54.4116Z" fill="white"/>
            <path d="M11.8032 20.216C11.8032 20.664 11.6952 21.084 11.4792 21.476C11.2712 21.868 10.9392 22.184 10.4832 22.424C10.0352 22.664 9.46719 22.784 8.77919 22.784H7.37519V26H5.69519V17.624H8.77919C9.42719 17.624 9.97919 17.736 10.4352 17.96C10.8912 18.184 11.2312 18.492 11.4552 18.884C11.6872 19.276 11.8032 19.72 11.8032 20.216ZM8.70719 21.428C9.17119 21.428 9.51519 21.324 9.73919 21.116C9.96319 20.9 10.0752 20.6 10.0752 20.216C10.0752 19.4 9.61919 18.992 8.70719 18.992H7.37519V21.428H8.70719ZM12.564 22.652C12.564 21.98 12.696 21.384 12.96 20.864C13.232 20.344 13.596 19.944 14.052 19.664C14.516 19.384 15.032 19.244 15.6 19.244C16.096 19.244 16.528 19.344 16.896 19.544C17.272 19.744 17.572 19.996 17.796 20.3V19.352H19.488V26H17.796V25.028C17.58 25.34 17.28 25.6 16.896 25.808C16.52 26.008 16.084 26.108 15.588 26.108C15.028 26.108 14.516 25.964 14.052 25.676C13.596 25.388 13.232 24.984 12.96 24.464C12.696 23.936 12.564 23.332 12.564 22.652ZM17.796 22.676C17.796 22.268 17.716 21.92 17.556 21.632C17.396 21.336 17.18 21.112 16.908 20.96C16.636 20.8 16.344 20.72 16.032 20.72C15.72 20.72 15.432 20.796 15.168 20.948C14.904 21.1 14.688 21.324 14.52 21.62C14.36 21.908 14.28 22.252 14.28 22.652C14.28 23.052 14.36 23.404 14.52 23.708C14.688 24.004 14.904 24.232 15.168 24.392C15.44 24.552 15.728 24.632 16.032 24.632C16.344 24.632 16.636 24.556 16.908 24.404C17.18 24.244 17.396 24.02 17.556 23.732C17.716 23.436 17.796 23.084 17.796 22.676ZM27.4888 19.352L23.3728 29.144H21.5848L23.0248 25.832L20.3608 19.352H22.2448L23.9608 23.996L25.7008 19.352H27.4888ZM36.6504 19.256C37.4664 19.256 38.1224 19.508 38.6184 20.012C39.1224 20.508 39.3744 21.204 39.3744 22.1V26H37.6944V22.328C37.6944 21.808 37.5624 21.412 37.2984 21.14C37.0344 20.86 36.6744 20.72 36.2184 20.72C35.7624 20.72 35.3984 20.86 35.1264 21.14C34.8624 21.412 34.7304 21.808 34.7304 22.328V26H33.0504V22.328C33.0504 21.808 32.9184 21.412 32.6544 21.14C32.3904 20.86 32.0304 20.72 31.5744 20.72C31.1104 20.72 30.7424 20.86 30.4704 21.14C30.2064 21.412 30.0744 21.808 30.0744 22.328V26H28.3944V19.352H30.0744V20.156C30.2904 19.876 30.5664 19.656 30.9024 19.496C31.2464 19.336 31.6224 19.256 32.0304 19.256C32.5504 19.256 33.0144 19.368 33.4224 19.592C33.8304 19.808 34.1464 20.12 34.3704 20.528C34.5864 20.144 34.8984 19.836 35.3064 19.604C35.7224 19.372 36.1704 19.256 36.6504 19.256ZM47.1486 22.532C47.1486 22.772 47.1326 22.988 47.1006 23.18H42.2406C42.2806 23.66 42.4486 24.036 42.7446 24.308C43.0406 24.58 43.4046 24.716 43.8366 24.716C44.4606 24.716 44.9046 24.448 45.1686 23.912H46.9806C46.7886 24.552 46.4206 25.08 45.8766 25.496C45.3326 25.904 44.6646 26.108 43.8726 26.108C43.2326 26.108 42.6566 25.968 42.1446 25.688C41.6406 25.4 41.2446 24.996 40.9566 24.476C40.6766 23.956 40.5366 23.356 40.5366 22.676C40.5366 21.988 40.6766 21.384 40.9566 20.864C41.2366 20.344 41.6286 19.944 42.1326 19.664C42.6366 19.384 43.2166 19.244 43.8726 19.244C44.5046 19.244 45.0686 19.38 45.5646 19.652C46.0686 19.924 46.4566 20.312 46.7286 20.816C47.0086 21.312 47.1486 21.884 47.1486 22.532ZM45.4086 22.052C45.4006 21.62 45.2446 21.276 44.9406 21.02C44.6366 20.756 44.2646 20.624 43.8246 20.624C43.4086 20.624 43.0566 20.752 42.7686 21.008C42.4886 21.256 42.3166 21.604 42.2526 22.052H45.4086ZM52.0589 19.256C52.8509 19.256 53.4909 19.508 53.9789 20.012C54.4669 20.508 54.7109 21.204 54.7109 22.1V26H53.0309V22.328C53.0309 21.8 52.8989 21.396 52.6349 21.116C52.3709 20.828 52.0109 20.684 51.5549 20.684C51.0909 20.684 50.7229 20.828 50.4509 21.116C50.1869 21.396 50.0549 21.8 50.0549 22.328V26H48.3749V19.352H50.0549V20.18C50.2789 19.892 50.5629 19.668 50.9069 19.508C51.2589 19.34 51.6429 19.256 52.0589 19.256ZM58.2645 20.732V23.948C58.2645 24.172 58.3165 24.336 58.4205 24.44C58.5325 24.536 58.7165 24.584 58.9725 24.584H59.7525V26H58.6965C57.2805 26 56.5725 25.312 56.5725 23.936V20.732H55.7805V19.352H56.5725V17.708H58.2645V19.352H59.7525V20.732H58.2645Z" fill="white"/>
            <defs>
                <clipPath id="clip0_41798_1874">
                    <rect width="11" height="11" fill="white" transform="translate(5 4)"/>
                </clipPath>
            </defs>
        </symbol>
        <symbol id="instagram" viewBox="0 0 18 19">
            <g clip-path="url(#clip0_53_1048)">
                <path d="M17.982 5.79206C17.9398 4.83565 17.7852 4.17813 17.5636 3.60838C17.335 3.0036 16.9834 2.46214 16.5227 2.01203C16.0726 1.55491 15.5276 1.19971 14.9298 0.974717C14.3568 0.753162 13.7027 0.598499 12.7463 0.556331C11.7827 0.510592 11.4768 0.500015 9.03299 0.500015C6.58916 0.500015 6.28327 0.510592 5.32329 0.55276C4.36688 0.594928 3.70936 0.749728 3.13975 0.971146C2.53483 1.19971 1.99338 1.55134 1.54326 2.01203C1.08614 2.46214 0.731077 3.00717 0.505951 3.60495C0.284397 4.17813 0.129734 4.83208 0.0875658 5.78849C0.0418264 6.75204 0.03125 7.05794 0.03125 9.50177C0.03125 11.9456 0.0418264 12.2515 0.0839946 13.2115C0.126163 14.1679 0.280963 14.8254 0.502517 15.3952C0.731077 15.9999 1.08614 16.5414 1.54326 16.9915C1.99338 17.4486 2.5384 17.8038 3.13618 18.0288C3.70936 18.2504 4.36331 18.405 5.31986 18.4472C6.2797 18.4895 6.58573 18.5 9.02956 18.5C11.4734 18.5 11.7793 18.4895 12.7393 18.4472C13.6957 18.405 14.3532 18.2504 14.9228 18.0288C16.1325 17.5611 17.0889 16.6047 17.5566 15.3952C17.778 14.822 17.9328 14.1679 17.975 13.2115C18.0172 12.2515 18.0277 11.9456 18.0277 9.50177C18.0277 7.05794 18.0242 6.75204 17.982 5.79206ZM16.3611 13.1412C16.3223 14.0202 16.1747 14.4949 16.0516 14.8114C15.7491 15.5956 15.1268 16.2179 14.3426 16.5204C14.0261 16.6435 13.548 16.7911 12.6724 16.8297C11.723 16.872 11.4382 16.8825 9.03657 16.8825C6.6349 16.8825 6.34659 16.872 5.40062 16.8297C4.52155 16.7911 4.04684 16.6435 3.73038 16.5204C3.34015 16.3762 2.98495 16.1476 2.69664 15.8487C2.39775 15.5568 2.16919 15.2052 2.02497 14.815C1.9019 14.4985 1.75424 14.0202 1.71564 13.1447C1.67334 12.1953 1.6629 11.9104 1.6629 9.50878C1.6629 7.10711 1.67334 6.8188 1.71564 5.87297C1.75424 4.99389 1.9019 4.51919 2.02497 4.20272C2.16919 3.81235 2.39775 3.45729 2.70021 3.16884C2.99195 2.86995 3.34358 2.64139 3.73395 2.49731C4.05042 2.37424 4.52869 2.22658 5.40419 2.18784C6.3536 2.14568 6.63847 2.1351 9.04 2.1351C11.4452 2.1351 11.73 2.14568 12.6759 2.18784C13.555 2.22658 14.0297 2.37424 14.3462 2.49731C14.7364 2.64139 15.0916 2.86995 15.3799 3.16884C15.6788 3.46072 15.9074 3.81235 16.0516 4.20272C16.1747 4.51919 16.3223 4.99732 16.3611 5.87297C16.4032 6.82237 16.4138 7.10711 16.4138 9.50878C16.4138 11.9104 16.4032 12.1918 16.3611 13.1412Z" fill="currentColor"/>
                <path d="M9.03313 4.8778C6.48037 4.8778 4.40918 6.94885 4.40918 9.50175C4.40918 12.0546 6.48037 14.1257 9.03313 14.1257C11.586 14.1257 13.6571 12.0546 13.6571 9.50175C13.6571 6.94885 11.586 4.8778 9.03313 4.8778ZM9.03313 12.5012C7.37703 12.5012 6.03369 11.158 6.03369 9.50175C6.03369 7.84551 7.37703 6.50231 9.03313 6.50231C10.6894 6.50231 12.0326 7.84551 12.0326 9.50175C12.0326 11.158 10.6894 12.5012 9.03313 12.5012Z" fill="currentColor"/>
                <path d="M14.9199 4.69499C14.9199 5.29112 14.4365 5.77448 13.8402 5.77448C13.2441 5.77448 12.7607 5.29112 12.7607 4.69499C12.7607 4.09873 13.2441 3.61551 13.8402 3.61551C14.4365 3.61551 14.9199 4.09873 14.9199 4.69499Z" fill="currentColor"/>
            </g>
            <defs>
                <clipPath id="clip0_53_1048">
                    <rect width="18" height="18" fill="white" transform="translate(0 0.500015)"/>
                </clipPath>
            </defs>
        </symbol>
    </defs>
</svg>
