<?xml version="1.0" encoding="utf-8"?>
<svg style="display: none;" xmlns="http://www.w3.org/2000/svg">
    <defs>
        <symbol id="map-pin" viewBox="0 0 16 19">
            <path d="M8.27344 18.918C8.10716 19.0267 7.89284 19.0267 7.72656 18.918L8 18.5L8.27344 18.918ZM15 7.86328C14.9999 6.04611 14.2647 4.30149 12.9531 3.01367C11.641 1.72545 9.85945 1 8 1C6.14055 1 4.35895 1.72545 3.04688 3.01367C1.73527 4.30149 1.0001 6.04611 1 7.86328C1 10.5224 2.75357 13.0591 4.60938 14.9824C5.52651 15.9329 6.4455 16.7104 7.13574 17.25C7.48043 17.5195 7.7673 17.7287 7.9668 17.8701C7.97796 17.878 7.98939 17.8851 8 17.8926C8.01061 17.8851 8.02204 17.878 8.0332 17.8701C8.2327 17.7287 8.51957 17.5195 8.86426 17.25C9.5545 16.7104 10.4735 15.9329 11.3906 14.9824C13.2464 13.0591 15 10.5224 15 7.86328ZM16 7.86328C16 10.9314 14.0035 13.7137 12.1094 15.6768C11.1516 16.6693 10.1954 17.4774 9.47949 18.0371C9.12112 18.3173 8.82197 18.5362 8.61133 18.6855C8.50598 18.7602 8.42272 18.8183 8.36523 18.8574C8.33671 18.8768 8.31418 18.8911 8.29883 18.9014C8.29112 18.9065 8.28545 18.9113 8.28125 18.9141C8.27926 18.9154 8.27754 18.9162 8.27637 18.917L8.27441 18.918L8 18.5L7.72559 18.918L7.72363 18.917C7.72246 18.9162 7.72074 18.9154 7.71875 18.9141C7.71455 18.9113 7.70888 18.9065 7.70117 18.9014C7.68582 18.8911 7.66329 18.8768 7.63477 18.8574C7.57728 18.8183 7.49402 18.7602 7.38867 18.6855C7.17803 18.5362 6.87888 18.3173 6.52051 18.0371C5.80455 17.4774 4.84841 16.6693 3.89062 15.6768C1.99649 13.7137 0 10.9314 0 7.86328C9.58567e-05 5.77485 0.845487 3.7737 2.34668 2.2998C3.84762 0.826268 5.8813 0 8 0C10.1187 0 12.1524 0.826267 13.6533 2.2998C15.1545 3.7737 15.9999 5.77485 16 7.86328Z" fill="currentColor"/>
            <path d="M10 7.86322C9.99975 6.79256 9.1131 5.90912 8 5.90912C6.8869 5.90912 6.00025 6.79256 6 7.86322C6 8.93408 6.88674 9.8183 8 9.8183C9.11326 9.8183 10 8.93408 10 7.86322ZM11 7.86322C11 9.50358 9.64817 10.8183 8 10.8183C6.35183 10.8183 5 9.50358 5 7.86322C5.00024 6.22307 6.35198 4.90912 8 4.90912C9.64802 4.90912 10.9998 6.22307 11 7.86322Z" fill="currentColor"/>
        </symbol>
        <symbol id="chevron-down" viewBox="0 0 8 5">
            <path d="M7.14645 0.396263C7.34171 0.201002 7.65822 0.201001 7.85348 0.396263C8.04874 0.591526 8.04874 0.908033 7.85348 1.10329L4.35348 4.60329C4.15822 4.79856 3.84171 4.79856 3.64645 4.60329L0.146447 1.10329C-0.0488155 0.908033 -0.0488155 0.591526 0.146447 0.396263C0.341709 0.201001 0.658216 0.201001 0.853478 0.396263L3.99996 3.54275L7.14645 0.396263Z" fill="currentColor"/>
        </symbol>
        <symbol id="arrow-right" viewBox="0 0 17 14">
            <path d="M16.25 6.25056C16.6642 6.25056 17 6.58634 17 7.00056C17 7.41477 16.6642 7.75056 16.25 7.75056H1.25C0.835786 7.75056 0.5 7.41477 0.5 7.00056C0.5 6.58634 0.835786 6.25056 1.25 6.25056H16.25Z" fill="currentColor"/>
            <path d="M9.66875 0.446257C9.96102 0.152899 10.4358 0.152097 10.7293 0.444304L16.7791 6.46774C16.9204 6.60848 16.9998 6.80051 16.9998 6.99997C16.9997 7.19927 16.9203 7.39057 16.7791 7.53122L10.7293 13.5556C10.4358 13.8479 9.96104 13.8471 9.66875 13.5537C9.37648 13.2602 9.37724 12.7854 9.6707 12.4931L15.1863 6.99899L9.6707 1.5068C9.37734 1.21453 9.37654 0.739725 9.66875 0.446257Z" fill="currentColor"/>
        </symbol>
        <symbol id="search" viewBox="0 0 20 21">
            <path d="M15.083 9.66656C15.083 6.39899 12.4345 3.74975 9.16699 3.74957C5.89931 3.74957 3.25 6.39888 3.25 9.66656C3.25018 12.9341 5.89942 15.5826 9.16699 15.5826C12.4344 15.5824 15.0828 12.934 15.083 9.66656ZM16.583 9.66656C16.5828 13.7624 13.2628 17.0824 9.16699 17.0826C5.07099 17.0826 1.75018 13.7625 1.75 9.66656C1.75 5.57045 5.07088 2.24957 9.16699 2.24957C13.263 2.24975 16.583 5.57056 16.583 9.66656Z" fill="currentColor"/>
            <path d="M13.3447 13.8443C13.6376 13.5514 14.1123 13.5514 14.4052 13.8443L18.0302 17.4693C18.3231 17.7622 18.3231 18.237 18.0302 18.5299C17.7373 18.8227 17.2626 18.8227 16.9697 18.5299L13.3447 14.9049C13.0518 14.612 13.0518 14.1372 13.3447 13.8443Z" fill="currentColor"/>
        </symbol>
        <symbol id="heart" viewBox="0 0 30 26">
            <path d="M14.9996 2.80273C19.4105 -1.8915 26.2204 -0.203406 28.6686 4.59961C29.963 7.13935 30.0093 10.4692 28.0319 14.0703C26.0644 17.6527 22.1003 21.5042 15.3619 25.2285L14.9996 25.4287L14.6363 25.2285C7.89822 21.5042 3.93462 17.6528 1.9674 14.0703C-0.00998271 10.4692 0.0372179 7.13935 1.33165 4.59961C3.77982 -0.203353 10.5892 -1.89156 14.9996 2.80273ZM27.3317 5.28027C25.2248 1.14726 19.2195 -0.177764 15.5875 4.41504L14.9996 5.15918L14.4117 4.41504C10.7804 -0.17772 4.77554 1.14727 2.66857 5.28027C1.62985 7.31809 1.50966 10.12 3.28185 13.3477C5.03143 16.5339 8.63156 20.1327 14.9986 23.7109C21.3669 20.1324 24.9676 16.5342 26.7174 13.3477C28.4898 10.1199 28.3704 7.31812 27.3317 5.28027Z" fill="currentColor"/>
        </symbol>
        <symbol id="basket" viewBox="0 0 34 35">
            <path d="M21.917 10.4166C21.917 7.70116 19.7154 5.49957 17 5.49957C14.2846 5.49957 12.0831 7.70116 12.0831 10.4166V13.9166H21.917V10.4166ZM21.917 18.9166V15.4166H12.0831V18.9166C12.0829 19.3306 11.7472 19.6666 11.3331 19.6666C10.9191 19.6664 10.5832 19.3305 10.5831 18.9166V15.4166H7.70903L5.14946 29.4996H28.8506L26.2911 15.4166H23.417V18.9166C23.4169 19.3305 23.081 19.6664 22.667 19.6666C22.2529 19.6666 21.9172 19.3306 21.917 18.9166ZM23.417 13.9166H26.917C27.2793 13.9167 27.5894 14.1755 27.6543 14.5318L30.4883 30.1158C30.5279 30.3344 30.4685 30.5594 30.3262 30.73C30.1837 30.9008 29.9724 30.9996 29.75 30.9996H4.25005C4.02766 30.9996 3.81637 30.9008 3.67388 30.73C3.53161 30.5594 3.47216 30.3344 3.51177 30.1158L6.34575 14.5318L6.38091 14.4029C6.48879 14.1146 6.76614 13.9167 7.08306 13.9166H10.5831V10.4166C10.5831 6.87274 13.4562 3.99957 17 3.99957C20.5439 3.99957 23.417 6.87274 23.417 10.4166V13.9166Z" fill="currentColor"/>
        </symbol>
        <symbol id="phone-call" viewBox="0 0 28 28">
            <path d="M16.7113 4.18016C16.8188 3.78033 17.2304 3.54264 17.6302 3.64988C19.2404 4.08295 20.709 4.93183 21.888 6.11082C23.0671 7.28992 23.9159 8.75837 24.349 10.3686C24.4565 10.7686 24.2196 11.18 23.8197 11.2876C23.4197 11.3951 23.0084 11.1582 22.9007 10.7583C22.5359 9.40182 21.8207 8.16462 20.8275 7.17137C19.8344 6.17835 18.5977 5.46395 17.2416 5.0991C16.8417 4.99157 16.604 4.58 16.7113 4.18016Z" fill="currentColor"/>
            <path d="M15.806 7.56108C15.9137 7.1613 16.326 6.9242 16.7259 7.03178C17.7423 7.30529 18.669 7.84128 19.4134 8.58549C20.1578 9.32991 20.6935 10.2574 20.9671 11.274C21.0747 11.674 20.8378 12.0853 20.4378 12.1929C20.0378 12.3004 19.6264 12.0636 19.5188 11.6636C19.3136 10.9008 18.9114 10.2056 18.3528 9.64702C17.7942 9.08836 17.0982 8.68625 16.3352 8.481C15.9355 8.37325 15.6984 7.96095 15.806 7.56108Z" fill="currentColor"/>
            <path d="M8.87012 2.79692C9.21915 2.75483 9.57264 2.82694 9.87695 3.00297C10.1805 3.17858 10.419 3.44809 10.5566 3.77055L12.7549 8.89848V8.89946C12.8599 9.1455 12.9024 9.41424 12.8789 9.68071C12.8553 9.94696 12.7665 10.2031 12.6201 10.4268L10.7998 13.2081L10.7852 13.2373C10.7819 13.2469 10.78 13.2574 10.7793 13.2676C10.7781 13.2861 10.7818 13.3044 10.7891 13.3213L10.9512 13.6377C11.7951 15.1948 13.1079 16.4508 14.707 17.2256L14.7354 17.2354C14.7453 17.2372 14.7555 17.2371 14.7656 17.2364C14.7858 17.2348 14.8055 17.2282 14.8223 17.2168L14.8262 17.2139L17.5645 15.3887C17.7891 15.2387 18.0484 15.1471 18.3174 15.1221C18.5862 15.0972 18.8572 15.1401 19.1055 15.2461L18.9521 15.6045L18.9102 15.7032L19.1064 15.2461L24.2275 17.4414L24.3457 17.4981C24.6166 17.64 24.843 17.8559 24.9971 18.1221C25.1731 18.4264 25.2452 18.78 25.2031 19.1289V19.1348L24.459 19.0391L24.3994 19.0313L25.2031 19.1348C25.0178 20.5827 24.3105 21.9135 23.2148 22.878C22.1192 23.8423 20.7096 24.374 19.25 24.3741C15.106 24.3741 11.1314 22.7281 8.20117 19.7979C5.27104 16.8677 3.625 12.893 3.625 8.74907C3.62522 7.28955 4.15764 5.8797 5.12207 4.78422C6.08655 3.68888 7.41755 2.98297 8.86523 2.79789L8.87012 2.79692ZM5.125 8.74907C5.125 12.4952 6.6129 16.0884 9.26172 18.7373C11.9107 21.3863 15.5038 22.8741 19.25 22.8741L19.4551 22.8702C20.4762 22.8235 21.4533 22.43 22.2236 21.752C23.0442 21.0297 23.5739 20.0333 23.7139 18.9493C23.7169 18.9231 23.7114 18.8969 23.6982 18.8741C23.685 18.8511 23.665 18.8327 23.6406 18.8223L23.9385 18.1221L23.9336 18.1319L23.6406 18.8223L23.6387 18.8213L18.5166 16.625V16.626C18.4976 16.6179 18.4766 16.6144 18.4561 16.6163C18.4354 16.6182 18.4147 16.6252 18.3975 16.6368L15.6621 18.4581L15.6631 18.459C15.4303 18.6167 15.1602 18.711 14.8799 18.7325C14.6697 18.7485 14.4591 18.7236 14.2598 18.6592L14.0596 18.5791L13.6865 18.3887C11.8477 17.4022 10.3612 15.8615 9.44141 13.9805L10.0527 13.6807L9.43945 13.9766C9.31831 13.7246 9.26434 13.445 9.2832 13.1661C9.30207 12.8871 9.3929 12.6173 9.54688 12.3838L11.3652 9.60551C11.3764 9.58835 11.383 9.5683 11.3848 9.54789C11.3865 9.5279 11.3837 9.50782 11.376 9.4893L9.17773 4.36235L9.17676 4.35942C9.1664 4.33526 9.1487 4.31502 9.12598 4.3018C9.10302 4.28852 9.07516 4.28202 9.04883 4.2852C7.96546 4.42522 6.97007 4.95552 6.24805 5.77543C5.52474 6.59703 5.12522 7.65446 5.125 8.74907Z" fill="currentColor"/>
        </symbol>
        <symbol id="eye" viewBox="0 0 19 16">
            <path d="M9.50023 0.791016C12.914 0.791016 15.2909 2.56337 16.7844 4.27832C17.5311 5.13573 18.0683 5.99008 18.4192 6.62988C18.595 6.95051 18.7254 7.21981 18.8127 7.41113C18.8564 7.50686 18.8897 7.58366 18.9123 7.6377C18.9236 7.66455 18.9325 7.68578 18.9387 7.70117C18.9417 7.70867 18.9437 7.7151 18.9455 7.71973L18.9494 7.72754V7.72852C18.9496 7.72885 18.9496 7.72929 18.2502 8C18.9422 8.26788 18.9495 8.27112 18.9494 8.27148V8.27246L18.9455 8.28027C18.9437 8.28492 18.9418 8.29125 18.9387 8.29883C18.9325 8.3142 18.9236 8.33544 18.9123 8.3623C18.8897 8.41633 18.8564 8.49316 18.8127 8.58887C18.7254 8.78016 18.595 9.04949 18.4192 9.37012C18.0683 10.0098 17.5311 10.8644 16.7844 11.7217C15.2909 13.4362 12.9138 15.208 9.50023 15.208C6.08664 15.208 3.70958 13.4362 2.21605 11.7217C1.46932 10.8644 0.932158 10.0098 0.581283 9.37012C0.405434 9.04949 0.275011 8.78016 0.187728 8.58887C0.144058 8.49316 0.110778 8.41633 0.0881185 8.3623C0.0768535 8.33544 0.0679412 8.3142 0.0617514 8.29883C0.0586984 8.29125 0.0567494 8.28492 0.0549154 8.28027L0.0510092 8.27246C0.0508784 8.27212 0.0508119 8.27077 0.750228 8C0.0508142 7.72929 0.0508785 7.72885 0.0510092 7.72852V7.72754L0.0549154 7.71973C0.0567424 7.7151 0.0587333 7.70867 0.0617514 7.70117C0.0679488 7.68578 0.0768602 7.66455 0.0881185 7.6377C0.110777 7.58366 0.14406 7.50686 0.187728 7.41113C0.275008 7.21981 0.405473 6.95051 0.581283 6.62988C0.932137 5.99008 1.46937 5.13573 2.21605 4.27832C3.70955 2.56337 6.08647 0.791016 9.50023 0.791016ZM9.50023 2.29102C6.66408 2.29102 4.66591 3.74817 3.34691 5.2627C2.68756 6.01981 2.20893 6.78037 1.89574 7.35156C1.75018 7.61704 1.6415 7.8399 1.56761 8C1.64151 8.16008 1.75015 8.38297 1.89574 8.64844C2.20893 9.21949 2.68757 9.97939 3.34691 10.7363C4.66589 12.2505 6.66392 13.708 9.50023 13.708C12.3365 13.708 14.3346 12.2505 15.6535 10.7363C16.3129 9.97939 16.7915 9.21949 17.1047 8.64844C17.2502 8.38318 17.358 8.16006 17.4319 8C17.358 7.83993 17.2502 7.61683 17.1047 7.35156C16.7915 6.78037 16.3129 6.01981 15.6535 5.2627C14.3345 3.74817 12.3364 2.29102 9.50023 2.29102ZM0.750228 8L0.0510092 8.27051C-0.0163368 8.09639 -0.0163672 7.90361 0.0510092 7.72949L0.750228 8ZM18.9494 7.72949C19.0168 7.90361 19.0168 8.09639 18.9494 8.27051L18.2502 8L18.9494 7.72949Z" fill="currentColor" />
            <path d="M11.875 8C11.875 7.37011 11.6251 6.76571 11.1797 6.32031C10.7343 5.87491 10.1299 5.625 9.5 5.625C8.87011 5.625 8.26571 5.87491 7.82031 6.32031C7.37491 6.76571 7.125 7.37011 7.125 8C7.125 8.62989 7.37491 9.23429 7.82031 9.67969C8.26571 10.1251 8.87011 10.375 9.5 10.375C10.1299 10.375 10.7343 10.1251 11.1797 9.67969C11.6251 9.23429 11.875 8.62989 11.875 8ZM13.375 8C13.375 9.02771 12.9669 10.0135 12.2402 10.7402C11.5135 11.4669 10.5277 11.875 9.5 11.875C8.47229 11.875 7.48647 11.4669 6.75977 10.7402C6.03306 10.0135 5.625 9.02771 5.625 8C5.625 6.97229 6.03306 5.98647 6.75977 5.25977C7.48647 4.53306 8.47229 4.125 9.5 4.125C10.5277 4.125 11.5135 4.53306 12.2402 5.25977C12.9669 5.98647 13.375 6.97229 13.375 8Z" fill="currentColor"/>
        </symbol>
        <symbol id="tag" viewBox="0 0 20 21">
            <path d="M17.0425 10.4997C17.0424 10.2185 16.9319 9.9484 16.7339 9.74872L9.75146 2.7663H2.26611V10.2507L9.24951 17.2263C9.34848 17.3253 9.4659 17.4041 9.59521 17.4577C9.7247 17.5114 9.86422 17.5388 10.0044 17.5388C10.1444 17.5387 10.2832 17.5113 10.4126 17.4577C10.5419 17.4041 10.6593 17.3253 10.7583 17.2263L11.6079 18.0739C11.3974 18.2847 11.1468 18.452 10.8716 18.5661C10.5966 18.68 10.302 18.7389 10.0044 18.739C9.7066 18.739 9.41134 18.6801 9.13623 18.5661C8.86136 18.4522 8.61125 18.2853 8.40088 18.0749L1.24268 10.9245C1.13 10.812 1.06689 10.6589 1.06689 10.4997V2.16669C1.06689 1.83532 1.33513 1.56708 1.6665 1.56708H9.99951C10.1586 1.56708 10.3118 1.63034 10.4243 1.74286L17.5835 8.90204L17.2993 9.18329L17.2427 9.23993L17.5835 8.90204C18.0056 9.32665 18.2426 9.90099 18.2427 10.4997C18.2427 11.0985 18.0057 11.6736 17.5835 12.0983L17.1577 11.6745L17.5825 12.0993L11.6079 18.0739L10.7593 17.2253L16.7339 11.2507C16.9317 11.0509 17.0425 10.7809 17.0425 10.4997Z" fill="currentColor"/>
            <path d="M5.8418 5.58337C6.2558 5.58362 6.5918 5.91931 6.5918 6.33337C6.5918 6.74744 6.2558 7.08313 5.8418 7.08337H5.83301C5.41879 7.08337 5.08301 6.74759 5.08301 6.33337C5.08301 5.91916 5.41879 5.58337 5.83301 5.58337H5.8418Z" fill="currentColor"/>
        </symbol>
        <symbol id="user" viewBox="0 0 20 21">
            <path d="M12.7334 6.33301C12.7332 4.82358 11.5095 3.59961 10 3.59961C8.49068 3.59979 7.26678 4.82369 7.2666 6.33301C7.2666 7.84248 8.49057 9.06623 10 9.06641C11.5096 9.06641 12.7334 7.84259 12.7334 6.33301ZM13.9336 6.33301C13.9336 8.50533 12.1723 10.2666 10 10.2666C7.82783 10.2664 6.06738 8.50522 6.06738 6.33301C6.06756 4.16095 7.82794 2.40057 10 2.40039C12.1722 2.40039 13.9334 4.16084 13.9336 6.33301Z" fill="currentColor"/>
            <path d="M12.5006 11.5671C13.8201 11.5672 15.0849 12.1707 15.8189 13.0651C16.1901 13.5175 16.4435 14.0678 16.4654 14.6686C16.4876 15.2795 16.2678 15.8826 15.7994 16.4186C14.6275 17.7594 12.7408 18.6002 10.0006 18.6003C7.26027 18.6003 5.37182 17.7595 4.1998 16.4186C3.7316 15.8828 3.51238 15.2794 3.53476 14.6686C3.55679 14.0678 3.80999 13.5176 4.18124 13.0651C4.91532 12.1705 6.18053 11.5671 7.50058 11.5671H12.5006ZM7.50058 12.7663C6.51895 12.7663 5.60219 13.2258 5.10898 13.8268C4.86676 14.1221 4.74441 14.4279 4.73398 14.7126C4.72392 14.9873 4.81549 15.2994 5.10409 15.6296C5.99211 16.6453 7.51117 17.4001 10.0006 17.4001C12.4899 17.4 14.0081 16.6454 14.8961 15.6296C15.1848 15.2993 15.2761 14.9872 15.2662 14.7126C15.2558 14.4278 15.1336 14.1212 14.8912 13.8259C14.398 13.225 13.4817 12.7664 12.5006 12.7663H7.50058Z" fill="currentColor"/>
        </symbol>
        <symbol id="chat" viewBox="0 0 18 19">
            <path d="M2.84961 13.4004H6.99414C7.14459 13.4003 7.2931 13.4291 7.43164 13.4854L7.56641 13.5508L7.69238 13.6328C7.77208 13.6926 7.84338 13.7627 7.90527 13.8408L7.99121 13.9639L9 15.6455L10.0098 13.9639L10.0947 13.8408C10.1876 13.7236 10.3026 13.6249 10.4336 13.5508L10.5684 13.4854C10.7068 13.4291 10.8555 13.4004 11.0059 13.4004H15.1504V4.47461H2.84961V13.4004ZM16.3496 13.4375C16.3496 13.7458 16.2278 14.0418 16.0098 14.2598C15.7918 14.4778 15.4958 14.5996 15.1875 14.5996H11.0273L9.99609 16.3174C9.89282 16.4894 9.74688 16.6316 9.57227 16.7305C9.39766 16.8293 9.20066 16.8818 9 16.8818C8.79925 16.8818 8.60145 16.8294 8.42676 16.7305C8.25222 16.6316 8.10615 16.4894 8.00293 16.3174L6.97266 14.5996H2.8125C2.50419 14.5996 2.20825 14.4778 1.99023 14.2598C1.77222 14.0418 1.65039 13.7458 1.65039 13.4375V4.4375C1.65039 4.12919 1.77222 3.83325 1.99023 3.61523L2.07617 3.53809C2.28298 3.36877 2.54287 3.27539 2.8125 3.27539H15.1875C15.4571 3.27539 15.717 3.36877 15.9238 3.53809L16.0098 3.61523L16.0869 3.70117C16.2562 3.90798 16.3496 4.16787 16.3496 4.4375V13.4375Z" fill="currentColor"/>
        </symbol>
        <symbol id="quote" viewBox="0 0 32 26">
            <path opacity="0.3" fill-rule="evenodd" clip-rule="evenodd" d="M23.8222 0C20.4357 0 17.6851 2.65696 17.6851 5.9336C17.6851 9.20821 20.4357 11.8672 23.8222 11.8672C29.6404 11.8672 26.2689 22.171 18.931 23.2443C18.5848 23.2936 18.2688 23.4578 18.0403 23.7071C17.8117 23.9563 17.6857 24.2742 17.6851 24.6032C17.6851 25.4456 18.487 26.1119 19.3751 25.9843C32.7122 24.0847 37.4546 0.00202497 23.8222 0.00202497V0ZM6.13933 0C2.74847 0 0 2.65493 0 5.9336C0 9.20619 2.74847 11.8631 6.13933 11.8631C11.9553 11.8631 8.58385 22.171 1.24597 23.2443C0.900119 23.2936 0.58443 23.4575 0.355931 23.7063C0.127431 23.9551 0.00118682 24.2725 0 24.6011C0 25.4436 0.801907 26.1098 1.68788 25.9823C15.0293 24.0827 19.7717 0 6.13933 0Z" fill="#00B307"/>
        </symbol>
        <symbol id="home" viewBox="0 0 32 26">
            <path d="M1 8L9 1L17 8V18H12V14C12 13.2044 11.6839 12.4413 11.1213 11.8787C10.5587 11.3161 9.79565 11 9 11C8.20435 11 7.44129 11.3161 6.87868 11.8787C6.31607 12.4413 6 13.2044 6 14V18H1V8Z" stroke="#808080" stroke-width="1.5" stroke-linecap="round" stroke-linejoin="round"/>
        </symbol>
        <symbol id="filter" viewBox="0 0 22 19" fill="none">
            <path d="M18 5H9" stroke="white" stroke-width="1.5" stroke-linecap="round" stroke-linejoin="round"/>
            <path d="M13 14H4" stroke="white" stroke-width="1.5" stroke-linecap="round" stroke-linejoin="round"/>
            <circle cx="5" cy="5" r="4" stroke="white" stroke-width="1.5"/>
            <circle cx="17" cy="14" r="4" stroke="white" stroke-width="1.5"/>
        </symbol>
    </defs>
</svg>