<?xml version="1.0" encoding="utf-8"?>
<svg style="display: none;" xmlns="http://www.w3.org/2000/svg">
    <defs>
        <symbol id="map-pin" viewBox="0 0 16 19">
            <path d="M8.27344 18.918C8.10716 19.0267 7.89284 19.0267 7.72656 18.918L8 18.5L8.27344 18.918ZM15 7.86328C14.9999 6.04611 14.2647 4.30149 12.9531 3.01367C11.641 1.72545 9.85945 1 8 1C6.14055 1 4.35895 1.72545 3.04688 3.01367C1.73527 4.30149 1.0001 6.04611 1 7.86328C1 10.5224 2.75357 13.0591 4.60938 14.9824C5.52651 15.9329 6.4455 16.7104 7.13574 17.25C7.48043 17.5195 7.7673 17.7287 7.9668 17.8701C7.97796 17.878 7.98939 17.8851 8 17.8926C8.01061 17.8851 8.02204 17.878 8.0332 17.8701C8.2327 17.7287 8.51957 17.5195 8.86426 17.25C9.5545 16.7104 10.4735 15.9329 11.3906 14.9824C13.2464 13.0591 15 10.5224 15 7.86328ZM16 7.86328C16 10.9314 14.0035 13.7137 12.1094 15.6768C11.1516 16.6693 10.1954 17.4774 9.47949 18.0371C9.12112 18.3173 8.82197 18.5362 8.61133 18.6855C8.50598 18.7602 8.42272 18.8183 8.36523 18.8574C8.33671 18.8768 8.31418 18.8911 8.29883 18.9014C8.29112 18.9065 8.28545 18.9113 8.28125 18.9141C8.27926 18.9154 8.27754 18.9162 8.27637 18.917L8.27441 18.918L8 18.5L7.72559 18.918L7.72363 18.917C7.72246 18.9162 7.72074 18.9154 7.71875 18.9141C7.71455 18.9113 7.70888 18.9065 7.70117 18.9014C7.68582 18.8911 7.66329 18.8768 7.63477 18.8574C7.57728 18.8183 7.49402 18.7602 7.38867 18.6855C7.17803 18.5362 6.87888 18.3173 6.52051 18.0371C5.80455 17.4774 4.84841 16.6693 3.89062 15.6768C1.99649 13.7137 0 10.9314 0 7.86328C9.58567e-05 5.77485 0.845487 3.7737 2.34668 2.2998C3.84762 0.826268 5.8813 0 8 0C10.1187 0 12.1524 0.826267 13.6533 2.2998C15.1545 3.7737 15.9999 5.77485 16 7.86328Z" fill="currentColor"/>
            <path d="M10 7.86322C9.99975 6.79256 9.1131 5.90912 8 5.90912C6.8869 5.90912 6.00025 6.79256 6 7.86322C6 8.93408 6.88674 9.8183 8 9.8183C9.11326 9.8183 10 8.93408 10 7.86322ZM11 7.86322C11 9.50358 9.64817 10.8183 8 10.8183C6.35183 10.8183 5 9.50358 5 7.86322C5.00024 6.22307 6.35198 4.90912 8 4.90912C9.64802 4.90912 10.9998 6.22307 11 7.86322Z" fill="currentColor"/>
        </symbol>
        <symbol id="chevron-down" viewBox="0 0 8 5">
            <path d="M7.14645 0.396263C7.34171 0.201002 7.65822 0.201001 7.85348 0.396263C8.04874 0.591526 8.04874 0.908033 7.85348 1.10329L4.35348 4.60329C4.15822 4.79856 3.84171 4.79856 3.64645 4.60329L0.146447 1.10329C-0.0488155 0.908033 -0.0488155 0.591526 0.146447 0.396263C0.341709 0.201001 0.658216 0.201001 0.853478 0.396263L3.99996 3.54275L7.14645 0.396263Z" fill="currentColor"/>
        </symbol>
        <symbol id="arrow-right" viewBox="0 0 17 14">
            <path d="M16.25 6.25056C16.6642 6.25056 17 6.58634 17 7.00056C17 7.41477 16.6642 7.75056 16.25 7.75056H1.25C0.835786 7.75056 0.5 7.41477 0.5 7.00056C0.5 6.58634 0.835786 6.25056 1.25 6.25056H16.25Z" fill="currentColor"/>
            <path d="M9.66875 0.446257C9.96102 0.152899 10.4358 0.152097 10.7293 0.444304L16.7791 6.46774C16.9204 6.60848 16.9998 6.80051 16.9998 6.99997C16.9997 7.19927 16.9203 7.39057 16.7791 7.53122L10.7293 13.5556C10.4358 13.8479 9.96104 13.8471 9.66875 13.5537C9.37648 13.2602 9.37724 12.7854 9.6707 12.4931L15.1863 6.99899L9.6707 1.5068C9.37734 1.21453 9.37654 0.739725 9.66875 0.446257Z" fill="currentColor"/>
        </symbol>
        <symbol id="search" viewBox="0 0 20 21">
            <path d="M15.083 9.66656C15.083 6.39899 12.4345 3.74975 9.16699 3.74957C5.89931 3.74957 3.25 6.39888 3.25 9.66656C3.25018 12.9341 5.89942 15.5826 9.16699 15.5826C12.4344 15.5824 15.0828 12.934 15.083 9.66656ZM16.583 9.66656C16.5828 13.7624 13.2628 17.0824 9.16699 17.0826C5.07099 17.0826 1.75018 13.7625 1.75 9.66656C1.75 5.57045 5.07088 2.24957 9.16699 2.24957C13.263 2.24975 16.583 5.57056 16.583 9.66656Z" fill="currentColor"/>
            <path d="M13.3447 13.8443C13.6376 13.5514 14.1123 13.5514 14.4052 13.8443L18.0302 17.4693C18.3231 17.7622 18.3231 18.237 18.0302 18.5299C17.7373 18.8227 17.2626 18.8227 16.9697 18.5299L13.3447 14.9049C13.0518 14.612 13.0518 14.1372 13.3447 13.8443Z" fill="currentColor"/>
        </symbol>
        <symbol id="heart" viewBox="0 0 30 26">
            <path d="M14.9996 2.80273C19.4105 -1.8915 26.2204 -0.203406 28.6686 4.59961C29.963 7.13935 30.0093 10.4692 28.0319 14.0703C26.0644 17.6527 22.1003 21.5042 15.3619 25.2285L14.9996 25.4287L14.6363 25.2285C7.89822 21.5042 3.93462 17.6528 1.9674 14.0703C-0.00998271 10.4692 0.0372179 7.13935 1.33165 4.59961C3.77982 -0.203353 10.5892 -1.89156 14.9996 2.80273ZM27.3317 5.28027C25.2248 1.14726 19.2195 -0.177764 15.5875 4.41504L14.9996 5.15918L14.4117 4.41504C10.7804 -0.17772 4.77554 1.14727 2.66857 5.28027C1.62985 7.31809 1.50966 10.12 3.28185 13.3477C5.03143 16.5339 8.63156 20.1327 14.9986 23.7109C21.3669 20.1324 24.9676 16.5342 26.7174 13.3477C28.4898 10.1199 28.3704 7.31812 27.3317 5.28027Z" fill="currentColor"/>
        </symbol>
        <symbol id="basket" viewBox="0 0 34 35">
            <path d="M21.917 10.4166C21.917 7.70116 19.7154 5.49957 17 5.49957C14.2846 5.49957 12.0831 7.70116 12.0831 10.4166V13.9166H21.917V10.4166ZM21.917 18.9166V15.4166H12.0831V18.9166C12.0829 19.3306 11.7472 19.6666 11.3331 19.6666C10.9191 19.6664 10.5832 19.3305 10.5831 18.9166V15.4166H7.70903L5.14946 29.4996H28.8506L26.2911 15.4166H23.417V18.9166C23.4169 19.3305 23.081 19.6664 22.667 19.6666C22.2529 19.6666 21.9172 19.3306 21.917 18.9166ZM23.417 13.9166H26.917C27.2793 13.9167 27.5894 14.1755 27.6543 14.5318L30.4883 30.1158C30.5279 30.3344 30.4685 30.5594 30.3262 30.73C30.1837 30.9008 29.9724 30.9996 29.75 30.9996H4.25005C4.02766 30.9996 3.81637 30.9008 3.67388 30.73C3.53161 30.5594 3.47216 30.3344 3.51177 30.1158L6.34575 14.5318L6.38091 14.4029C6.48879 14.1146 6.76614 13.9167 7.08306 13.9166H10.5831V10.4166C10.5831 6.87274 13.4562 3.99957 17 3.99957C20.5439 3.99957 23.417 6.87274 23.417 10.4166V13.9166Z" fill="currentColor"/>
        </symbol>
        <symbol id="phone-call" viewBox="0 0 28 28">
            <path d="M16.7113 4.18016C16.8188 3.78033 17.2304 3.54264 17.6302 3.64988C19.2404 4.08295 20.709 4.93183 21.888 6.11082C23.0671 7.28992 23.9159 8.75837 24.349 10.3686C24.4565 10.7686 24.2196 11.18 23.8197 11.2876C23.4197 11.3951 23.0084 11.1582 22.9007 10.7583C22.5359 9.40182 21.8207 8.16462 20.8275 7.17137C19.8344 6.17835 18.5977 5.46395 17.2416 5.0991C16.8417 4.99157 16.604 4.58 16.7113 4.18016Z" fill="currentColor"/>
            <path d="M15.806 7.56108C15.9137 7.1613 16.326 6.9242 16.7259 7.03178C17.7423 7.30529 18.669 7.84128 19.4134 8.58549C20.1578 9.32991 20.6935 10.2574 20.9671 11.274C21.0747 11.674 20.8378 12.0853 20.4378 12.1929C20.0378 12.3004 19.6264 12.0636 19.5188 11.6636C19.3136 10.9008 18.9114 10.2056 18.3528 9.64702C17.7942 9.08836 17.0982 8.68625 16.3352 8.481C15.9355 8.37325 15.6984 7.96095 15.806 7.56108Z" fill="currentColor"/>
            <path d="M8.87012 2.79692C9.21915 2.75483 9.57264 2.82694 9.87695 3.00297C10.1805 3.17858 10.419 3.44809 10.5566 3.77055L12.7549 8.89848V8.89946C12.8599 9.1455 12.9024 9.41424 12.8789 9.68071C12.8553 9.94696 12.7665 10.2031 12.6201 10.4268L10.7998 13.2081L10.7852 13.2373C10.7819 13.2469 10.78 13.2574 10.7793 13.2676C10.7781 13.2861 10.7818 13.3044 10.7891 13.3213L10.9512 13.6377C11.7951 15.1948 13.1079 16.4508 14.707 17.2256L14.7354 17.2354C14.7453 17.2372 14.7555 17.2371 14.7656 17.2364C14.7858 17.2348 14.8055 17.2282 14.8223 17.2168L14.8262 17.2139L17.5645 15.3887C17.7891 15.2387 18.0484 15.1471 18.3174 15.1221C18.5862 15.0972 18.8572 15.1401 19.1055 15.2461L18.9521 15.6045L18.9102 15.7032L19.1064 15.2461L24.2275 17.4414L24.3457 17.4981C24.6166 17.64 24.843 17.8559 24.9971 18.1221C25.1731 18.4264 25.2452 18.78 25.2031 19.1289V19.1348L24.459 19.0391L24.3994 19.0313L25.2031 19.1348C25.0178 20.5827 24.3105 21.9135 23.2148 22.878C22.1192 23.8423 20.7096 24.374 19.25 24.3741C15.106 24.3741 11.1314 22.7281 8.20117 19.7979C5.27104 16.8677 3.625 12.893 3.625 8.74907C3.62522 7.28955 4.15764 5.8797 5.12207 4.78422C6.08655 3.68888 7.41755 2.98297 8.86523 2.79789L8.87012 2.79692ZM5.125 8.74907C5.125 12.4952 6.6129 16.0884 9.26172 18.7373C11.9107 21.3863 15.5038 22.8741 19.25 22.8741L19.4551 22.8702C20.4762 22.8235 21.4533 22.43 22.2236 21.752C23.0442 21.0297 23.5739 20.0333 23.7139 18.9493C23.7169 18.9231 23.7114 18.8969 23.6982 18.8741C23.685 18.8511 23.665 18.8327 23.6406 18.8223L23.9385 18.1221L23.9336 18.1319L23.6406 18.8223L23.6387 18.8213L18.5166 16.625V16.626C18.4976 16.6179 18.4766 16.6144 18.4561 16.6163C18.4354 16.6182 18.4147 16.6252 18.3975 16.6368L15.6621 18.4581L15.6631 18.459C15.4303 18.6167 15.1602 18.711 14.8799 18.7325C14.6697 18.7485 14.4591 18.7236 14.2598 18.6592L14.0596 18.5791L13.6865 18.3887C11.8477 17.4022 10.3612 15.8615 9.44141 13.9805L10.0527 13.6807L9.43945 13.9766C9.31831 13.7246 9.26434 13.445 9.2832 13.1661C9.30207 12.8871 9.3929 12.6173 9.54688 12.3838L11.3652 9.60551C11.3764 9.58835 11.383 9.5683 11.3848 9.54789C11.3865 9.5279 11.3837 9.50782 11.376 9.4893L9.17773 4.36235L9.17676 4.35942C9.1664 4.33526 9.1487 4.31502 9.12598 4.3018C9.10302 4.28852 9.07516 4.28202 9.04883 4.2852C7.96546 4.42522 6.97007 4.95552 6.24805 5.77543C5.52474 6.59703 5.12522 7.65446 5.125 8.74907Z" fill="currentColor"/>
        </symbol>
    </defs>
</svg>