<svg width="20" height="20" viewBox="0 0 20 20" fill="none" xmlns="http://www.w3.org/2000/svg">
<path d="M10 1.66438C10.4152 1.66444 10.8237 1.77122 11.1856 1.97493C11.5473 2.17862 11.8501 2.47255 12.0654 2.82747L11.4238 3.21712L11.5117 3.16438L12.0654 2.82747L12.0684 2.83138L19.126 14.6146L18.46 15.013L18.4834 15.0003L19.126 14.6146L19.1328 14.6253C19.3437 14.9906 19.4549 15.4047 19.4561 15.8265C19.4572 16.2485 19.3486 16.664 19.1397 17.0306C18.9307 17.3971 18.6292 17.7024 18.2656 17.9163C17.902 18.1303 17.4883 18.2457 17.0664 18.2503L17.0576 17.4154V17.5003L17.0664 18.2503H2.93263L2.94142 17.5003V17.4154L2.93263 18.2503C2.51093 18.2456 2.09787 18.1302 1.73438 17.9163C1.37084 17.7024 1.06932 17.397 0.860361 17.0306C0.651397 16.664 0.541797 16.2485 0.542978 15.8265C0.54419 15.4046 0.656256 14.9907 0.867197 14.6253L0.873056 14.6146L1.51661 15.0003L1.53907 15.013L0.873056 14.6146L7.93165 2.83138L8.5381 3.19466L7.9336 2.82747C8.149 2.47246 8.45262 2.17865 8.81446 1.97493C9.17628 1.77132 9.58483 1.66438 10 1.66438ZM10 3.16438C9.84246 3.16438 9.6871 3.20526 9.54981 3.28255C9.41263 3.35983 9.29749 3.47116 9.21583 3.60579L2.16505 15.3743C2.08509 15.5128 2.04351 15.6705 2.04298 15.8304C2.04253 15.9904 2.08384 16.1484 2.1631 16.2874C2.24236 16.4265 2.35718 16.5422 2.49513 16.6234C2.63293 16.7044 2.78938 16.7485 2.94923 16.7503H17.0498C17.2098 16.7486 17.367 16.7045 17.5049 16.6234C17.6427 16.5422 17.7567 16.4263 17.8359 16.2874C17.9152 16.1484 17.9565 15.9905 17.9561 15.8304C17.9555 15.6705 17.913 15.5138 17.833 15.3753V15.3743L10.7832 3.60579L10.7158 3.50911C10.6426 3.4174 10.5521 3.34049 10.4492 3.28255C10.312 3.20531 10.1574 3.16444 10 3.16438Z" fill="#EA4B48"/>
<path d="M9.25 10.833V7.5C9.25 7.08579 9.58579 6.75 10 6.75C10.4142 6.75 10.75 7.08579 10.75 7.5V10.833C10.75 11.2472 10.4142 11.583 10 11.583C9.58579 11.583 9.25 11.2472 9.25 10.833Z" fill="#EA4B48"/>
<path d="M10.0088 13.4167C10.4228 13.4169 10.7588 13.7526 10.7588 14.1667C10.7588 14.5807 10.4228 14.9164 10.0088 14.9167H10C9.58579 14.9167 9.25 14.5809 9.25 14.1667C9.25 13.7524 9.58579 13.4167 10 13.4167H10.0088Z" fill="#EA4B48"/>
</svg>
