<svg width="20" height="21" viewBox="0 0 20 21" fill="none" xmlns="http://www.w3.org/2000/svg">
<path d="M17.584 10.4997C17.5838 6.31167 14.1881 2.91667 10 2.91667C5.8121 2.91684 2.41717 6.31177 2.41699 10.4997C2.41699 14.6877 5.81199 18.0835 10 18.0837C14.1882 18.0837 17.584 14.6878 17.584 10.4997ZM19.084 10.4997C19.084 15.5163 15.0166 19.5837 10 19.5837C4.98356 19.5835 0.916992 15.5162 0.916992 10.4997C0.917168 5.48335 4.98367 1.41684 10 1.41667C15.0165 1.41667 19.0838 5.48324 19.084 10.4997Z" fill="#FF8A00"/>
<path d="M9.25 10.4997V7.16667C9.25 6.75246 9.58579 6.41667 10 6.41667C10.4142 6.41667 10.75 6.75246 10.75 7.16667V10.4997C10.75 10.9139 10.4142 11.2497 10 11.2497C9.58579 11.2497 9.25 10.9139 9.25 10.4997Z" fill="#FF8A00"/>
<path d="M10.0088 13.0833C10.4228 13.0836 10.7588 13.4193 10.7588 13.8333C10.7588 14.2474 10.4228 14.5831 10.0088 14.5833H10C9.58579 14.5833 9.25 14.2475 9.25 13.8333C9.25 13.4191 9.58579 13.0833 10 13.0833H10.0088Z" fill="#FF8A00"/>
</svg>
