<svg width="17" height="14" viewBox="0 0 17 14" fill="none" xmlns="http://www.w3.org/2000/svg">
<path d="M16.25 6.25056C16.6642 6.25056 17 6.58634 17 7.00056C17 7.41477 16.6642 7.75056 16.25 7.75056H1.25C0.835786 7.75056 0.5 7.41477 0.5 7.00056C0.5 6.58634 0.835786 6.25056 1.25 6.25056H16.25Z" fill="#00B307"/>
<path d="M9.66875 0.446257C9.96102 0.152899 10.4358 0.152097 10.7293 0.444304L16.7791 6.46774C16.9204 6.60848 16.9998 6.80051 16.9998 6.99997C16.9997 7.19927 16.9203 7.39057 16.7791 7.53122L10.7293 13.5556C10.4358 13.8479 9.96104 13.8471 9.66875 13.5537C9.37648 13.2602 9.37724 12.7854 9.6707 12.4931L15.1863 6.99899L9.6707 1.5068C9.37734 1.21453 9.37654 0.739725 9.66875 0.446257Z" fill="#00B307"/>
</svg>
