<svg width="34" height="35" viewBox="0 0 34 35" fill="none" xmlns="http://www.w3.org/2000/svg">
<path d="M21.917 10.4166C21.917 7.70116 19.7154 5.49957 17 5.49957C14.2846 5.49957 12.0831 7.70116 12.0831 10.4166V13.9166H21.917V10.4166ZM21.917 18.9166V15.4166H12.0831V18.9166C12.0829 19.3306 11.7472 19.6666 11.3331 19.6666C10.9191 19.6664 10.5832 19.3305 10.5831 18.9166V15.4166H7.70903L5.14946 29.4996H28.8506L26.2911 15.4166H23.417V18.9166C23.4169 19.3305 23.081 19.6664 22.667 19.6666C22.2529 19.6666 21.9172 19.3306 21.917 18.9166ZM23.417 13.9166H26.917C27.2793 13.9167 27.5894 14.1755 27.6543 14.5318L30.4883 30.1158C30.5279 30.3344 30.4685 30.5594 30.3262 30.73C30.1837 30.9008 29.9724 30.9996 29.75 30.9996H4.25005C4.02766 30.9996 3.81637 30.9008 3.67388 30.73C3.53161 30.5594 3.47216 30.3344 3.51177 30.1158L6.34575 14.5318L6.38091 14.4029C6.48879 14.1146 6.76614 13.9167 7.08306 13.9166H10.5831V10.4166C10.5831 6.87274 13.4562 3.99957 17 3.99957C20.5439 3.99957 23.417 6.87274 23.417 10.4166V13.9166Z" fill="#1A1A1A"/>
</svg>
