<svg width="18" height="19" viewBox="0 0 18 19" fill="none" xmlns="http://www.w3.org/2000/svg">
<path d="M2.84961 13.4004H6.99414C7.14459 13.4003 7.2931 13.4291 7.43164 13.4854L7.56641 13.5508L7.69238 13.6328C7.77208 13.6926 7.84338 13.7627 7.90527 13.8408L7.99121 13.9639L9 15.6455L10.0098 13.9639L10.0947 13.8408C10.1876 13.7236 10.3026 13.6249 10.4336 13.5508L10.5684 13.4854C10.7068 13.4291 10.8555 13.4004 11.0059 13.4004H15.1504V4.47461H2.84961V13.4004ZM16.3496 13.4375C16.3496 13.7458 16.2278 14.0418 16.0098 14.2598C15.7918 14.4778 15.4958 14.5996 15.1875 14.5996H11.0273L9.99609 16.3174C9.89282 16.4894 9.74688 16.6316 9.57227 16.7305C9.39766 16.8293 9.20066 16.8818 9 16.8818C8.79925 16.8818 8.60145 16.8294 8.42676 16.7305C8.25222 16.6316 8.10615 16.4894 8.00293 16.3174L6.97266 14.5996H2.8125C2.50419 14.5996 2.20825 14.4778 1.99023 14.2598C1.77222 14.0418 1.65039 13.7458 1.65039 13.4375V4.4375C1.65039 4.12919 1.77222 3.83325 1.99023 3.61523L2.07617 3.53809C2.28298 3.36877 2.54287 3.27539 2.8125 3.27539H15.1875C15.4571 3.27539 15.717 3.36877 15.9238 3.53809L16.0098 3.61523L16.0869 3.70117C16.2562 3.90798 16.3496 4.16787 16.3496 4.4375V13.4375Z" fill="#B3B3B3"/>
</svg>
