<svg width="25" height="25" viewBox="0 0 25 25" fill="none" xmlns="http://www.w3.org/2000/svg">
<path d="M18.2197 5.71972C18.5126 5.42683 18.9873 5.42683 19.2802 5.71972C19.5731 6.01262 19.5731 6.48738 19.2802 6.78027L6.78022 19.2803C6.48732 19.5732 6.01256 19.5732 5.71967 19.2803C5.42678 18.9874 5.42678 18.5126 5.71967 18.2197L18.2197 5.71972Z" fill="#1A1A1A"/>
<path d="M5.71967 5.71972C6.01256 5.42683 6.48732 5.42683 6.78022 5.71972L19.2802 18.2197C19.5731 18.5126 19.5731 18.9874 19.2802 19.2803C18.9873 19.5732 18.5126 19.5732 18.2197 19.2803L5.71967 6.78027C5.42678 6.48738 5.42678 6.01262 5.71967 5.71972Z" fill="#1A1A1A"/>
</svg>
