<svg width="56" height="57" viewBox="0 0 56 57" fill="none" xmlns="http://www.w3.org/2000/svg">
<path d="M47.5 22.3027L28 9.30273L8.5 22.3027V44.25C8.5 44.3163 8.52636 44.3799 8.57324 44.4268C8.62012 44.4736 8.68369 44.5 8.75 44.5H47.25C47.3163 44.5 47.3799 44.4736 47.4268 44.4268C47.4736 44.3799 47.5 44.3163 47.5 44.25V22.3027ZM50.5 44.25C50.5 45.1119 50.1573 45.9384 49.5479 46.5479C48.9384 47.1573 48.1119 47.5 47.25 47.5H8.75C7.88805 47.5 7.06164 47.1573 6.45215 46.5479C5.84266 45.9384 5.5 45.112 5.5 44.25V21.5C5.5 20.9985 5.75067 20.5302 6.16797 20.252L27.168 6.25195L27.2637 6.19336C27.7529 5.91749 28.3595 5.93693 28.832 6.25195L49.832 20.252C50.2493 20.5302 50.5 20.9985 50.5 21.5V44.25Z" fill="#00B307"/>
<path d="M23.3164 32.5244C23.993 32.0468 24.9294 32.2082 25.4072 32.8848C25.8849 33.5614 25.7234 34.4977 25.0469 34.9756L8.4043 46.7295C7.72763 47.2074 6.79141 47.0468 6.31348 46.3701C5.8357 45.6935 5.99723 44.7572 6.67383 44.2793L23.3164 32.5244Z" fill="#00B307"/>
<path d="M30.5929 32.8848C31.0708 32.2083 32.0072 32.0467 32.6838 32.5244L49.3263 44.2812C50.003 44.7592 50.1637 45.6954 49.6857 46.3721C49.2077 47.0484 48.2724 47.2093 47.5959 46.7314L30.9533 34.9756C30.2768 34.4977 30.1153 33.5614 30.5929 32.8848Z" fill="#00B307"/>
<path d="M48.1288 20.2783C48.8034 19.7974 49.7407 19.9544 50.2216 20.6289C50.7025 21.3034 50.5455 22.2407 49.871 22.7217L32.6894 34.9717C32.4352 35.1529 32.1305 35.25 31.8183 35.25H24.1816C23.8694 35.25 23.5647 35.1529 23.3105 34.9717L6.12883 22.7217C5.45434 22.2407 5.29733 21.3034 5.77825 20.6289C6.25919 19.9544 7.1965 19.7974 7.87102 20.2783L24.662 32.25H31.3378L48.1288 20.2783Z" fill="#00B307"/>
</svg>
