<svg width="19" height="16" viewBox="0 0 19 16" fill="none" xmlns="http://www.w3.org/2000/svg">
<path d="M9.50023 0.791016C12.914 0.791016 15.2909 2.56337 16.7844 4.27832C17.5311 5.13573 18.0683 5.99008 18.4192 6.62988C18.595 6.95051 18.7254 7.21981 18.8127 7.41113C18.8564 7.50686 18.8897 7.58366 18.9123 7.6377C18.9236 7.66455 18.9325 7.68578 18.9387 7.70117C18.9417 7.70867 18.9437 7.7151 18.9455 7.71973L18.9494 7.72754V7.72852C18.9496 7.72885 18.9496 7.72929 18.2502 8C18.9422 8.26788 18.9495 8.27112 18.9494 8.27148V8.27246L18.9455 8.28027C18.9437 8.28492 18.9418 8.29125 18.9387 8.29883C18.9325 8.3142 18.9236 8.33544 18.9123 8.3623C18.8897 8.41633 18.8564 8.49316 18.8127 8.58887C18.7254 8.78016 18.595 9.04949 18.4192 9.37012C18.0683 10.0098 17.5311 10.8644 16.7844 11.7217C15.2909 13.4362 12.9138 15.208 9.50023 15.208C6.08664 15.208 3.70958 13.4362 2.21605 11.7217C1.46932 10.8644 0.932158 10.0098 0.581283 9.37012C0.405434 9.04949 0.275011 8.78016 0.187728 8.58887C0.144058 8.49316 0.110778 8.41633 0.0881185 8.3623C0.0768535 8.33544 0.0679412 8.3142 0.0617514 8.29883C0.0586984 8.29125 0.0567494 8.28492 0.0549154 8.28027L0.0510092 8.27246C0.0508784 8.27212 0.0508119 8.27077 0.750228 8C0.0508142 7.72929 0.0508785 7.72885 0.0510092 7.72852V7.72754L0.0549154 7.71973C0.0567424 7.7151 0.0587333 7.70867 0.0617514 7.70117C0.0679488 7.68578 0.0768602 7.66455 0.0881185 7.6377C0.110777 7.58366 0.14406 7.50686 0.187728 7.41113C0.275008 7.21981 0.405473 6.95051 0.581283 6.62988C0.932137 5.99008 1.46937 5.13573 2.21605 4.27832C3.70955 2.56337 6.08647 0.791016 9.50023 0.791016ZM9.50023 2.29102C6.66408 2.29102 4.66591 3.74817 3.34691 5.2627C2.68756 6.01981 2.20893 6.78037 1.89574 7.35156C1.75018 7.61704 1.6415 7.8399 1.56761 8C1.64151 8.16008 1.75015 8.38297 1.89574 8.64844C2.20893 9.21949 2.68757 9.97939 3.34691 10.7363C4.66589 12.2505 6.66392 13.708 9.50023 13.708C12.3365 13.708 14.3346 12.2505 15.6535 10.7363C16.3129 9.97939 16.7915 9.21949 17.1047 8.64844C17.2502 8.38318 17.358 8.16006 17.4319 8C17.358 7.83993 17.2502 7.61683 17.1047 7.35156C16.7915 6.78037 16.3129 6.01981 15.6535 5.2627C14.3345 3.74817 12.3364 2.29102 9.50023 2.29102ZM0.750228 8L0.0510092 8.27051C-0.0163368 8.09639 -0.0163672 7.90361 0.0510092 7.72949L0.750228 8ZM18.9494 7.72949C19.0168 7.90361 19.0168 8.09639 18.9494 8.27051L18.2502 8L18.9494 7.72949Z" fill="#1A1A1A"/>
<path d="M11.875 8C11.875 7.37011 11.6251 6.76571 11.1797 6.32031C10.7343 5.87491 10.1299 5.625 9.5 5.625C8.87011 5.625 8.26571 5.87491 7.82031 6.32031C7.37491 6.76571 7.125 7.37011 7.125 8C7.125 8.62989 7.37491 9.23429 7.82031 9.67969C8.26571 10.1251 8.87011 10.375 9.5 10.375C10.1299 10.375 10.7343 10.1251 11.1797 9.67969C11.6251 9.23429 11.875 8.62989 11.875 8ZM13.375 8C13.375 9.02771 12.9669 10.0135 12.2402 10.7402C11.5135 11.4669 10.5277 11.875 9.5 11.875C8.47229 11.875 7.48647 11.4669 6.75977 10.7402C6.03306 10.0135 5.625 9.02771 5.625 8C5.625 6.97229 6.03306 5.98647 6.75977 5.25977C7.48647 4.53306 8.47229 4.125 9.5 4.125C10.5277 4.125 11.5135 4.53306 12.2402 5.25977C12.9669 5.98647 13.375 6.97229 13.375 8Z" fill="#1A1A1A"/>
</svg>
