<svg xmlns="http://www.w3.org/2000/svg" width="10" height="10" viewBox="0 0 10 10" fill="none">
    <path d="M5.2066 8.44078L7.57098 9.93853C7.87323 10.1298 8.24823 9.84516 8.1586 9.49228L7.47572 6.80541C7.45644 6.73057 7.45866 6.6518 7.48214 6.57816C7.50563 6.50453 7.54942 6.43902 7.60847 6.38916L9.72872 4.62478C10.007 4.39303 9.86372 3.93066 9.5056 3.90741L6.73697 3.72741C6.66243 3.72212 6.59093 3.69577 6.53078 3.65142C6.47063 3.60707 6.42431 3.54656 6.39722 3.47691L5.36448 0.876659C5.33635 0.802761 5.28644 0.739156 5.22134 0.694278C5.15624 0.649399 5.07904 0.625366 4.99998 0.625366C4.92091 0.625366 4.84371 0.649399 4.77861 0.694278C4.71351 0.739156 4.6636 0.802761 4.63548 0.876659L3.60273 3.47691C3.57569 3.54663 3.5294 3.60722 3.46925 3.65164C3.4091 3.69606 3.33756 3.72246 3.26298 3.72778L0.494351 3.90778C0.136601 3.93066 -0.00739908 4.39303 0.271226 4.62478L2.39148 6.38953C2.45047 6.43936 2.49421 6.50481 2.51769 6.57837C2.54118 6.65193 2.54344 6.73062 2.52423 6.80541L1.89123 9.29728C1.7836 9.72066 2.23398 10.0623 2.59623 9.83241L4.79373 8.44078C4.85549 8.40152 4.92716 8.38066 5.00035 8.38066C5.07354 8.38066 5.14521 8.40152 5.20697 8.44078H5.2066Z" fill="#FF8A00"/>
</svg>