<svg width="28" height="28" viewBox="0 0 28 28" fill="none" xmlns="http://www.w3.org/2000/svg">
<path d="M16.7113 4.18016C16.8188 3.78033 17.2304 3.54264 17.6302 3.64988C19.2404 4.08295 20.709 4.93183 21.888 6.11082C23.0671 7.28992 23.9159 8.75837 24.349 10.3686C24.4565 10.7686 24.2196 11.18 23.8197 11.2876C23.4197 11.3951 23.0084 11.1582 22.9007 10.7583C22.5359 9.40182 21.8207 8.16462 20.8275 7.17137C19.8344 6.17835 18.5977 5.46395 17.2416 5.0991C16.8417 4.99157 16.604 4.58 16.7113 4.18016Z" fill="white"/>
<path d="M15.806 7.56108C15.9137 7.1613 16.326 6.9242 16.7259 7.03178C17.7423 7.30529 18.669 7.84128 19.4134 8.58549C20.1578 9.32991 20.6935 10.2574 20.9671 11.274C21.0747 11.674 20.8378 12.0853 20.4378 12.1929C20.0378 12.3004 19.6264 12.0636 19.5188 11.6636C19.3136 10.9008 18.9114 10.2056 18.3528 9.64702C17.7942 9.08836 17.0982 8.68625 16.3352 8.481C15.9355 8.37325 15.6984 7.96095 15.806 7.56108Z" fill="white"/>
<path d="M8.87012 2.79692C9.21915 2.75483 9.57264 2.82694 9.87695 3.00297C10.1805 3.17858 10.419 3.44809 10.5566 3.77055L12.7549 8.89848V8.89946C12.8599 9.1455 12.9024 9.41424 12.8789 9.68071C12.8553 9.94696 12.7665 10.2031 12.6201 10.4268L10.7998 13.2081L10.7852 13.2373C10.7819 13.2469 10.78 13.2574 10.7793 13.2676C10.7781 13.2861 10.7818 13.3044 10.7891 13.3213L10.9512 13.6377C11.7951 15.1948 13.1079 16.4508 14.707 17.2256L14.7354 17.2354C14.7453 17.2372 14.7555 17.2371 14.7656 17.2364C14.7858 17.2348 14.8055 17.2282 14.8223 17.2168L14.8262 17.2139L17.5645 15.3887C17.7891 15.2387 18.0484 15.1471 18.3174 15.1221C18.5862 15.0972 18.8572 15.1401 19.1055 15.2461L18.9521 15.6045L18.9102 15.7032L19.1064 15.2461L24.2275 17.4414L24.3457 17.4981C24.6166 17.64 24.843 17.8559 24.9971 18.1221C25.1731 18.4264 25.2452 18.78 25.2031 19.1289V19.1348L24.459 19.0391L24.3994 19.0313L25.2031 19.1348C25.0178 20.5827 24.3105 21.9135 23.2148 22.878C22.1192 23.8423 20.7096 24.374 19.25 24.3741C15.106 24.3741 11.1314 22.7281 8.20117 19.7979C5.27104 16.8677 3.625 12.893 3.625 8.74907C3.62522 7.28955 4.15764 5.8797 5.12207 4.78422C6.08655 3.68888 7.41755 2.98297 8.86523 2.79789L8.87012 2.79692ZM5.125 8.74907C5.125 12.4952 6.6129 16.0884 9.26172 18.7373C11.9107 21.3863 15.5038 22.8741 19.25 22.8741L19.4551 22.8702C20.4762 22.8235 21.4533 22.43 22.2236 21.752C23.0442 21.0297 23.5739 20.0333 23.7139 18.9493C23.7169 18.9231 23.7114 18.8969 23.6982 18.8741C23.685 18.8511 23.665 18.8327 23.6406 18.8223L23.9385 18.1221L23.9336 18.1319L23.6406 18.8223L23.6387 18.8213L18.5166 16.625V16.626C18.4976 16.6179 18.4766 16.6144 18.4561 16.6163C18.4354 16.6182 18.4147 16.6252 18.3975 16.6368L15.6621 18.4581L15.6631 18.459C15.4303 18.6167 15.1602 18.711 14.8799 18.7325C14.6697 18.7485 14.4591 18.7236 14.2598 18.6592L14.0596 18.5791L13.6865 18.3887C11.8477 17.4022 10.3612 15.8615 9.44141 13.9805L10.0527 13.6807L9.43945 13.9766C9.31831 13.7246 9.26434 13.445 9.2832 13.1661C9.30207 12.8871 9.3929 12.6173 9.54688 12.3838L11.3652 9.60551C11.3764 9.58835 11.383 9.5683 11.3848 9.54789C11.3865 9.5279 11.3837 9.50782 11.376 9.4893L9.17773 4.36235L9.17676 4.35942C9.1664 4.33526 9.1487 4.31502 9.12598 4.3018C9.10302 4.28852 9.07516 4.28202 9.04883 4.2852C7.96546 4.42522 6.97007 4.95552 6.24805 5.77543C5.52474 6.59703 5.12522 7.65446 5.125 8.74907Z" fill="white"/>
</svg>
