<svg width="20" height="21" viewBox="0 0 20 21" fill="none" xmlns="http://www.w3.org/2000/svg">
<path d="M15.083 9.66656C15.083 6.39899 12.4345 3.74975 9.16699 3.74957C5.89931 3.74957 3.25 6.39888 3.25 9.66656C3.25018 12.9341 5.89942 15.5826 9.16699 15.5826C12.4344 15.5824 15.0828 12.934 15.083 9.66656ZM16.583 9.66656C16.5828 13.7624 13.2628 17.0824 9.16699 17.0826C5.07099 17.0826 1.75018 13.7625 1.75 9.66656C1.75 5.57045 5.07088 2.24957 9.16699 2.24957C13.263 2.24975 16.583 5.57056 16.583 9.66656Z" fill="#1A1A1A"/>
<path d="M13.3447 13.8443C13.6376 13.5514 14.1123 13.5514 14.4052 13.8443L18.0302 17.4693C18.3231 17.7622 18.3231 18.237 18.0302 18.5299C17.7373 18.8227 17.2626 18.8227 16.9697 18.5299L13.3447 14.9049C13.0518 14.612 13.0518 14.1372 13.3447 13.8443Z" fill="#1A1A1A"/>
</svg>
