<svg width="20" height="21" viewBox="0 0 20 21" fill="none" xmlns="http://www.w3.org/2000/svg">
<path d="M17.0425 10.4997C17.0424 10.2185 16.9319 9.9484 16.7339 9.74872L9.75146 2.7663H2.26611V10.2507L9.24951 17.2263C9.34848 17.3253 9.4659 17.4041 9.59521 17.4577C9.7247 17.5114 9.86422 17.5388 10.0044 17.5388C10.1444 17.5387 10.2832 17.5113 10.4126 17.4577C10.5419 17.4041 10.6593 17.3253 10.7583 17.2263L11.6079 18.0739C11.3974 18.2847 11.1468 18.452 10.8716 18.5661C10.5966 18.68 10.302 18.7389 10.0044 18.739C9.7066 18.739 9.41134 18.6801 9.13623 18.5661C8.86136 18.4522 8.61125 18.2853 8.40088 18.0749L1.24268 10.9245C1.13 10.812 1.06689 10.6589 1.06689 10.4997V2.16669C1.06689 1.83532 1.33513 1.56708 1.6665 1.56708H9.99951C10.1586 1.56708 10.3118 1.63034 10.4243 1.74286L17.5835 8.90204L17.2993 9.18329L17.2427 9.23993L17.5835 8.90204C18.0056 9.32665 18.2426 9.90099 18.2427 10.4997C18.2427 11.0985 18.0057 11.6736 17.5835 12.0983L17.1577 11.6745L17.5825 12.0993L11.6079 18.0739L10.7593 17.2253L16.7339 11.2507C16.9317 11.0509 17.0425 10.7809 17.0425 10.4997Z" fill="#B3B3B3"/>
<path d="M5.8418 5.58337C6.2558 5.58362 6.5918 5.91931 6.5918 6.33337C6.5918 6.74744 6.2558 7.08313 5.8418 7.08337H5.83301C5.41879 7.08337 5.08301 6.74759 5.08301 6.33337C5.08301 5.91916 5.41879 5.58337 5.83301 5.58337H5.8418Z" fill="#B3B3B3"/>
</svg>
