<svg width="20" height="21" viewBox="0 0 20 21" fill="none" xmlns="http://www.w3.org/2000/svg">
<path d="M12.7334 6.33301C12.7332 4.82358 11.5095 3.59961 10 3.59961C8.49068 3.59979 7.26678 4.82369 7.2666 6.33301C7.2666 7.84248 8.49057 9.06623 10 9.06641C11.5096 9.06641 12.7334 7.84259 12.7334 6.33301ZM13.9336 6.33301C13.9336 8.50533 12.1723 10.2666 10 10.2666C7.82783 10.2664 6.06738 8.50522 6.06738 6.33301C6.06756 4.16095 7.82794 2.40057 10 2.40039C12.1722 2.40039 13.9334 4.16084 13.9336 6.33301Z" fill="#B3B3B3"/>
<path d="M12.5006 11.5671C13.8201 11.5672 15.0849 12.1707 15.8189 13.0651C16.1901 13.5175 16.4435 14.0678 16.4654 14.6686C16.4876 15.2795 16.2678 15.8826 15.7994 16.4186C14.6275 17.7594 12.7408 18.6002 10.0006 18.6003C7.26027 18.6003 5.37182 17.7595 4.1998 16.4186C3.7316 15.8828 3.51238 15.2794 3.53476 14.6686C3.55679 14.0678 3.80999 13.5176 4.18124 13.0651C4.91532 12.1705 6.18053 11.5671 7.50058 11.5671H12.5006ZM7.50058 12.7663C6.51895 12.7663 5.60219 13.2258 5.10898 13.8268C4.86676 14.1221 4.74441 14.4279 4.73398 14.7126C4.72392 14.9873 4.81549 15.2994 5.10409 15.6296C5.99211 16.6453 7.51117 17.4001 10.0006 17.4001C12.4899 17.4 14.0081 16.6454 14.8961 15.6296C15.1848 15.2993 15.2761 14.9872 15.2662 14.7126C15.2558 14.4278 15.1336 14.1212 14.8912 13.8259C14.398 13.225 13.4817 12.7664 12.5006 12.7663H7.50058Z" fill="#B3B3B3"/>
</svg>
