<svg width="28" height="27" viewBox="0 0 28 27" fill="none" xmlns="http://www.w3.org/2000/svg">
<path d="M18.917 6.41656C18.917 3.70116 16.7154 1.49957 14 1.49957C11.2846 1.49957 9.08306 3.70116 9.08306 6.41656V9.91656H18.917V6.41656ZM18.917 14.9166V11.4166H9.08306V14.9166C9.08288 15.3306 8.74716 15.6666 8.33306 15.6666C7.9191 15.6664 7.58323 15.3305 7.58306 14.9166V11.4166H4.70903L2.14946 25.4996H25.8506L23.2911 11.4166H20.417V14.9166C20.4169 15.3305 20.081 15.6664 19.667 15.6666C19.2529 15.6666 18.9172 15.3306 18.917 14.9166ZM20.417 9.91656H23.917C24.2793 9.91672 24.5894 10.1755 24.6543 10.5318L27.4883 26.1158C27.5279 26.3344 27.4685 26.5594 27.3262 26.73C27.1837 26.9008 26.9724 26.9996 26.75 26.9996H1.25005C1.02766 26.9996 0.816374 26.9008 0.673876 26.73C0.531611 26.5594 0.472158 26.3344 0.511767 26.1158L3.34575 10.5318L3.38091 10.4029C3.48879 10.1146 3.76614 9.9167 4.08306 9.91656H7.58306V6.41656C7.58306 2.87274 10.4562 -0.000427246 14 -0.000427246C17.5439 -0.000427246 20.417 2.87274 20.417 6.41656V9.91656Z" fill="#1A1A1A"/>
</svg>
