<svg width="20" height="19" viewBox="0 0 20 19" fill="none" xmlns="http://www.w3.org/2000/svg">
<path d="M17.584 9.49968C17.5838 5.31167 14.1881 1.91667 10 1.91667C5.8121 1.91684 2.41717 5.31177 2.41699 9.49968C2.41699 13.6877 5.81199 17.0835 10 17.0837C14.1882 17.0837 17.584 13.6878 17.584 9.49968ZM19.084 9.49968C19.084 14.5163 15.0166 18.5837 10 18.5837C4.98356 18.5835 0.916992 14.5162 0.916992 9.49968C0.917168 4.48335 4.98367 0.416844 10 0.416668C15.0165 0.416668 19.0838 4.48324 19.084 9.49968Z" fill="#FF8A00"/>
<path d="M9.25 9.49968V6.16667C9.25 5.75246 9.58579 5.41667 10 5.41667C10.4142 5.41667 10.75 5.75246 10.75 6.16667V9.49968C10.75 9.91389 10.4142 10.2497 10 10.2497C9.58579 10.2497 9.25 9.91389 9.25 9.49968Z" fill="#FF8A00"/>
<path d="M10.0088 12.0833C10.4228 12.0836 10.7588 12.4193 10.7588 12.8333C10.7588 13.2474 10.4228 13.5831 10.0088 13.5833H10C9.58579 13.5833 9.25 13.2475 9.25 12.8333C9.25 12.4191 9.58579 12.0833 10 12.0833H10.0088Z" fill="#FF8A00"/>
</svg>
