<svg width="22" height="19" viewBox="0 0 22 19" fill="none" xmlns="http://www.w3.org/2000/svg">
<path d="M17.75 4C18.1642 4 18.5 4.33579 18.5 4.75C18.5 5.16421 18.1642 5.5 17.75 5.5H8.75C8.33579 5.5 8 5.16421 8 4.75C8 4.33579 8.33579 4 8.75 4H17.75Z" fill="white"/>
<path d="M12.75 13C13.1642 13 13.5 13.3358 13.5 13.75C13.5 14.1642 13.1642 14.5 12.75 14.5H3.75C3.33579 14.5 3 14.1642 3 13.75C3 13.3358 3.33579 13 3.75 13H12.75Z" fill="white"/>
<path d="M8 4.75C8 2.95507 6.54493 1.5 4.75 1.5C2.95507 1.5 1.5 2.95507 1.5 4.75C1.5 6.54493 2.95507 8 4.75 8C6.54493 8 8 6.54493 8 4.75ZM9.5 4.75C9.5 7.37335 7.37335 9.5 4.75 9.5C2.12665 9.5 0 7.37335 0 4.75C0 2.12665 2.12665 0 4.75 0C7.37335 0 9.5 2.12665 9.5 4.75Z" fill="white"/>
<path d="M20 13.75C20 11.9551 18.5449 10.5 16.75 10.5C14.9551 10.5 13.5 11.9551 13.5 13.75C13.5 15.5449 14.9551 17 16.75 17C18.5449 17 20 15.5449 20 13.75ZM21.5 13.75C21.5 16.3734 19.3734 18.5 16.75 18.5C14.1266 18.5 12 16.3734 12 13.75C12 11.1266 14.1266 9 16.75 9C19.3734 9 21.5 11.1266 21.5 13.75Z" fill="white"/>
</svg>
