<svg width="32" height="33" viewBox="0 0 32 33" fill="none" xmlns="http://www.w3.org/2000/svg">
<path d="M31.2749 4.84235C27.4022 4.84235 21.9311 5.16638 19.1352 7.9608C17.9247 9.17131 17.3202 11.1447 17.4771 13.3782C17.4975 13.6732 17.6937 13.9246 17.9756 14.0176C18.256 14.1092 18.5641 14.0234 18.7559 13.7982C20.3108 11.9687 22.2435 10.5024 24.5046 9.44017C24.6964 9.34862 24.9231 9.34133 25.1295 9.41401C25.3111 9.4794 25.4535 9.6029 25.5276 9.76134C25.6816 10.0869 25.6322 10.5155 25.1207 10.7567C25.0917 10.7712 25.0655 10.7902 25.0365 10.8033C25.0263 10.8076 25.0147 10.8062 25.006 10.8105C19.4346 13.4292 16.6954 17.9979 15.4514 22.6959C14.5446 16.8135 12.6294 13.3506 10.8202 11.2247C9.51095 9.52742 8.22341 8.62787 7.47943 8.11931C7.34136 8.02483 6.92435 7.74004 6.7514 7.56709C6.46803 7.28372 6.46803 6.82305 6.7514 6.53968C7.03477 6.25775 7.49687 6.25775 7.81218 6.57163C7.88923 6.63995 8.01272 6.72714 8.16966 6.83177L8.29902 6.91896C9.35108 7.6397 11.31 8.97806 13.0479 11.8597C13.2034 12.1169 13.5042 12.255 13.7963 12.1997C14.0928 12.1474 14.3252 11.9193 14.3834 11.6243C14.7627 9.68723 14.5927 6.81283 12.8649 5.08505C10.069 2.29205 4.59789 1.96802 0.726671 1.96802C0.32553 1.96795 0 2.29348 0 2.69455C0 6.5672 0.324032 12.0383 3.11846 14.8343C4.28387 15.9997 6.08147 16.5228 7.86736 16.5228C9.32486 16.5228 10.7533 16.1581 11.8476 15.5259C13.3399 18.6182 14.5316 23.2379 14.5316 30.3046C14.5316 30.7056 14.8571 31.0312 15.2582 31.0312C15.6592 31.0312 15.9848 30.7056 15.9848 30.3046C15.9848 26.3622 16.6605 21.6306 19.173 17.7362C20.18 18.72 21.9137 19.3434 23.8347 19.4015C23.9306 19.4044 24.0251 19.4059 24.1195 19.4059C26.0711 19.4059 27.796 18.7941 28.8815 17.7071C31.6773 14.9112 31.9999 9.4401 31.9999 5.56738C32.0015 5.16638 31.6774 4.84235 31.2749 4.84235Z" fill="#00B307"/>
</svg>
