<svg width="15" height="15" viewBox="0 0 15 15" fill="none" xmlns="http://www.w3.org/2000/svg">
<path d="M13.2197 0.719723C13.5126 0.42683 13.9873 0.42683 14.2802 0.719723C14.5731 1.01262 14.5731 1.48738 14.2802 1.78027L1.78022 14.2803C1.48732 14.5732 1.01256 14.5732 0.71967 14.2803C0.426777 13.9874 0.426777 13.5126 0.71967 13.2197L13.2197 0.719723Z" fill="#1A1A1A"/>
<path d="M0.71967 0.719723C1.01256 0.42683 1.48732 0.42683 1.78022 0.719723L14.2802 13.2197C14.5731 13.5126 14.5731 13.9874 14.2802 14.2803C13.9873 14.5732 13.5126 14.5732 13.2197 14.2803L0.71967 1.78027C0.426777 1.48738 0.426777 1.01262 0.71967 0.719723Z" fill="#1A1A1A"/>
</svg>
