<svg width="18" height="19" viewBox="0 0 18 19" fill="none" xmlns="http://www.w3.org/2000/svg">
<path d="M8.61841 0.354493C8.89253 0.192096 9.24695 0.219042 9.49438 0.435548L17.4944 7.43555C17.6571 7.57796 17.7502 7.78379 17.7502 8V18C17.7502 18.4142 17.4145 18.75 17.0002 18.75H12.0002C11.586 18.75 11.2502 18.4142 11.2502 18V14C11.2502 13.4033 11.013 12.8311 10.5911 12.4092C10.1691 11.9872 9.59698 11.75 9.00024 11.75C8.40351 11.75 7.83138 11.9872 7.40942 12.4092C6.98747 12.8311 6.75024 13.4033 6.75024 14V18C6.75024 18.4142 6.41446 18.75 6.00024 18.75H1.00024C0.586031 18.75 0.250244 18.4142 0.250244 18V8C0.250244 7.78379 0.343428 7.57796 0.506104 7.43555L8.5061 0.435548L8.61841 0.354493ZM12.7502 17.25H16.2502V8.33984L9.00024 1.99609L1.75024 8.33984V17.25H5.25024V14C5.25024 13.0054 5.64562 12.0519 6.34888 11.3486C7.05214 10.6454 8.00568 10.25 9.00024 10.25C9.9948 10.25 10.9484 10.6454 11.6516 11.3486C12.3549 12.0519 12.7502 13.0054 12.7502 14V17.25Z" fill="#808080"/>
</svg>
