<svg width="10" height="10" viewBox="0 0 10 10" fill="none" xmlns="http://www.w3.org/2000/svg">
<path d="M5.20663 8.44078L7.57101 9.93853C7.87326 10.1298 8.24826 9.84516 8.15863 9.49228L7.47576 6.80541C7.45647 6.73057 7.45869 6.6518 7.48217 6.57816C7.50566 6.50453 7.54945 6.43902 7.60851 6.38916L9.72875 4.62478C10.007 4.39303 9.86375 3.93066 9.50563 3.90741L6.73701 3.72741C6.66246 3.72212 6.59096 3.69577 6.53081 3.65142C6.47066 3.60707 6.42435 3.54656 6.39726 3.47691L5.36451 0.876659C5.33638 0.802761 5.28647 0.739156 5.22137 0.694278C5.15627 0.649399 5.07907 0.625366 5.00001 0.625366C4.92094 0.625366 4.84374 0.649399 4.77864 0.694278C4.71354 0.739156 4.66363 0.802761 4.63551 0.876659L3.60276 3.47691C3.57572 3.54663 3.52943 3.60722 3.46928 3.65164C3.40913 3.69606 3.33759 3.72246 3.26301 3.72778L0.494381 3.90778C0.136631 3.93066 -0.00736856 4.39303 0.271256 4.62478L2.39151 6.38953C2.4505 6.43936 2.49424 6.50481 2.51772 6.57837C2.54121 6.65193 2.54347 6.73062 2.52426 6.80541L1.89126 9.29728C1.78363 9.72066 2.23401 10.0623 2.59626 9.83241L4.79376 8.44078C4.85552 8.40152 4.92719 8.38066 5.00038 8.38066C5.07357 8.38066 5.14524 8.40152 5.20701 8.44078H5.20663Z" fill="#CCCCCC"/>
</svg>
