<svg width="17" height="15" viewBox="0 0 17 15" fill="none" xmlns="http://www.w3.org/2000/svg">
<path d="M16 6.75049C16.4142 6.75049 16.75 7.08627 16.75 7.50049C16.75 7.9147 16.4142 8.25049 16 8.25049H1C0.585786 8.25049 0.25 7.9147 0.25 7.50049C0.25 7.08627 0.585786 6.75049 1 6.75049H16Z" fill="#00B307"/>
<path d="M9.41887 0.946212C9.71115 0.652854 10.186 0.652052 10.4794 0.944258L16.5292 6.9677C16.6706 7.10843 16.7499 7.30046 16.7499 7.49992C16.7498 7.69922 16.6705 7.89053 16.5292 8.03117L10.4794 14.0556C10.1859 14.3479 9.71116 14.3471 9.41887 14.0536C9.1266 13.7601 9.12736 13.2854 9.42082 12.9931L14.9364 7.49895L9.42082 2.00676C9.12747 1.71448 9.12666 1.23968 9.41887 0.946212Z" fill="#00B307"/>
</svg>
