<svg width="16" height="14" viewBox="0 0 16 14" fill="none" xmlns="http://www.w3.org/2000/svg">
<path d="M1.84961 10.4004H5.99414C6.14459 10.4003 6.2931 10.4291 6.43164 10.4854L6.56641 10.5508L6.69238 10.6328C6.77208 10.6926 6.84338 10.7627 6.90527 10.8408L6.99121 10.9639L8 12.6455L9.00977 10.9639L9.09473 10.8408C9.18758 10.7236 9.30261 10.6249 9.43359 10.5508L9.56836 10.4854C9.70683 10.4291 9.85546 10.4004 10.0059 10.4004H14.1504V1.47461H1.84961V10.4004ZM15.3496 10.4375C15.3496 10.7458 15.2278 11.0418 15.0098 11.2598C14.7918 11.4778 14.4958 11.5996 14.1875 11.5996H10.0273L8.99609 13.3174C8.89282 13.4894 8.74688 13.6316 8.57227 13.7305C8.39766 13.8293 8.20066 13.8818 8 13.8818C7.79925 13.8818 7.60145 13.8294 7.42676 13.7305C7.25222 13.6316 7.10615 13.4894 7.00293 13.3174L5.97266 11.5996H1.8125C1.50419 11.5996 1.20825 11.4778 0.990234 11.2598C0.772223 11.0418 0.650391 10.7458 0.650391 10.4375V1.4375C0.650391 1.12919 0.772224 0.833245 0.990234 0.615234L1.07617 0.538086C1.28298 0.368767 1.54287 0.275391 1.8125 0.275391H14.1875C14.4571 0.275391 14.717 0.368767 14.9238 0.538086L15.0098 0.615234L15.0869 0.701172C15.2562 0.90798 15.3496 1.16787 15.3496 1.4375V10.4375Z" fill="#B3B3B3"/>
</svg>
