<svg width="20" height="18" viewBox="0 0 20 18" fill="none" xmlns="http://www.w3.org/2000/svg">
<path d="M10 0.664383C10.4152 0.664443 10.8237 0.771219 11.1856 0.97493C11.5473 1.17862 11.8501 1.47255 12.0654 1.82747L11.4238 2.21712L11.5117 2.16438L12.0654 1.82747L12.0684 1.83138L19.126 13.6146L18.46 14.013L18.4834 14.0003L19.126 13.6146L19.1328 13.6253C19.3437 13.9906 19.4549 14.4047 19.4561 14.8265C19.4572 15.2485 19.3486 15.664 19.1397 16.0306C18.9307 16.3971 18.6292 16.7024 18.2656 16.9163C17.902 17.1303 17.4883 17.2457 17.0664 17.2503L17.0576 16.4154V16.5003L17.0664 17.2503H2.93263L2.94142 16.5003V16.4154L2.93263 17.2503C2.51093 17.2456 2.09787 17.1302 1.73438 16.9163C1.37084 16.7024 1.06932 16.397 0.860361 16.0306C0.651397 15.664 0.541797 15.2485 0.542978 14.8265C0.54419 14.4046 0.656256 13.9907 0.867197 13.6253L0.873056 13.6146L1.51661 14.0003L1.53907 14.013L0.873056 13.6146L7.93165 1.83138L8.5381 2.19466L7.9336 1.82747C8.149 1.47246 8.45262 1.17865 8.81446 0.97493C9.17628 0.771319 9.58483 0.664383 10 0.664383ZM10 2.16438C9.84246 2.16438 9.6871 2.20526 9.54981 2.28255C9.41263 2.35983 9.29749 2.47116 9.21583 2.60579L2.16505 14.3743C2.08509 14.5128 2.04351 14.6705 2.04298 14.8304C2.04253 14.9904 2.08384 15.1484 2.1631 15.2874C2.24236 15.4265 2.35718 15.5422 2.49513 15.6234C2.63293 15.7044 2.78938 15.7485 2.94923 15.7503H17.0498C17.2098 15.7486 17.367 15.7045 17.5049 15.6234C17.6427 15.5422 17.7567 15.4263 17.8359 15.2874C17.9152 15.1484 17.9565 14.9905 17.9561 14.8304C17.9555 14.6705 17.913 14.5138 17.833 14.3753V14.3743L10.7832 2.60579L10.7158 2.50911C10.6426 2.4174 10.5521 2.34049 10.4492 2.28255C10.312 2.20531 10.1574 2.16444 10 2.16438Z" fill="#EA4B48"/>
<path d="M9.25 9.83301V6.5C9.25 6.08579 9.58579 5.75 10 5.75C10.4142 5.75 10.75 6.08579 10.75 6.5V9.83301C10.75 10.2472 10.4142 10.583 10 10.583C9.58579 10.583 9.25 10.2472 9.25 9.83301Z" fill="#EA4B48"/>
<path d="M10.0088 12.4167C10.4228 12.4169 10.7588 12.7526 10.7588 13.1667C10.7588 13.5807 10.4228 13.9164 10.0088 13.9167H10C9.58579 13.9167 9.25 13.5809 9.25 13.1667C9.25 12.7524 9.58579 12.4167 10 12.4167H10.0088Z" fill="#EA4B48"/>
</svg>
