<svg width="20" height="16" viewBox="0 0 20 16" fill="none" xmlns="http://www.w3.org/2000/svg">
<path d="M9.99974 0.791031C13.4135 0.791031 15.7904 2.56339 17.2839 4.27834C18.0306 5.13575 18.5678 5.99009 18.9187 6.6299C19.0945 6.95053 19.225 7.21983 19.3122 7.41115C19.3559 7.50688 19.3892 7.58367 19.4118 7.63771C19.4231 7.66456 19.432 7.6858 19.4382 7.70119C19.4412 7.70868 19.4432 7.71512 19.4451 7.71974L19.449 7.72755V7.72853C19.4491 7.72887 19.4492 7.7293 18.7497 8.00002C19.4417 8.2679 19.449 8.27114 19.449 8.2715V8.27248L19.4451 8.28029C19.4432 8.28493 19.4413 8.29126 19.4382 8.29884C19.432 8.31421 19.4231 8.33546 19.4118 8.36232C19.3892 8.41635 19.3559 8.49317 19.3122 8.58888C19.225 8.78017 19.0945 9.0495 18.9187 9.37013C18.5678 10.0098 18.0306 10.8644 17.2839 11.7217C15.7904 13.4362 13.4133 15.208 9.99974 15.208C6.58616 15.208 4.20909 13.4362 2.71556 11.7217C1.96883 10.8644 1.43167 10.0098 1.08079 9.37013C0.904946 9.0495 0.774523 8.78017 0.68724 8.58888C0.64357 8.49317 0.61029 8.41635 0.58763 8.36232C0.576365 8.33546 0.567453 8.31421 0.561263 8.29884C0.55821 8.29126 0.556261 8.28493 0.554427 8.28029L0.550521 8.27248C0.55039 8.27214 0.550324 8.27079 1.24974 8.00002C0.550326 7.7293 0.55039 7.72887 0.550521 7.72853V7.72755L0.554427 7.71974C0.556254 7.71512 0.558245 7.70868 0.561263 7.70119C0.56746 7.6858 0.576372 7.66456 0.58763 7.63771C0.610289 7.58367 0.643571 7.50688 0.68724 7.41115C0.77452 7.21983 0.904985 6.95053 1.08079 6.6299C1.43165 5.99009 1.96888 5.13575 2.71556 4.27834C4.20906 2.56339 6.58598 0.791031 9.99974 0.791031ZM9.99974 2.29103C7.16359 2.29103 5.16542 3.74819 3.84642 5.26271C3.18707 6.01983 2.70845 6.78039 2.39525 7.35158C2.24969 7.61705 2.14102 7.83992 2.06712 8.00002C2.14103 8.1601 2.24966 8.38299 2.39525 8.64845C2.70844 9.2195 3.18708 9.97941 3.84642 10.7363C5.1654 12.2506 7.16343 13.708 9.99974 13.708C12.8361 13.708 14.8341 12.2506 16.1531 10.7363C16.8124 9.97941 17.291 9.2195 17.6042 8.64845C17.7497 8.38319 17.8575 8.16007 17.9314 8.00002C17.8575 7.83994 17.7497 7.61685 17.6042 7.35158C17.291 6.78039 16.8124 6.01983 16.1531 5.26271C14.8341 3.74819 12.8359 2.29103 9.99974 2.29103ZM1.24974 8.00002L0.550521 8.27052C0.483175 8.0964 0.483145 7.90362 0.550521 7.72951L1.24974 8.00002ZM19.449 7.72951C19.5163 7.90362 19.5163 8.0964 19.449 8.27052L18.7497 8.00002L19.449 7.72951Z" fill="#1A1A1A"/>
<path d="M12.375 8C12.375 7.37011 12.1251 6.76571 11.6797 6.32031C11.2343 5.87491 10.6299 5.625 10 5.625C9.37011 5.625 8.76571 5.87491 8.32031 6.32031C7.87491 6.76571 7.625 7.37011 7.625 8C7.625 8.62989 7.87491 9.23429 8.32031 9.67969C8.76571 10.1251 9.37011 10.375 10 10.375C10.6299 10.375 11.2343 10.1251 11.6797 9.67969C12.1251 9.23429 12.375 8.62989 12.375 8ZM13.875 8C13.875 9.02771 13.4669 10.0135 12.7402 10.7402C12.0135 11.4669 11.0277 11.875 10 11.875C8.97229 11.875 7.98647 11.4669 7.25977 10.7402C6.53306 10.0135 6.125 9.02771 6.125 8C6.125 6.97229 6.53306 5.98647 7.25977 5.25977C7.98647 4.53306 8.97229 4.125 10 4.125C11.0277 4.125 12.0135 4.53306 12.7402 5.25977C13.4669 5.98647 13.875 6.97229 13.875 8Z" fill="#1A1A1A"/>
</svg>
