<svg width="30" height="26" viewBox="0 0 30 26" fill="none" xmlns="http://www.w3.org/2000/svg">
<path d="M14.9996 2.80273C19.4105 -1.8915 26.2204 -0.203406 28.6686 4.59961C29.963 7.13935 30.0093 10.4692 28.0319 14.0703C26.0644 17.6527 22.1003 21.5042 15.3619 25.2285L14.9996 25.4287L14.6363 25.2285C7.89822 21.5042 3.93462 17.6528 1.9674 14.0703C-0.00998271 10.4692 0.0372179 7.13935 1.33165 4.59961C3.77982 -0.203353 10.5892 -1.89156 14.9996 2.80273ZM27.3317 5.28027C25.2248 1.14726 19.2195 -0.177764 15.5875 4.41504L14.9996 5.15918L14.4117 4.41504C10.7804 -0.17772 4.77554 1.14727 2.66857 5.28027C1.62985 7.31809 1.50966 10.12 3.28185 13.3477C5.03143 16.5339 8.63156 20.1327 14.9986 23.7109C21.3669 20.1324 24.9676 16.5342 26.7174 13.3477C28.4898 10.1199 28.3704 7.31812 27.3317 5.28027Z" fill="#1A1A1A"/>
</svg>
