<svg width="23" height="23" viewBox="0 0 23 23" fill="none" xmlns="http://www.w3.org/2000/svg">
<path d="M13.7113 2.18016C13.8188 1.78033 14.2304 1.54264 14.6302 1.64988C16.2404 2.08295 17.709 2.93183 18.888 4.11082C20.0671 5.28992 20.9159 6.75837 21.349 8.36864C21.4565 8.76858 21.2196 9.17995 20.8197 9.28758C20.4197 9.39515 20.0084 9.15818 19.9007 8.75828C19.5359 7.40182 18.8207 6.16462 17.8275 5.17137C16.8344 4.17835 15.5977 3.46395 14.2416 3.0991C13.8417 2.99157 13.604 2.58 13.7113 2.18016Z" fill="white"/>
<path d="M12.806 5.56108C12.9137 5.1613 13.326 4.9242 13.7259 5.03178C14.7423 5.30529 15.669 5.84128 16.4134 6.58549C17.1578 7.32991 17.6935 8.25737 17.9671 9.27397C18.0747 9.67396 17.8378 10.0853 17.4378 10.1929C17.0378 10.3004 16.6264 10.0636 16.5188 9.66362C16.3136 8.90084 15.9114 8.20559 15.3528 7.64702C14.7942 7.08836 14.0982 6.68625 13.3352 6.481C12.9355 6.37325 12.6984 5.96095 12.806 5.56108Z" fill="white"/>
<path d="M5.87012 0.796918C6.21915 0.754825 6.57264 0.826941 6.87695 1.00297C7.18047 1.17858 7.41898 1.44809 7.55664 1.77055L9.75488 6.89848V6.89946C9.85986 7.1455 9.90243 7.41424 9.87891 7.68071C9.85532 7.94696 9.76645 8.20312 9.62012 8.4268L7.7998 11.2081L7.78516 11.2373C7.78192 11.2469 7.77998 11.2574 7.7793 11.2676C7.77812 11.2861 7.78183 11.3044 7.78906 11.3213L7.95117 11.6377C8.79512 13.1948 10.1079 14.4508 11.707 15.2256L11.7354 15.2354C11.7453 15.2372 11.7555 15.2371 11.7656 15.2364C11.7858 15.2348 11.8055 15.2282 11.8223 15.2168L11.8262 15.2139L14.5645 13.3887C14.7891 13.2387 15.0484 13.1471 15.3174 13.1221C15.5862 13.0972 15.8572 13.1401 16.1055 13.2461L15.9521 13.6045L15.9102 13.7032L16.1064 13.2461L21.2275 15.4414L21.3457 15.4981C21.6166 15.64 21.843 15.8559 21.9971 16.1221C22.1731 16.4264 22.2452 16.78 22.2031 17.1289V17.1348L21.459 17.0391L21.3994 17.0313L22.2031 17.1348C22.0178 18.5827 21.3105 19.9135 20.2148 20.878C19.1192 21.8423 17.7096 22.374 16.25 22.3741C12.106 22.3741 8.13143 20.7281 5.20117 17.7979C2.27104 14.8677 0.625 10.893 0.625 6.74907C0.625217 5.28955 1.15764 3.8797 2.12207 2.78422C3.08655 1.68888 4.41755 0.982972 5.86523 0.797894L5.87012 0.796918ZM2.125 6.74907C2.125 10.4952 3.6129 14.0884 6.26172 16.7373C8.91067 19.3863 12.5038 20.8741 16.25 20.8741L16.4551 20.8702C17.4762 20.8235 18.4533 20.43 19.2236 19.752C20.0442 19.0297 20.5739 18.0333 20.7139 16.9493C20.7169 16.9231 20.7114 16.8969 20.6982 16.8741C20.685 16.8511 20.665 16.8327 20.6406 16.8223L20.9385 16.1221L20.9336 16.1319L20.6406 16.8223L20.6387 16.8213L15.5166 14.625V14.626C15.4976 14.6179 15.4766 14.6144 15.4561 14.6163C15.4354 14.6182 15.4147 14.6252 15.3975 14.6368L12.6621 16.4581L12.6631 16.459C12.4303 16.6167 12.1602 16.711 11.8799 16.7325C11.6697 16.7485 11.4591 16.7236 11.2598 16.6592L11.0596 16.5791L10.6865 16.3887C8.84765 15.4022 7.36116 13.8615 6.44141 11.9805L7.05273 11.6807L6.43945 11.9766C6.31831 11.7246 6.26434 11.445 6.2832 11.1661C6.30207 10.8871 6.3929 10.6173 6.54688 10.3838L8.36523 7.60551C8.37641 7.58835 8.38296 7.5683 8.38477 7.54789C8.38646 7.5279 8.38369 7.50782 8.37598 7.4893L6.17773 2.36235L6.17676 2.35942C6.1664 2.33526 6.1487 2.31502 6.12598 2.3018C6.10302 2.28852 6.07516 2.28202 6.04883 2.2852C4.96546 2.42522 3.97007 2.95552 3.24805 3.77543C2.52474 4.59703 2.12522 5.65446 2.125 6.74907Z" fill="white"/>
</svg>
