<svg width="12" height="12" viewBox="0 0 12 12" fill="none" xmlns="http://www.w3.org/2000/svg">
<path d="M5.25 10.6663V6.75032H1.33301C0.918903 6.75032 0.583184 6.41438 0.583008 6.00032C0.583008 5.58611 0.918794 5.25032 1.33301 5.25032H5.25V1.33333C5.25 0.919115 5.58579 0.583328 6 0.583328C6.38803 0.583493 6.7075 0.8783 6.74609 1.25618L6.75 1.33333V5.25032H10.666C11.0802 5.25032 11.416 5.58611 11.416 6.00032C11.4158 6.41438 11.0801 6.75032 10.666 6.75032H6.75V10.6663C6.75 11.0804 6.41406 11.4162 6 11.4163C5.58579 11.4163 5.25 11.0805 5.25 10.6663Z" fill="#1A1A1A"/>
</svg>
