<svg width="20" height="10" viewBox="0 0 20 10" fill="none" xmlns="http://www.w3.org/2000/svg">
<path d="M5.83301 1.66667C4.94895 1.66667 4.10111 2.01786 3.47598 2.64298C2.85086 3.2681 2.49967 4.11594 2.49967 5C2.49967 5.88405 2.85086 6.7319 3.47598 7.35702C4.10111 7.98214 4.94895 8.33333 5.83301 8.33333H7.49967C7.72069 8.33333 7.93265 8.42113 8.08893 8.57741C8.24521 8.73369 8.33301 8.94565 8.33301 9.16667C8.33301 9.38768 8.24521 9.59964 8.08893 9.75592C7.93265 9.9122 7.72069 10 7.49967 10H5.83301C4.50693 10 3.23516 9.47322 2.29747 8.53553C1.35979 7.59785 0.833008 6.32608 0.833008 5C0.833008 3.67392 1.35979 2.40215 2.29747 1.46447C3.23516 0.526784 4.50693 0 5.83301 0H7.49967C7.72069 0 7.93265 0.0877975 8.08893 0.244078C8.24521 0.400358 8.33301 0.61232 8.33301 0.833333C8.33301 1.05435 8.24521 1.26631 8.08893 1.42259C7.93265 1.57887 7.72069 1.66667 7.49967 1.66667H5.83301ZM11.6663 0.833333C11.6663 0.61232 11.7541 0.400358 11.9104 0.244078C12.0667 0.0877975 12.2787 0 12.4997 0H14.1663C15.4924 0 16.7642 0.526784 17.7019 1.46447C18.6396 2.40215 19.1663 3.67392 19.1663 5C19.1663 6.32608 18.6396 7.59785 17.7019 8.53553C16.7642 9.47322 15.4924 10 14.1663 10H12.4997C12.2787 10 12.0667 9.9122 11.9104 9.75592C11.7541 9.59964 11.6663 9.38768 11.6663 9.16667C11.6663 8.94565 11.7541 8.73369 11.9104 8.57741C12.0667 8.42113 12.2787 8.33333 12.4997 8.33333H14.1663C15.0504 8.33333 15.8982 7.98214 16.5234 7.35702C17.1485 6.7319 17.4997 5.88405 17.4997 5C17.4997 4.11594 17.1485 3.2681 16.5234 2.64298C15.8982 2.01786 15.0504 1.66667 14.1663 1.66667H12.4997C12.2787 1.66667 12.0667 1.57887 11.9104 1.42259C11.7541 1.26631 11.6663 1.05435 11.6663 0.833333ZM5.83301 5C5.83301 4.77899 5.9208 4.56702 6.07709 4.41074C6.23337 4.25446 6.44533 4.16667 6.66634 4.16667H13.333C13.554 4.16667 13.766 4.25446 13.9223 4.41074C14.0785 4.56702 14.1663 4.77899 14.1663 5C14.1663 5.22101 14.0785 5.43297 13.9223 5.58926C13.766 5.74554 13.554 5.83333 13.333 5.83333H6.66634C6.44533 5.83333 6.23337 5.74554 6.07709 5.58926C5.9208 5.43297 5.83301 5.22101 5.83301 5Z" fill="#4D4D4D"/>
</svg>
