<svg width="18" height="15" viewBox="0 0 18 15" fill="none" xmlns="http://www.w3.org/2000/svg">
<path d="M18 1.91889C17.3306 2.21252 16.6174 2.40714 15.8737 2.50164C16.6388 2.04489 17.2226 1.32714 17.4971 0.462015C16.7839 0.887265 15.9964 1.18764 15.1571 1.35527C14.4799 0.63414 13.5146 0.187515 12.4616 0.187515C10.4186 0.187515 8.77387 1.84577 8.77387 3.87864C8.77387 4.17114 8.79862 4.45239 8.85938 4.72014C5.7915 4.57052 3.07687 3.10014 1.25325 0.860265C0.934875 1.41264 0.748125 2.04489 0.748125 2.72552C0.748125 4.00352 1.40625 5.13639 2.38725 5.79227C1.79437 5.78102 1.21275 5.60889 0.72 5.33777C0.72 5.34902 0.72 5.36364 0.72 5.37827C0.72 7.17152 1.99912 8.66102 3.6765 9.00414C3.37612 9.08627 3.04875 9.12564 2.709 9.12564C2.47275 9.12564 2.23425 9.11214 2.01038 9.06264C2.4885 10.524 3.84525 11.5984 5.4585 11.6333C4.203 12.6154 2.60887 13.2071 0.883125 13.2071C0.5805 13.2071 0.29025 13.1936 0 13.1565C1.63462 14.2106 3.57188 14.8125 5.661 14.8125C12.4515 14.8125 16.164 9.18752 16.164 4.31177C16.164 4.14864 16.1584 3.99114 16.1505 3.83477C16.8829 3.31502 17.4982 2.66589 18 1.91889Z" fill="#4D4D4D"/>
</svg>
