<svg width="18" height="17" viewBox="0 0 18 17" fill="none" xmlns="http://www.w3.org/2000/svg">
<path d="M14.083 7.66656C14.083 4.39899 11.4345 1.74975 8.16699 1.74957C4.89931 1.74957 2.25 4.39888 2.25 7.66656C2.25018 10.9341 4.89942 13.5826 8.16699 13.5826C11.4344 13.5824 14.0828 10.934 14.083 7.66656ZM15.583 7.66656C15.5828 11.7624 12.2628 15.0824 8.16699 15.0826C4.07099 15.0826 0.750176 11.7625 0.75 7.66656C0.75 3.57045 4.07088 0.249573 8.16699 0.249573C12.263 0.249749 15.583 3.57056 15.583 7.66656Z" fill="#1A1A1A"/>
<path d="M12.3447 11.8443C12.6376 11.5514 13.1123 11.5514 13.4052 11.8443L17.0302 15.4693C17.3231 15.7622 17.3231 16.237 17.0302 16.5299C16.7373 16.8227 16.2626 16.8227 15.9697 16.5299L12.3447 12.9049C12.0518 12.612 12.0518 12.1372 12.3447 11.8443Z" fill="#1A1A1A"/>
</svg>
