<svg width="16" height="19" viewBox="0 0 16 19" fill="none" xmlns="http://www.w3.org/2000/svg">
<path d="M8.27344 18.918C8.10716 19.0267 7.89284 19.0267 7.72656 18.918L8 18.5L8.27344 18.918ZM15 7.86328C14.9999 6.04611 14.2647 4.30149 12.9531 3.01367C11.641 1.72545 9.85945 1 8 1C6.14055 1 4.35895 1.72545 3.04688 3.01367C1.73527 4.30149 1.0001 6.04611 1 7.86328C1 10.5224 2.75357 13.0591 4.60938 14.9824C5.52651 15.9329 6.4455 16.7104 7.13574 17.25C7.48043 17.5195 7.7673 17.7287 7.9668 17.8701C7.97796 17.878 7.98939 17.8851 8 17.8926C8.01061 17.8851 8.02204 17.878 8.0332 17.8701C8.2327 17.7287 8.51957 17.5195 8.86426 17.25C9.5545 16.7104 10.4735 15.9329 11.3906 14.9824C13.2464 13.0591 15 10.5224 15 7.86328ZM16 7.86328C16 10.9314 14.0035 13.7137 12.1094 15.6768C11.1516 16.6693 10.1954 17.4774 9.47949 18.0371C9.12112 18.3173 8.82197 18.5362 8.61133 18.6855C8.50598 18.7602 8.42272 18.8183 8.36523 18.8574C8.33671 18.8768 8.31418 18.8911 8.29883 18.9014C8.29112 18.9065 8.28545 18.9113 8.28125 18.9141C8.27926 18.9154 8.27754 18.9162 8.27637 18.917L8.27441 18.918L8 18.5L7.72559 18.918L7.72363 18.917C7.72246 18.9162 7.72074 18.9154 7.71875 18.9141C7.71455 18.9113 7.70888 18.9065 7.70117 18.9014C7.68582 18.8911 7.66329 18.8768 7.63477 18.8574C7.57728 18.8183 7.49402 18.7602 7.38867 18.6855C7.17803 18.5362 6.87888 18.3173 6.52051 18.0371C5.80455 17.4774 4.84841 16.6693 3.89062 15.6768C1.99649 13.7137 0 10.9314 0 7.86328C9.58567e-05 5.77485 0.845487 3.7737 2.34668 2.2998C3.84762 0.826268 5.8813 0 8 0C10.1187 0 12.1524 0.826267 13.6533 2.2998C15.1545 3.7737 15.9999 5.77485 16 7.86328Z" fill="#666666"/>
<path d="M10 7.86322C9.99975 6.79256 9.1131 5.90912 8 5.90912C6.8869 5.90912 6.00025 6.79256 6 7.86322C6 8.93408 6.88674 9.8183 8 9.8183C9.11326 9.8183 10 8.93408 10 7.86322ZM11 7.86322C11 9.50358 9.64817 10.8183 8 10.8183C6.35183 10.8183 5 9.50358 5 7.86322C5.00024 6.22307 6.35198 4.90912 8 4.90912C9.64802 4.90912 10.9998 6.22307 11 7.86322Z" fill="#666666"/>
</svg>
