<svg width="14" height="17" viewBox="0 0 14 17" fill="none" xmlns="http://www.w3.org/2000/svg">
<path d="M9.7334 4.33301C9.73322 2.82358 8.50947 1.59961 7 1.59961C5.49068 1.59979 4.26678 2.82369 4.2666 4.33301C4.2666 5.84248 5.49057 7.06623 7 7.06641C8.50958 7.06641 9.7334 5.84259 9.7334 4.33301ZM10.9336 4.33301C10.9336 6.50533 9.17232 8.2666 7 8.2666C4.82783 8.26643 3.06738 6.50522 3.06738 4.33301C3.06756 2.16095 4.82794 0.400567 7 0.400391C9.17221 0.400391 10.9334 2.16084 10.9336 4.33301Z" fill="#B3B3B3"/>
<path d="M9.50058 9.56708C10.8201 9.56717 12.0849 10.1707 12.8189 11.0651C13.1901 11.5175 13.4435 12.0678 13.4654 12.6686C13.4876 13.2795 13.2678 13.8826 12.7994 14.4186C11.6275 15.7594 9.7408 16.6002 7.00058 16.6003C4.26027 16.6003 2.37182 15.7595 1.1998 14.4186C0.731599 13.8828 0.512383 13.2794 0.534756 12.6686C0.556787 12.0678 0.809994 11.5176 1.18124 11.0651C1.91532 10.1705 3.18053 9.56708 4.50058 9.56708H9.50058ZM4.50058 10.7663C3.51895 10.7663 2.60219 11.2258 2.10898 11.8268C1.86676 12.1221 1.74441 12.4279 1.73398 12.7126C1.72392 12.9873 1.81549 13.2994 2.10409 13.6296C2.99211 14.6453 4.51117 15.4001 7.00058 15.4001C9.48992 15.4 11.0081 14.6454 11.8961 13.6296C12.1848 13.2993 12.2761 12.9872 12.2662 12.7126C12.2558 12.4278 12.1336 12.1212 11.8912 11.8259C11.398 11.225 10.4817 10.7664 9.50058 10.7663H4.50058Z" fill="#B3B3B3"/>
</svg>
