<?xml version="1.0" standalone="no"?>
<!DOCTYPE svg PUBLIC "-//W3C//DTD SVG 20010904//EN"
 "http://www.w3.org/TR/2001/REC-SVG-20010904/DTD/svg10.dtd">
<svg version="1.0" xmlns="http://www.w3.org/2000/svg"
 width="92.000000pt" height="92.000000pt" viewBox="0 0 92.000000 92.000000"
 preserveAspectRatio="xMidYMid meet">

<g transform="translate(0.000000,92.000000) scale(0.100000,-0.100000)"
fill="#000000" stroke="none">
<path d="M10 905 c-21 -25 0 -35 76 -35 68 0 75 -2 84 -22 11 -26 90 -382 90
-405 0 -8 -9 -26 -20 -40 -39 -50 -13 -117 49 -129 l28 -6 -23 -24 c-30 -29
-30 -65 -1 -100 33 -37 81 -37 114 0 30 35 29 71 -1 101 l-24 24 151 3 c84 2
156 1 160 -1 5 -1 -1 -9 -11 -17 -29 -20 -38 -69 -17 -100 45 -69 145 -37 145
47 0 11 -11 31 -25 44 -14 15 -19 25 -11 25 8 0 19 7 26 15 10 12 10 18 0 30
-10 12 -56 15 -269 17 -248 3 -256 4 -256 23 0 19 8 20 256 23 204 2 259 5
268 16 7 8 30 76 52 153 22 76 47 162 56 191 14 46 14 55 2 63 -8 5 -163 9
-345 9 l-332 0 -7 37 c-13 71 -16 73 -114 73 -65 0 -92 -4 -101 -15z m842
-150 c5 -5 -76 -297 -88 -316 -3 -5 -103 -9 -224 -9 -248 0 -221 -12 -247 105
-8 39 -21 99 -29 135 -8 36 -14 71 -14 77 0 10 66 13 298 13 164 0 301 -2 304
-5z m-477 -560 c0 -21 -31 -33 -46 -18 -5 5 -7 17 -3 27 9 24 49 17 49 -9z
m382 9 c3 -8 -1 -22 -9 -30 -12 -12 -17 -12 -33 0 -16 12 -17 16 -6 30 17 20
40 21 48 0z"/>
</g>
</svg>
