<svg width="18" height="18" viewBox="0 0 18 18" fill="none" xmlns="http://www.w3.org/2000/svg">
<path d="M16.0425 9.49969C16.0424 9.21847 15.9319 8.9484 15.7339 8.74872L8.75146 1.7663H1.26611V9.25067L8.24951 16.2263C8.34848 16.3253 8.4659 16.4041 8.59521 16.4577C8.7247 16.5114 8.86422 16.5388 9.00439 16.5388C9.14444 16.5387 9.28323 16.5113 9.4126 16.4577C9.54193 16.4041 9.65931 16.3253 9.7583 16.2263L10.6079 17.0739C10.3974 17.2847 10.1468 17.452 9.87158 17.5661C9.59664 17.68 9.302 17.7389 9.00439 17.739C8.7066 17.739 8.41134 17.6801 8.13623 17.5661C7.86136 17.4522 7.61125 17.2853 7.40088 17.0749L0.242676 9.9245C0.130003 9.81196 0.0668945 9.65895 0.0668945 9.49969V1.16669C0.0668945 0.835316 0.335133 0.567078 0.666504 0.567078H8.99951C9.15864 0.567078 9.31179 0.630337 9.42432 0.742859L16.5835 7.90204L16.2993 8.18329L16.2427 8.23993L16.5835 7.90204C17.0056 8.32665 17.2426 8.90099 17.2427 9.49969C17.2427 10.0985 17.0057 10.6736 16.5835 11.0983L16.1577 10.6745L16.5825 11.0993L10.6079 17.0739L9.75928 16.2253L15.7339 10.2507C15.9317 10.0509 16.0425 9.78088 16.0425 9.49969Z" fill="#B3B3B3"/>
<path d="M4.8418 4.58337C5.2558 4.58362 5.5918 4.91931 5.5918 5.33337C5.5918 5.74744 5.2558 6.08313 4.8418 6.08337H4.83301C4.41879 6.08337 4.08301 5.74759 4.08301 5.33337C4.08301 4.91916 4.41879 4.58337 4.83301 4.58337H4.8418Z" fill="#B3B3B3"/>
</svg>
